<svg xmlns="http://www.w3.org/2000/svg" viewBox="0 0 1920.58 235.89"><defs><style>.cls-1,.cls-2{fill:none;}.cls-1,.cls-2,.cls-3,.cls-4{stroke:#000;}.cls-1{stroke-linecap:round;stroke-linejoin:round;}.cls-2,.cls-3,.cls-4{stroke-miterlimit:10;}.cls-3{fill:gray;stroke-width:0.7px;}.cls-4{fill:#fff;stroke-width:0;}</style></defs><g id="Calque_2" data-name="Calque 2"><g id="Calque_2-2" data-name="Calque 2"><line class="cls-1" x1="0.5" y1="197.06" x2="13.5" y2="197.06"/><path d="M1920.58,148.69a25.77,25.77,0,0,1-25.37,21.87H1859.7v19a25.26,25.26,0,0,0,25.37,25h10.14a25.26,25.26,0,0,0,25.37-25Z"/><line class="cls-1" x1="1887.2" y1="171" x2="1900.2" y2="171"/><path class="cls-2" d="M25.05,214.33a24.12,24.12,0,0,1-24.1-24V170.5"/><path class="cls-3" d="M380.83,131.1l.07,0Z"/><path class="cls-3" d="M379.73,131.65l.12-.05Z"/><path class="cls-3" d="M369.2,134c.42,0,.85,0,1.27,0C370.05,134,369.62,134,369.2,134Z"/><path class="cls-3" d="M381.9,130.51l0,0Z"/><path class="cls-3" d="M382.92,129.86h0Z"/><path class="cls-3" d="M378.59,132.15l.17-.07Z"/><path class="cls-3" d="M372.36,133.79l.59-.07Z"/><path class="cls-3" d="M375,133.32l.39-.09Z"/><path class="cls-3" d="M376.21,133l.3-.09Z"/><path class="cls-3" d="M377.41,132.6l.24-.08Z"/><path class="cls-3" d="M371,133.93c.25,0,.51,0,.76-.06C371.47,133.9,371.21,133.91,371,133.93Z"/><path class="cls-3" d="M373.68,133.59l.48-.09Z"/><path class="cls-4" d="M373,133.72l.73-.13Z"/><path class="cls-4" d="M370.47,134l.49,0Z"/><path class="cls-4" d="M371.72,133.87l.64-.08Z"/><path class="cls-4" d="M379.85,131.6c.33-.16.66-.32,1-.5C380.51,131.28,380.18,131.44,379.85,131.6Z"/><path class="cls-4" d="M381.93,130.49q.51-.3,1-.63Q382.44,130.19,381.93,130.49Z"/><path class="cls-4" d="M380.9,131.07c.34-.18.67-.37,1-.56C381.57,130.7,381.24,130.89,380.9,131.07Z"/><path class="cls-4" d="M386.6,126.9a25.43,25.43,0,0,1-3.67,3A25.43,25.43,0,0,0,386.6,126.9Z"/><path class="cls-4" d="M377.65,132.52l.94-.37Z"/><path class="cls-4" d="M375.35,133.23l.86-.24Z"/><path class="cls-4" d="M376.51,132.9l.9-.3Z"/><path class="cls-4" d="M378.76,132.08c.33-.13.65-.28,1-.43C379.41,131.8,379.09,132,378.76,132.08Z"/><path class="cls-4" d="M374.16,133.5c.27-.05.53-.12.8-.18C374.69,133.38,374.43,133.45,374.16,133.5Z"/><path class="cls-3" d="M380.83,131.1l.07,0Z"/><path class="cls-3" d="M379.73,131.65l.12-.05Z"/><path class="cls-3" d="M369.2,134c.42,0,.85,0,1.27,0C370.05,134,369.62,134,369.2,134Z"/><path class="cls-3" d="M381.9,130.51l0,0Z"/><path class="cls-3" d="M382.92,129.86h0Z"/><path class="cls-3" d="M378.59,132.15l.17-.07Z"/><path class="cls-3" d="M372.36,133.79l.59-.07Z"/><path class="cls-3" d="M375,133.32l.39-.09Z"/><path class="cls-3" d="M376.21,133l.3-.09Z"/><path class="cls-3" d="M377.41,132.6l.24-.08Z"/><path class="cls-3" d="M371,133.93c.25,0,.51,0,.76-.06C371.47,133.9,371.21,133.91,371,133.93Z"/><path class="cls-3" d="M373.68,133.59l.48-.09Z"/><path class="cls-1" d="M338.7,73.5v32.86c0,12.73,9.56,23.14,21.25,23.14h8.5c11.69,0,21.25-10.41,21.25-23.14V73.5"/><path class="cls-1" d="M386.6,126.9a25.43,25.43,0,0,1-3.67,3h0q-.48.33-1,.63l0,0c-.33.19-.66.38-1,.56l-.07,0c-.32.18-.65.34-1,.5l-.12.05c-.32.15-.64.3-1,.43l-.17.07-.94.37-.24.08-.9.3-.3.09-.86.24-.39.09c-.27.06-.53.13-.8.18l-.48.09-.73.13-.59.07-.64.08c-.25,0-.51,0-.76.06l-.49,0c-.42,0-.85,0-1.27,0h-10a25.07,25.07,0,0,1-25-25"/><path class="cls-1" d="M386.6,126.9a24.92,24.92,0,0,0,7.6-17.9V73.5"/><path class="cls-1" d="M274.2,109a25.07,25.07,0,0,0,25,25h10a25.07,25.07,0,0,0,25-25"/><path class="cls-1" d="M278.7,73.5v32.86c0,12.73,9.56,23.14,21.25,23.14h8.5c11.69,0,21.25-10.41,21.25-23.14V73.5"/><line class="cls-1" x1="334.2" y1="73.5" x2="334.2" y2="109"/><path class="cls-1" d="M218.7,73.5v32.86c0,12.73,9.56,23.14,21.25,23.14h8.5c11.69,0,21.25-10.41,21.25-23.14V73.5"/><path class="cls-1" d="M274.2,109a25.07,25.07,0,0,1-25,25h-10a25.07,25.07,0,0,1-25-25"/><line class="cls-1" x1="274.2" y1="109" x2="274.2" y2="73.5"/><path class="cls-4" d="M373,133.72l.73-.13Z"/><path class="cls-4" d="M370.47,134l.49,0Z"/><path class="cls-4" d="M371.72,133.87l.64-.08Z"/><path class="cls-4" d="M379.85,131.6c.33-.16.66-.32,1-.5C380.51,131.28,380.18,131.44,379.85,131.6Z"/><path class="cls-4" d="M381.93,130.49q.51-.3,1-.63Q382.44,130.19,381.93,130.49Z"/><path class="cls-4" d="M380.9,131.07c.34-.18.67-.37,1-.56C381.57,130.7,381.24,130.89,380.9,131.07Z"/><path class="cls-4" d="M386.6,126.9a25.43,25.43,0,0,1-3.67,3A25.43,25.43,0,0,0,386.6,126.9Z"/><path class="cls-4" d="M377.65,132.52l.94-.37Z"/><path class="cls-4" d="M375.35,133.23l.86-.24Z"/><path class="cls-4" d="M376.51,132.9l.9-.3Z"/><path class="cls-4" d="M378.76,132.08c.33-.13.65-.28,1-.43C379.41,131.8,379.09,132,378.76,132.08Z"/><path class="cls-4" d="M374.16,133.5c.27-.05.53-.12.8-.18C374.69,133.38,374.43,133.45,374.16,133.5Z"/><line class="cls-1" x1="61" y1="171.5" x2="61" y2="129.5"/><circle class="cls-2" cx="95.7" cy="141.5" r="25.5"/><line class="cls-1" x1="218.77" y1="93.37" x2="218.77" y2="0.5"/><path d="M363,170.5H124.7v-25a25.07,25.07,0,0,1-25,25h-39v44H363.39"/><path class="cls-1" d="M179.7,106.5a23.07,23.07,0,0,1-23,23h-14"/><line class="cls-1" x1="179.7" y1="106.5" x2="179.7" y2="90.94"/><line class="cls-1" x1="145.7" y1="129.5" x2="124.7" y2="129.5"/><line class="cls-1" x1="394.2" y1="104" x2="394.2" y2="134.87"/><path d="M394.2,133.5l.5-16.5v-3a6,6,0,0,1-.61-.09A25.09,25.09,0,0,1,369.7,133.5H354.23a25.1,25.1,0,0,1-20-24.5,25.1,25.1,0,0,1-20,24.5H294.24a25.11,25.11,0,0,1-20-24.5,25.09,25.09,0,0,1-20.06,24.5H239.7a25.07,25.07,0,0,1-25-25V1h-7.13c-13.07,0-23.76,11.25-23.76,25v82.5a25.13,25.13,0,0,1-25.11,25h-34v33H341.77a5.43,5.43,0,0,0,1.22-.13h26.58a25.29,25.29,0,0,0,25.14-25.29V133.5Z"/><path d="M60.66,148.81v-.08l-.17,0C59,161,48.81,170.5,36.6,170.5H1.45v11.83H.58v7.5a25.19,25.19,0,0,0,25.22,25H36.6v0h0l0,0c13,0,23.74-10.89,24.08-24.33h0V149.17C60.69,149.05,60.66,148.93,60.66,148.81Zm-9,41.86v-.17h.11Z"/><path class="cls-1" d="M5.61,166.37H35.36c11.69,0,21.25-10.41,21.25-23.14"/><line class="cls-1" x1="56.61" y1="143.37" x2="56.61" y2="129.87"/><line class="cls-1" x1="0.58" y1="166.39" x2="15.08" y2="166.39"/><path d="M1883.58,170.69H361.8v43.9H1883.58"/><line class="cls-2" x1="1919.58" y1="235.39" x2="0.58" y2="235.39"/><line class="cls-2" x1="1920.58" y1="235.39" x2="0.58" y2="235.39"/><line class="cls-2" x1="1920.58" y1="230.39" x2="0.58" y2="230.39"/><line class="cls-2" x1="1920.58" y1="225.39" x2="0.58" y2="225.39"/></g></g></svg>