<svg width="1921" height="236" viewBox="0 0 1921 236" fill="none" xmlns="http://www.w3.org/2000/svg">
<path d="M1920.5 148.69C1919.57 154.76 1916.5 160.299 1911.85 164.309C1907.2 168.319 1901.27 170.535 1895.13 170.56H1859.62V189.56C1859.69 196.233 1862.4 202.608 1867.15 207.292C1871.9 211.977 1878.32 214.589 1884.99 214.56H1895.13C1901.8 214.589 1908.22 211.977 1912.97 207.292C1917.72 202.608 1920.43 196.233 1920.5 189.56V148.69Z" fill="#C70E0E"/>
<path d="M1887.12 171H1900.12" stroke="#C70E0E" stroke-linecap="round" stroke-linejoin="round"/>
<path d="M25 214.33C18.6272 214.325 12.5154 211.798 7.99981 207.301C3.48418 202.804 0.931728 196.703 0.900024 190.33V170.5" stroke="#C70E0E" stroke-miterlimit="10"/>
<path d="M380.75 131.1H380.83" stroke="#C70E0E" stroke-width="0.7" stroke-miterlimit="10"/>
<path d="M379.65 131.65L379.77 131.6" stroke="#C70E0E" stroke-width="0.7" stroke-miterlimit="10"/>
<path d="M369.12 134C369.55 134 369.97 134 370.39 134C370 134 369.55 134 369.12 134Z" fill="#808080" stroke="#C70E0E" stroke-width="0.7" stroke-miterlimit="10"/>
<path d="M378.51 132.15L378.68 132.08" stroke="#C70E0E" stroke-width="0.7" stroke-miterlimit="10"/>
<path d="M372.29 133.79L372.87 133.72" stroke="#C70E0E" stroke-width="0.7" stroke-miterlimit="10"/>
<path d="M374.88 133.32L375.27 133.23" stroke="#C70E0E" stroke-width="0.7" stroke-miterlimit="10"/>
<path d="M376.13 133L376.43 132.91" stroke="#C70E0E" stroke-width="0.7" stroke-miterlimit="10"/>
<path d="M377.33 132.6L377.57 132.52" stroke="#C70E0E" stroke-width="0.7" stroke-miterlimit="10"/>
<path d="M370.88 133.93C371.13 133.93 371.39 133.93 371.64 133.87C371.39 133.9 371.13 133.91 370.88 133.93Z" fill="#808080" stroke="#C70E0E" stroke-width="0.7" stroke-miterlimit="10"/>
<path d="M373.6 133.59L374.08 133.5" stroke="#C70E0E" stroke-width="0.7" stroke-miterlimit="10"/>
<path d="M386.52 126.9C385.393 128.012 384.164 129.016 382.85 129.9C384.166 129.019 385.395 128.014 386.52 126.9Z" fill="#C70E0E"/>
<path d="M376.43 132.9C376.74 132.81 377.04 132.7 377.33 132.6C377 132.7 376.74 132.81 376.43 132.9Z" fill="#C70E0E"/>
<path d="M378.68 132.08C379.01 131.95 379.33 131.8 379.68 131.65C379.33 131.8 379 132 378.68 132.08Z" fill="#C70E0E"/>
<path d="M380.75 131.1H380.83" stroke="#C70E0E" stroke-width="0.7" stroke-miterlimit="10"/>
<path d="M379.65 131.65L379.77 131.6" stroke="#C70E0E" stroke-width="0.7" stroke-miterlimit="10"/>
<path d="M369.12 134C369.55 134 369.97 134 370.39 134C370 134 369.55 134 369.12 134Z" fill="#808080" stroke="#C70E0E" stroke-width="0.7" stroke-miterlimit="10"/>
<path d="M378.51 132.15L378.68 132.08" stroke="#C70E0E" stroke-width="0.7" stroke-miterlimit="10"/>
<path d="M372.29 133.79L372.87 133.72" stroke="#C70E0E" stroke-width="0.7" stroke-miterlimit="10"/>
<path d="M374.88 133.32L375.27 133.23" stroke="#C70E0E" stroke-width="0.7" stroke-miterlimit="10"/>
<path d="M376.13 133L376.43 132.91" stroke="#C70E0E" stroke-width="0.7" stroke-miterlimit="10"/>
<path d="M377.33 132.6L377.57 132.52" stroke="#C70E0E" stroke-width="0.7" stroke-miterlimit="10"/>
<path d="M370.88 133.93C371.13 133.93 371.39 133.93 371.64 133.87C371.39 133.9 371.13 133.91 370.88 133.93Z" fill="#808080" stroke="#C70E0E" stroke-width="0.7" stroke-miterlimit="10"/>
<path d="M373.6 133.59L374.08 133.5" stroke="#C70E0E" stroke-width="0.7" stroke-miterlimit="10"/>
<path d="M338.62 73.5V106.36C338.62 119.09 348.18 129.5 359.87 129.5H368.37C380.06 129.5 389.62 119.09 389.62 106.36V73.5" stroke="#C70E0E" stroke-linecap="round" stroke-linejoin="round"/>
<path d="M386.52 126.9C385.393 128.012 384.164 129.016 382.85 129.9C382.53 130.12 382.197 130.33 381.85 130.53L380.85 131.09H380.77C380.45 131.27 380.12 131.43 379.77 131.59L379.65 131.64C379.33 131.79 379.01 131.94 378.65 132.07L378.48 132.14L377.54 132.51L377.3 132.59C377.01 132.69 376.71 132.8 376.4 132.89L376.1 132.98L375.24 133.22L374.85 133.31C374.59 133.37 374.32 133.44 374.05 133.49L373.57 133.58L372.84 133.71L372.26 133.78L371.61 133.86C371.36 133.86 371.1 133.86 370.85 133.92H370.36C369.94 133.92 369.52 133.92 369.09 133.92H359.09C352.465 133.902 346.117 131.262 341.433 126.577C336.748 121.893 334.108 115.545 334.09 108.92" stroke="#C70E0E" stroke-linecap="round" stroke-linejoin="round"/>
<path d="M386.52 126.9C388.922 124.578 390.833 121.797 392.138 118.722C393.444 115.647 394.118 112.341 394.12 109V73.5" stroke="#C70E0E" stroke-linecap="round" stroke-linejoin="round"/>
<path d="M274.12 109C274.138 115.625 276.778 121.973 281.463 126.657C286.147 131.342 292.495 133.982 299.12 134H309.12C315.745 133.982 322.093 131.342 326.777 126.657C331.462 121.973 334.102 115.625 334.12 109" stroke="#C70E0E" stroke-linecap="round" stroke-linejoin="round"/>
<path d="M278.62 73.5V106.36C278.62 119.09 288.18 129.5 299.87 129.5H308.37C320.06 129.5 329.62 119.09 329.62 106.36V73.5" stroke="#C70E0E" stroke-linecap="round" stroke-linejoin="round"/>
<path d="M334.12 73.5V109" stroke="#C70E0E" stroke-linecap="round" stroke-linejoin="round"/>
<path d="M218.62 73.5V106.36C218.62 119.09 228.18 129.5 239.87 129.5H248.37C260.06 129.5 269.62 119.09 269.62 106.36V73.5" stroke="#C70E0E" stroke-linecap="round" stroke-linejoin="round"/>
<path d="M274.12 109C274.102 115.625 271.462 121.973 266.777 126.657C262.093 131.342 255.745 133.982 249.12 134H239.12C232.495 133.982 226.147 131.342 221.463 126.657C216.778 121.973 214.138 115.625 214.12 109" stroke="#C70E0E" stroke-linecap="round" stroke-linejoin="round"/>
<path d="M274.12 109V73.5" stroke="#C70E0E" stroke-linecap="round" stroke-linejoin="round"/>
<path d="M386.52 126.9C385.393 128.012 384.164 129.016 382.85 129.9C384.166 129.019 385.395 128.014 386.52 126.9Z" fill="#C70E0E"/>
<path d="M376.43 132.9C376.74 132.81 377.04 132.7 377.33 132.6C377 132.7 376.74 132.81 376.43 132.9Z" fill="#C70E0E"/>
<path d="M378.68 132.08C379.01 131.95 379.33 131.8 379.68 131.65C379.33 131.8 379 132 378.68 132.08Z" fill="#C70E0E"/>
<path d="M60.92 171.5V129.5" stroke="#C70E0E" stroke-linecap="round" stroke-linejoin="round"/>
<path d="M95.62 167C109.703 167 121.12 155.583 121.12 141.5C121.12 127.417 109.703 116 95.62 116C81.5367 116 70.12 127.417 70.12 141.5C70.12 155.583 81.5367 167 95.62 167Z" stroke="#C70E0E" stroke-miterlimit="10"/>
<path d="M218.69 93.37V0.5" stroke="#C70E0E" stroke-linecap="round" stroke-linejoin="round"/>
<path d="M362.93 170.5H124.62V145.5C124.604 152.126 121.965 158.475 117.28 163.16C112.595 167.845 106.246 170.484 99.62 170.5H60.62V214.5H363.31" fill="#C70E0E"/>
<path d="M179.62 106.5C179.602 112.594 177.172 118.434 172.863 122.743C168.554 127.052 162.714 129.482 156.62 129.5H142.62" stroke="#C70E0E" stroke-linecap="round" stroke-linejoin="round"/>
<path d="M179.62 106.5V90.9399" stroke="#C70E0E" stroke-linecap="round" stroke-linejoin="round"/>
<path d="M145.62 129.5H124.62" stroke="#C70E0E" stroke-linecap="round" stroke-linejoin="round"/>
<path d="M394.12 104V134.87" stroke="#C70E0E" stroke-linecap="round" stroke-linejoin="round"/>
<path d="M394.12 133.5L394.62 117V114C394.413 114.011 394.207 114.011 394 114C392.746 119.538 389.652 124.486 385.221 128.037C380.791 131.588 375.288 133.532 369.61 133.55H354.16C348.522 132.38 343.457 129.307 339.816 124.846C336.174 120.385 334.178 114.808 334.16 109.05C334.142 114.808 332.146 120.385 328.504 124.846C324.863 129.307 319.798 132.38 314.16 133.55H294.16C288.523 132.378 283.459 129.305 279.818 124.844C276.177 120.384 274.179 114.808 274.16 109.05C274.143 114.818 272.139 120.403 268.485 124.866C264.831 129.329 259.751 132.396 254.1 133.55H239.62C232.995 133.532 226.647 130.892 221.963 126.207C217.278 121.523 214.638 115.175 214.62 108.55V1H207.49C194.42 1 183.73 12.25 183.73 26V108.5C183.696 115.139 181.036 121.494 176.331 126.179C171.626 130.863 165.259 133.495 158.62 133.5H124.62V166.5H341.69C342.1 166.504 342.51 166.46 342.91 166.37H369.49C376.171 166.33 382.565 163.648 387.276 158.91C391.986 154.171 394.63 147.761 394.63 141.08V133.5H394.12Z" fill="#C70E0E"/>
<path d="M60.59 148.81V148.73H60.41C58.88 161 48.73 170.5 36.52 170.5H1.37V182.33H0.5V189.83C0.550178 196.483 3.23037 202.846 7.95546 207.53C12.6806 212.214 19.0668 214.838 25.72 214.83H36.52C49.52 214.83 60.26 203.94 60.6 190.5V149.17C60.61 149.05 60.59 148.93 60.59 148.81ZM51.59 190.67V190.5H51.7L51.59 190.67Z" fill="#C70E0E"/>
<path d="M5.53003 166.37H35.28C46.97 166.37 56.53 155.96 56.53 143.23" stroke="#C70E0E" stroke-linecap="round" stroke-linejoin="round"/>
<path d="M56.53 143.37V129.87" stroke="#C70E0E" stroke-linecap="round" stroke-linejoin="round"/>
<path d="M0.5 166.39H15" stroke="#C70E0E" stroke-linecap="round" stroke-linejoin="round"/>
<path d="M1883.5 170.69H361.73V214.59H1883.5" fill="#C70E0E"/>
<path d="M1919.5 235.39H0.5" stroke="#C70E0E" stroke-miterlimit="10"/>
<path d="M1920.5 235.39H0.5" stroke="#C70E0E" stroke-miterlimit="10"/>
<path d="M1920.5 230.39H0.5" stroke="#C70E0E" stroke-miterlimit="10"/>
<path d="M1920.5 225.39H0.5" stroke="#C70E0E" stroke-miterlimit="10"/>
</svg>
