<svg xmlns="http://www.w3.org/2000/svg" xmlns:xlink="http://www.w3.org/1999/xlink" viewBox="0 0 360.38 738.26"><defs><style>.cls-1,.cls-10,.cls-4,.cls-6,.cls-8,.cls-9{fill:none;}.cls-2{fill:#c70e0e;}.cls-3{clip-path:url(#clip-path);}.cls-10,.cls-4,.cls-6,.cls-8,.cls-9{stroke:#fff;}.cls-4,.cls-6{stroke-miterlimit:10;}.cls-10,.cls-4,.cls-8,.cls-9{stroke-width:0.67px;}.cls-5{fill:gray;}.cls-6{stroke-width:0.47px;}.cls-11,.cls-12,.cls-13,.cls-15,.cls-7{fill:#fff;}.cls-8,.cls-9{stroke-linecap:round;}.cls-10,.cls-8{stroke-linejoin:round;}.cls-11,.cls-13{font-size:17px;}.cls-11{font-family:29LTBaseet-ExtraBold, "29LT Baseet";}.cls-11,.cls-15{font-weight:800;}.cls-12{font-size:16px;font-family:NHaasGroteskDSPro-75Bd, Neue Haas Grotesk Display Pro;}.cls-13{font-family:NHaasGroteskDSPro-65Md, Neue Haas Grotesk Display Pro;font-weight:500;}.cls-14{clip-path:url(#clip-path-11);}.cls-15{font-size:15.96px;font-family:AkkuratLLHeb-Black, Akkurat LL Hebrew;}.cls-16{clip-path:url(#clip-path-12);}</style><clipPath id="clip-path"><rect class="cls-1" width="360" height="738.26"/></clipPath><clipPath id="clip-path-11"><rect class="cls-1" x="116.29" y="586.74" width="190.12" height="29.97"/></clipPath><clipPath id="clip-path-12"><rect class="cls-1" x="20.46" y="586.78" width="187.05" height="29.97"/></clipPath></defs><g id="Calque_2" data-name="Calque 2"><g id="Calque_2-2" data-name="Calque 2"><rect class="cls-2" width="360" height="738.26"/><g class="cls-3"><rect class="cls-4" x="39.97" y="188.01" width="280.06" height="324.25" rx="20.77"/><path class="cls-5" d="M278.91,288.22l0,0,0,0"/><path class="cls-6" d="M278.91,288.22l0,0Z"/><path class="cls-5" d="M278.17,288.59l.08,0-.08,0"/><path class="cls-6" d="M278.17,288.59l.08,0Z"/><path class="cls-5" d="M271.12,290.16l.85,0-.85,0"/><path class="cls-6" d="M271.12,290.16l.85,0Z"/><path class="cls-5" d="M279.63,287.82h0"/><path class="cls-6" d="M279.63,287.82h0Z"/><polyline class="cls-5" points="280.31 287.39 280.32 287.39 280.31 287.39"/><path class="cls-6" d="M280.31,287.39h0Z"/><path class="cls-5" d="M277.41,288.92l.12,0-.12,0"/><path class="cls-6" d="M277.41,288.92l.12,0Z"/><path class="cls-5" d="M273.24,290l.39,0-.39,0"/><path class="cls-6" d="M273.24,290l.39,0Z"/><path class="cls-5" d="M275,289.7l.26-.06-.26.06"/><path class="cls-6" d="M275,289.7l.26-.06Z"/><path class="cls-5" d="M275.82,289.48l.2-.06-.2.06"/><path class="cls-6" d="M275.82,289.48l.2-.06Z"/><path class="cls-5" d="M276.62,289.22l.16-.05-.16.05"/><path class="cls-6" d="M276.62,289.22l.16-.05Z"/><path class="cls-5" d="M272.3,290.12l.51,0-.51,0"/><path class="cls-6" d="M272.3,290.12l.51,0Z"/><path class="cls-5" d="M274.12,289.88l.32-.05-.32.05"/><path class="cls-6" d="M274.12,289.88l.32-.05Z"/><path class="cls-7" d="M167.27,273.41v0a16.8,16.8,0,0,1-16.75,16.75H184a16.8,16.8,0,0,1-16.75-16.75"/><path class="cls-7" d="M207.47,273.41v0a16.8,16.8,0,0,1-16.75,16.75h33.5a16.8,16.8,0,0,1-16.75-16.75"/><path class="cls-7" d="M127.07,273.41v0a16.8,16.8,0,0,1-16.75,16.75h33.5a16.8,16.8,0,0,1-16.75-16.75"/><path class="cls-7" d="M86.87,273.41v16.75h16.75a16.8,16.8,0,0,1-16.75-16.75"/><path class="cls-7" d="M247.67,273.41v0a16.8,16.8,0,0,1-16.75,16.75h33.5a16.8,16.8,0,0,1-16.75-16.75"/><path class="cls-7" d="M273.63,290c.17,0,.33-.06.49-.09-.16,0-.32.07-.49.09"/><path class="cls-7" d="M272,290.14l.33,0-.33,0"/><path class="cls-7" d="M272.81,290.08l.43-.06-.43.06"/><path class="cls-7" d="M278.25,288.55a6.77,6.77,0,0,0,.66-.33,6.77,6.77,0,0,1-.66.33"/><path class="cls-7" d="M279.65,287.81l.66-.42-.66.42"/><path class="cls-7" d="M280.31,287.39l-.66.42h0c-.22.13-.44.26-.67.38l0,0a6.77,6.77,0,0,1-.66.33l-.08,0-.64.29-.12,0-.63.25-.16.05-.6.2-.2.06-.58.16-.26.06-.54.13-.32.05c-.16,0-.32.07-.49.09l-.39,0-.43.06-.51,0-.33,0-.85,0H86.87v.34H270.78a16.69,16.69,0,0,0,12-5.1h0a18.07,18.07,0,0,1-2.46,2h0"/><path class="cls-7" d="M279,288.2c.23-.12.45-.25.67-.38-.22.13-.44.26-.67.38"/><path class="cls-7" d="M282.78,285.41a18.07,18.07,0,0,1-2.46,2,18.07,18.07,0,0,0,2.46-2"/><path class="cls-7" d="M276.78,289.17l.63-.25-.63.25"/><path class="cls-7" d="M275.24,289.64l.58-.16-.58.16"/><path class="cls-7" d="M276,289.42l.6-.2-.6.2"/><path class="cls-7" d="M277.53,288.88l.64-.29-.64.29"/><path class="cls-7" d="M274.44,289.83l.54-.12-.54.12"/><path class="cls-7" d="M47,295.19v29.48a16.66,16.66,0,0,0,16.47,16.75h6.58a16.67,16.67,0,0,0,16.48-16.75V311.94H63.48A16.66,16.66,0,0,1,47,295.19"/><path class="cls-5" d="M278.91,288.22l0,0,0,0"/><path class="cls-6" d="M278.91,288.22l0,0Z"/><path class="cls-5" d="M278.17,288.59l.08,0-.08,0"/><path class="cls-6" d="M278.17,288.59l.08,0Z"/><path class="cls-5" d="M271.12,290.16l.85,0-.85,0"/><path class="cls-6" d="M271.12,290.16l.85,0Z"/><path class="cls-5" d="M279.63,287.82h0"/><path class="cls-6" d="M279.63,287.82h0Z"/><polyline class="cls-5" points="280.31 287.39 280.32 287.39 280.31 287.39"/><path class="cls-6" d="M280.31,287.39h0Z"/><path class="cls-5" d="M277.41,288.92l.12,0-.12,0"/><path class="cls-6" d="M277.41,288.92l.12,0Z"/><path class="cls-5" d="M273.24,290l.39,0-.39,0"/><path class="cls-6" d="M273.24,290l.39,0Z"/><path class="cls-5" d="M275,289.7l.26-.06-.26.06"/><path class="cls-6" d="M275,289.7l.26-.06Z"/><path class="cls-5" d="M275.82,289.48l.2-.06-.2.06"/><path class="cls-6" d="M275.82,289.48l.2-.06Z"/><path class="cls-5" d="M276.62,289.22l.16-.05-.16.05"/><path class="cls-6" d="M276.62,289.22l.16-.05Z"/><path class="cls-5" d="M272.3,290.12l.51,0-.51,0"/><path class="cls-6" d="M272.3,290.12l.51,0Z"/><path class="cls-5" d="M274.12,289.88l.32-.05-.32.05"/><path class="cls-6" d="M274.12,289.88l.32-.05Z"/><path class="cls-8" d="M50,293.42v-6.27m36.85,3.35V273.41m40.2,0V249.63m0,23.78a16.8,16.8,0,0,0,16.75,16.75h6.7a16.8,16.8,0,0,0,16.75-16.75m-37.18-23.78v22c0,8.53,6.4,15.51,14.23,15.51H150c7.83,0,14.24-7,14.24-15.51v-22m-37.19,23.78a16.8,16.8,0,0,1-16.75,16.75h-6.7a16.8,16.8,0,0,1-16.75-16.75m3-23.78v22c0,8.53,6.4,15.51,14.23,15.51h5.7c7.83,0,14.24-7,14.24-15.51v-22m158.72,35.78a16.74,16.74,0,0,0,5.09-12V249.63m-5.09,35.78h0a16.68,16.68,0,0,1-12,5.1H86.87m195.91-5.09a18.07,18.07,0,0,1-2.46,2h0l-.67.42h0c-.22.13-.44.26-.67.38l0,0a6.77,6.77,0,0,1-.66.33l-.08,0-.64.29-.12,0-.63.25-.16.05-.6.2-.2.06-.58.16-.26.06-.54.13-.32.05c-.16,0-.32.07-.49.09l-.39,0-.43.06-.51,0-.33,0-.85,0h-6.7a16.8,16.8,0,0,1-16.75-16.75m3-23.78v22c0,8.53,6.4,15.51,14.23,15.51h5.7c7.83,0,14.24-7,14.24-15.51v-22"/></g><line class="cls-9" x1="83.86" y1="308.59" x2="83.86" y2="255.66"/><g class="cls-3"><path class="cls-8" d="M207.47,273.41V249.63m-40.2,0v23.78m40.2,0a16.8,16.8,0,0,1-16.75,16.75H184a16.8,16.8,0,0,1-16.75-16.75m3-23.78v22c0,8.53,6.4,15.51,14.23,15.51h5.7c7.83,0,14.24-7,14.24-15.51v-22m43.21,0v23.78m-37.18-23.78v22c0,8.53,6.4,15.51,14.23,15.51h5.7c7.83,0,14.23-7,14.23-15.51v-22m-37.18,23.78a16.8,16.8,0,0,0,16.75,16.75h6.7a16.8,16.8,0,0,0,16.75-16.75m-160.8-21.1v21.1"/><path class="cls-7" d="M167.27,273.41v0a16.8,16.8,0,0,1-16.75,16.75H184a16.8,16.8,0,0,1-16.75-16.75"/><path class="cls-7" d="M207.47,273.41v0a16.8,16.8,0,0,1-16.75,16.75h33.5a16.8,16.8,0,0,1-16.75-16.75"/><path class="cls-7" d="M127.07,273.41v0a16.8,16.8,0,0,1-16.75,16.75h33.5a16.8,16.8,0,0,1-16.75-16.75"/><path class="cls-7" d="M247.67,273.41v0a16.8,16.8,0,0,1-16.75,16.75h33.5a16.8,16.8,0,0,1-16.75-16.75"/><path class="cls-7" d="M273.63,290c.17,0,.33-.06.49-.09-.16,0-.32.07-.49.09"/><path class="cls-7" d="M272,290.14l.33,0-.33,0"/><path class="cls-7" d="M272.81,290.08l.43-.06-.43.06"/><path class="cls-7" d="M278.25,288.55a6.77,6.77,0,0,0,.66-.33,6.77,6.77,0,0,1-.66.33"/><path class="cls-7" d="M279.65,287.81l.66-.42-.66.42"/><path class="cls-7" d="M280.31,287.39l-.66.42h0c-.22.13-.44.26-.67.38l0,0a6.77,6.77,0,0,1-.66.33l-.08,0-.64.29-.12,0-.63.25-.16.05-.6.2-.2.06-.58.16-.26.06-.54.13-.32.05c-.16,0-.32.07-.49.09l-.39,0-.43.06-.51,0-.33,0-.85,0H86.87v.34H270.78a16.69,16.69,0,0,0,12-5.1h0a18.07,18.07,0,0,1-2.46,2h0"/><path class="cls-7" d="M279,288.2c.23-.12.45-.25.67-.38-.22.13-.44.26-.67.38"/><path class="cls-7" d="M282.78,285.41a18.07,18.07,0,0,1-2.46,2,18.07,18.07,0,0,0,2.46-2"/><path class="cls-7" d="M276.78,289.17l.63-.25-.63.25"/><path class="cls-7" d="M275.24,289.64l.58-.16-.58.16"/><path class="cls-7" d="M276,289.42l.6-.2-.6.2"/><path class="cls-7" d="M277.53,288.88l.64-.29-.64.29"/><path class="cls-7" d="M274.44,289.83l.54-.12-.54.12"/><path class="cls-7" d="M46.67,302.22V331.7a16.73,16.73,0,0,0,16.61,16.75h6.64A16.74,16.74,0,0,0,86.54,331.7V319H63.28a16.73,16.73,0,0,1-16.61-16.75"/><path class="cls-7" d="M313.67,297.87v-77c0-.38-.18-.68-.41-.68H292c-.22,0-.41.3-.41.68v77"/><path class="cls-7" d="M291.56,239.91h5a16.8,16.8,0,0,1,16.75,16.75v38.19a16.8,16.8,0,0,1-16.75,16.75h-5"/><path class="cls-4" d="M291.56,239.91h5a16.8,16.8,0,0,1,16.75,16.75v38.19a16.8,16.8,0,0,1-16.75,16.75h-5"/><path class="cls-7" d="M287.87,289.83v5a16.8,16.8,0,0,1-16.75,16.75H232.93a16.8,16.8,0,0,1-16.75-16.75v-5"/><path class="cls-4" d="M287.87,289.83v5a16.8,16.8,0,0,1-16.75,16.75H232.93a16.8,16.8,0,0,1-16.75-16.75v-5"/><path class="cls-7" d="M86.54,311.94h166c.81,0,1.48-.18,1.48-.4V290.23c0-.22-.67-.4-1.48-.4h-166"/><path class="cls-4" d="M313.33,304.9v38.19a16.8,16.8,0,0,1-16.75,16.75h-5"/><path class="cls-7" d="M177.65,221.15a4.36,4.36,0,1,1-4.35-4.35,4.35,4.35,0,0,1,4.35,4.35"/><path class="cls-7" d="M166.26,221.15a4.36,4.36,0,1,1-4.35-4.35,4.35,4.35,0,0,1,4.35,4.35"/><path class="cls-7" d="M136.79,335.72a4.36,4.36,0,1,1-4.36-4.35,4.36,4.36,0,0,1,4.36,4.35"/><path class="cls-7" d="M125.39,335.72a4.36,4.36,0,1,1-4.35-4.35,4.36,4.36,0,0,1,4.35,4.35"/></g><line class="cls-8" x1="46.67" y1="303.23" x2="46.67" y2="249.96"/><g class="cls-3"><path class="cls-10" d="M84.19,308.92H64.26c-7.83,0-14.24-7-14.24-15.5"/></g><line class="cls-8" x1="287.87" y1="291.5" x2="287.87" y2="249.96"/><g class="cls-3"><path class="cls-7" d="M287.8,276.73a16.81,16.81,0,0,1-16.34,13.1h16.41l.34-11.06v-2c-.15,0-.28,0-.41-.06"/><rect class="cls-4" x="43.32" y="191.67" width="273.36" height="316.72" rx="18.09"/><path class="cls-7" d="M291.56,194.92h5a16.84,16.84,0,0,1,16.75,16.83v38.37A16.85,16.85,0,0,1,296.58,267h-5"/><path class="cls-4" d="M291.56,194.92h5a16.84,16.84,0,0,1,16.75,16.83v38.37A16.85,16.85,0,0,1,296.58,267h-5"/><path class="cls-7" d="M313,460.83l-.12,0a16.81,16.81,0,0,1-16.6,14.61H272.8v12.73a16.8,16.8,0,0,0,16.75,16.75h6.7A16.8,16.8,0,0,0,313,488.15v-27a1.81,1.81,0,0,1,0-.23Z"/><path class="cls-4" d="M313.33,420.81V459a16.8,16.8,0,0,1-16.75,16.75h-5"/></g><line class="cls-8" x1="291.22" y1="475.75" x2="299.93" y2="475.75"/><g class="cls-3"><path class="cls-4" d="M313.33,380.61V342.42a16.8,16.8,0,0,0-16.75-16.75h-5M46.67,473.07V211A16.13,16.13,0,0,1,62.75,194.9h234.5A16.13,16.13,0,0,1,313.33,211V488.7a16.13,16.13,0,0,1-16.08,16.08H86.54m-23.79-.06a16.13,16.13,0,0,1-16.08-16.08V475.35"/><path class="cls-5" d="M301,449l.05,0-.05,0"/><path class="cls-6" d="M301,449l.05,0Z"/><path class="cls-5" d="M300.28,449.39l.08,0-.08,0"/><path class="cls-6" d="M300.28,449.39l.08,0Z"/><path class="cls-5" d="M293.23,451l.85,0-.85,0"/><path class="cls-6" d="M293.23,451l.85,0Z"/><path class="cls-5" d="M301.74,448.62h0"/><path class="cls-6" d="M301.74,448.62h0Z"/><polyline class="cls-5" points="302.43 448.19 302.43 448.19 302.43 448.19"/><path class="cls-6" d="M302.42,448.19h0Z"/><path class="cls-5" d="M299.52,449.72l.12,0-.12,0"/><path class="cls-6" d="M299.52,449.72l.12,0Z"/><path class="cls-5" d="M295.35,450.82l.39-.05-.39.05"/><path class="cls-6" d="M295.35,450.82l.39-.05Z"/><path class="cls-5" d="M297.09,450.5l.26-.06-.26.06"/><path class="cls-6" d="M297.09,450.5l.26-.06Z"/><path class="cls-5" d="M297.93,450.28l.2-.06-.2.06"/><path class="cls-6" d="M297.93,450.28l.2-.06Z"/><path class="cls-5" d="M298.73,450l.16,0-.16,0"/><path class="cls-6" d="M298.73,450l.16,0Z"/><path class="cls-5" d="M294.41,450.92l.51,0-.51,0"/><path class="cls-6" d="M294.41,450.92l.51,0Z"/><path class="cls-5" d="M296.23,450.68l.32-.05-.32.05"/><path class="cls-6" d="M296.23,450.68l.32-.05Z"/><path class="cls-7" d="M229.58,434.21v0A16.8,16.8,0,0,1,212.83,451h33.5a16.8,16.8,0,0,1-16.75-16.75"/><path class="cls-7" d="M269.78,434.21v0A16.8,16.8,0,0,1,253,451h33.5a16.8,16.8,0,0,1-16.75-16.75"/><path class="cls-7" d="M295.74,450.77c.17,0,.33-.06.49-.09-.16,0-.32.07-.49.09"/><path class="cls-7" d="M294.08,450.94l.33,0-.33,0"/><path class="cls-7" d="M294.92,450.88l.43-.06-.43.06"/><path class="cls-7" d="M300.36,449.35A6.77,6.77,0,0,0,301,449a6.77,6.77,0,0,1-.66.33"/><path class="cls-7" d="M301.76,448.61l.67-.42-.67.42"/><path class="cls-7" d="M301.07,449c.23-.12.45-.25.67-.38-.22.13-.44.26-.67.38"/><path class="cls-7" d="M304.89,446.21a18.07,18.07,0,0,1-2.46,2,18.07,18.07,0,0,0,2.46-2"/><path class="cls-7" d="M298.89,450l.63-.25-.63.25"/><path class="cls-7" d="M297.35,450.44l.58-.16-.58.16"/><path class="cls-7" d="M298.13,450.23l.6-.21-.6.21"/><path class="cls-7" d="M299.64,449.68l.64-.29-.64.29"/><path class="cls-7" d="M296.55,450.63l.54-.13-.54.13"/><path class="cls-5" d="M301,449l.05,0-.05,0"/><path class="cls-6" d="M301,449l.05,0Z"/><path class="cls-5" d="M300.28,449.39l.08,0-.08,0"/><path class="cls-6" d="M300.28,449.39l.08,0Z"/><path class="cls-5" d="M293.23,451l.85,0-.85,0"/><path class="cls-6" d="M293.23,451l.85,0Z"/><path class="cls-5" d="M301.74,448.62h0"/><path class="cls-6" d="M301.74,448.62h0Z"/><polyline class="cls-5" points="302.43 448.19 302.43 448.19 302.43 448.19"/><path class="cls-6" d="M302.42,448.19h0Z"/><path class="cls-5" d="M299.52,449.72l.12,0-.12,0"/><path class="cls-6" d="M299.52,449.72l.12,0Z"/><path class="cls-5" d="M295.35,450.82l.39-.05-.39.05"/><path class="cls-6" d="M295.35,450.82l.39-.05Z"/><path class="cls-5" d="M297.09,450.5l.26-.06-.26.06"/><path class="cls-6" d="M297.09,450.5l.26-.06Z"/><path class="cls-5" d="M297.93,450.28l.2-.06-.2.06"/><path class="cls-6" d="M297.93,450.28l.2-.06Z"/><path class="cls-5" d="M298.73,450l.16,0-.16,0"/><path class="cls-6" d="M298.73,450l.16,0Z"/><path class="cls-5" d="M294.41,450.92l.51,0-.51,0"/><path class="cls-6" d="M294.41,450.92l.51,0Z"/><path class="cls-5" d="M296.23,450.68l.32-.05-.32.05"/><path class="cls-6" d="M296.23,450.68l.32-.05Z"/><path class="cls-8" d="M229.58,434.21V410.43m0,23.78A16.8,16.8,0,0,1,212.83,451h-6.7a16.8,16.8,0,0,1-16.75-16.75m3-23.78v22c0,8.53,6.4,15.51,14.23,15.51h5.7c7.83,0,14.24-7,14.24-15.51v-22m43.21,0v23.78M232.6,410.43v22C232.6,441,239,448,246.83,448h5.7c7.83,0,14.24-7,14.24-15.51v-22m-37.19,23.78A16.8,16.8,0,0,0,246.33,451H253a16.8,16.8,0,0,0,16.75-16.75m35.11,12a16.74,16.74,0,0,0,5.09-12V410.43m-5.09,35.78h0a14.17,14.17,0,0,1-10.7,5.1H130.09m174.8-5.09a18.07,18.07,0,0,1-2.46,2h0l-.67.42h0c-.22.13-.44.26-.67.38l-.05,0a6.77,6.77,0,0,1-.66.33l-.08,0-.64.29-.12,0-.63.25-.16,0-.6.2-.2.06-.58.16-.26.06-.54.13-.32.05c-.16,0-.32.07-.49.09l-.39.05-.43.06-.51,0-.33,0-.85,0h-6.7a16.8,16.8,0,0,1-16.75-16.75m3-23.78v22C272.8,441,279.2,448,287,448h5.7c7.83,0,14.24-7,14.24-15.51v-22"/><path class="cls-7" d="M229.58,434.21v0A16.8,16.8,0,0,1,212.83,451h33.5a16.8,16.8,0,0,1-16.75-16.75"/><path class="cls-7" d="M269.78,434.21v0A16.8,16.8,0,0,1,253,451h33.5a16.8,16.8,0,0,1-16.75-16.75"/><path class="cls-7" d="M295.74,450.77c.17,0,.33-.06.49-.09-.16,0-.32.07-.49.09"/><path class="cls-7" d="M294.08,450.94l.33,0-.33,0"/><path class="cls-7" d="M294.92,450.88l.43-.06-.43.06"/><path class="cls-7" d="M300.36,449.35A6.77,6.77,0,0,0,301,449a6.77,6.77,0,0,1-.66.33"/><path class="cls-7" d="M301.76,448.61l.67-.42-.67.42"/><path class="cls-7" d="M301.07,449c.23-.12.45-.25.67-.38-.22.13-.44.26-.67.38"/><path class="cls-7" d="M304.89,446.21a18.07,18.07,0,0,1-2.46,2,18.07,18.07,0,0,0,2.46-2"/><path class="cls-7" d="M298.89,450l.63-.25-.63.25"/><path class="cls-7" d="M297.35,450.44l.58-.16-.58.16"/><path class="cls-7" d="M298.13,450.23l.6-.21-.6.21"/><path class="cls-7" d="M299.64,449.68l.64-.29-.64.29"/><path class="cls-7" d="M296.55,450.63l.54-.13-.54.13"/><path class="cls-7" d="M310,450.63v5a16.8,16.8,0,0,1-16.75,16.75H255a16.8,16.8,0,0,1-16.75-16.75v-5"/><path class="cls-4" d="M310,450.63v5a16.8,16.8,0,0,1-16.75,16.75H255a16.8,16.8,0,0,1-16.75-16.75v-5"/><path class="cls-7" d="M129.41,472.74H274.85c.72,0,1.29-.18,1.29-.4V451c0-.22-.57-.4-1.29-.4H129.41"/><path class="cls-7" d="M86.53,504.9H289.08c1,0,1.8-.24,1.8-.54V476c0-.29-.8-.53-1.8-.53H86.53"/><path class="cls-7" d="M86.54,479V461.12a1.81,1.81,0,0,1,0-.23v-.06l-.12,0c-1,8.21-7.79,14.61-15.93,14.61"/><path class="cls-7" d="M169.62,389.66V472c0,.41.16.74.36.74h19.37c.2,0,.37-.33.37-.74V389.66"/></g><line class="cls-8" x1="86.74" y1="476.09" x2="86.74" y2="447.95"/><g class="cls-3"><circle class="cls-4" cx="109.99" cy="455.99" r="17.08"/><path class="cls-8" d="M84.19,458V448M50,473.07H70c7.83,0,14.24-7,14.24-15.5m108.25-30.4V361.52"/><path class="cls-7" d="M189.72,361.85h-4.57c-8.38,0-15.23,7.54-15.23,16.75v38.19c0,9.21,6.85,16.75,15.23,16.75h4.57"/><path class="cls-4" d="M189.72,361.85h-4.57c-8.38,0-15.23,7.54-15.23,16.75v38.19c0,9.21,6.85,16.75,15.23,16.75h4.57"/></g><line class="cls-8" x1="46.67" y1="473.07" x2="55.38" y2="473.07"/><g class="cls-3"><path class="cls-7" d="M189.72,433.88v16.75h16.75a16.8,16.8,0,0,1-16.75-16.75"/><path class="cls-7" d="M169.62,433.88v16.75H152.87a16.8,16.8,0,0,0,16.75-16.75"/><path class="cls-7" d="M129.41,458.67v16.75H112.66a16.8,16.8,0,0,0,16.75-16.75"/></g><polygon class="cls-7" points="302.18 342.77 304.29 345.65 300.74 345.26 299.31 348.52 297.87 345.26 294.33 345.65 296.43 342.77 294.33 339.9 297.87 340.28 299.31 337.02 300.74 340.28 304.29 339.9 302.18 342.77"/><rect class="cls-7" x="47.01" y="475.42" width="39.53" height="13.4"/><g class="cls-3"><path class="cls-7" d="M313.21,483.23v5A16.83,16.83,0,0,1,296.38,505H258a16.83,16.83,0,0,1-16.82-16.75v-5"/><path class="cls-4" d="M313.21,483.23v5A16.83,16.83,0,0,1,296.38,505H258a16.83,16.83,0,0,1-16.82-16.75v-5"/><path class="cls-8" d="M143.49,448H129.42m37.52-15.41V422.11m0,10.43A15.46,15.46,0,0,1,151.53,448h-9.38"/><path class="cls-7" d="M310,457a15.45,15.45,0,0,1-15.41,15.41h-9.38A15.46,15.46,0,0,1,269.78,457"/><path class="cls-8" d="M310,457a15.45,15.45,0,0,1-15.41,15.41h-9.38A15.46,15.46,0,0,1,269.78,457"/></g><line class="cls-8" x1="309.98" y1="430.86" x2="309.98" y2="456.99"/><g class="cls-3"><path class="cls-7" d="M309.91,437.53a16.81,16.81,0,0,1-16.34,13.1H310l.34-11.06v-2c-.15,0-.28,0-.41-.06"/><path class="cls-7" d="M73.81,483.34H46.42v5a16.85,16.85,0,0,0,16.83,16.75h7.21"/></g><rect class="cls-7" x="69.79" y="487.92" width="10.72" height="13.4"/><g class="cls-3"><path class="cls-7" d="M70.46,505.12c8.84,0,16.08-7.54,16.08-16.75v-9.16"/></g><rect class="cls-7" x="70.46" y="500.21" width="2.68" height="4.02"/><rect class="cls-7" x="68.44" y="501.08" width="2.68" height="4.02"/><path class="cls-7" d="M139.57,115.77v1c0,.34-.1.63-.44.63h-3.08a.63.63,0,0,1-.62-.63v-5h-1.35a1.13,1.13,0,0,0-1.24,1.28v4.6c0,2.15-.93,3.47-3.5,3.47h-2a3.54,3.54,0,0,1-3.76-3.67,5.57,5.57,0,0,1,1-3.23.6.6,0,0,1,.85-.19l.73.5a.63.63,0,0,1,.19.85,3.57,3.57,0,0,0-.54,1.78c0,1.16.59,1.74,1.53,1.74h2a1.1,1.1,0,0,0,1.26-1.21V113c0-2.18.92-3.52,3.45-3.52H137a.64.64,0,0,1,.63.63v5h1.48C139.47,115.14,139.57,115.43,139.57,115.77Zm-.88,1.14V115.6a.46.46,0,0,1,.46-.46H144a.47.47,0,0,1,.46.46v1.31a.45.45,0,0,1-.46.46h-4.88A.45.45,0,0,1,138.69,116.91Zm4.9,0V115.6a.46.46,0,0,1,.46-.46h4.87a.46.46,0,0,1,.46.46v1.31a.45.45,0,0,1-.46.46h-4.87A.45.45,0,0,1,143.59,116.91Zm16.25-1.31v1.31a.45.45,0,0,1-.44.46,2.79,2.79,0,0,1-2.27-.85,3.27,3.27,0,0,1-2.63,1.17l-2.67-1.1a3.18,3.18,0,0,1-2.19.78h-.72a.45.45,0,0,1-.44-.46V115.6a.46.46,0,0,1,.44-.46h.7c.68,0,1-.22,1-.9v-1.59a3.12,3.12,0,0,1,3.4-3.35h.49a3.09,3.09,0,0,1,3.38,3.35V114c.1.75.63,1.15,1.52,1.15A.46.46,0,0,1,159.84,115.6Zm-4.18-3a1.11,1.11,0,0,0-1.14-1.11H154a1.15,1.15,0,0,0-1.14,1.11v1.61a4.71,4.71,0,0,1,0,.53l1.7.7a1.19,1.19,0,0,0,1.16-1.26Zm10.11,3v1.31a.44.44,0,0,1-.44.46,2.72,2.72,0,0,1-2.3-.9,3.48,3.48,0,0,1-2.66.9h-1a.45.45,0,0,1-.45-.46V115.6a.46.46,0,0,1,.45-.46h1c.82,0,1.21-.37,1.21-1.19v-6.46h-.43a.61.61,0,0,1-.62-.61v-1a.63.63,0,0,1,.62-.63h2a.66.66,0,0,1,.65.63V114c.1.75.62,1.15,1.51,1.15A.45.45,0,0,1,165.77,115.6Zm12.89-5.54v4.1c0,2.36-1.23,3.53-3.15,3.53a3.6,3.6,0,0,1-2.45-.8,3.08,3.08,0,0,1-2.22.8,3.44,3.44,0,0,1-2.62-1,3.9,3.9,0,0,1-2.33.66h-.56a.44.44,0,0,1-.44-.46V115.6a.45.45,0,0,1,.44-.46h.59a1.06,1.06,0,0,0,1.19-1.19v-2.78a.63.63,0,0,1,.62-.63h1a.62.62,0,0,1,.61.63v3c0,1,.53,1.27,1.19,1.27a1.11,1.11,0,0,0,1.26-1.27v-3a.64.64,0,0,1,.63-.63h1a.64.64,0,0,1,.63.63v3c0,1,.51,1.27,1.19,1.27a1.11,1.11,0,0,0,1.26-1.27v-4.1a.62.62,0,0,1,.61-.63h1A.63.63,0,0,1,178.66,110.06Zm9.84,2.65v4.71c0,2.36-1.16,3.62-3.35,3.62h-1.43a3.18,3.18,0,0,1-2.29-.92.61.61,0,0,1-.07-.88l.56-.61c.26-.31.49-.31.85-.09a1.57,1.57,0,0,0,1,.28h1.41c.76,0,1.09-.41,1.1-1.23v-.29a3.73,3.73,0,0,1-1.6.36h-.49a2.75,2.75,0,0,1-2.89-2.79v-2.16a3.36,3.36,0,0,1,3.25-3.41h.73A3.26,3.26,0,0,1,188.5,112.71Zm-2.23,1.72v-.93a.28.28,0,0,1,0-.14v-.66a1.11,1.11,0,0,0-1.16-1.18h-.46a1.12,1.12,0,0,0-1.15,1.18v1.46c0,.8.37,1.27,1.15,1.27h.46A1.06,1.06,0,0,0,186.27,114.43Zm21.42,1.17v1.31a.46.46,0,0,1-.46.46h-.3c-2.55,0-3.45-1.29-3.45-3.43v-2.25h-3.59v5.73c0,2.38-1.12,3.62-3.28,3.62h-.21a3.22,3.22,0,0,1-2.19-.83.71.71,0,0,1-.12-.92l.5-.64a.55.55,0,0,1,.85-.07,1.5,1.5,0,0,0,.95.25h.24c.78,0,1.05-.35,1.05-1.39v-7.36a.62.62,0,0,1,.61-.61h5.19V109a.61.61,0,0,1,.61-.61h1a.61.61,0,0,1,.62.61v5a1,1,0,0,0,1.2,1.19h.34A.47.47,0,0,1,207.69,115.6Zm-4.57,3.3v1.22a.44.44,0,0,1-.43.45H201.4a.45.45,0,0,1-.44-.45V118.9a.42.42,0,0,1,.44-.41h1.29A.41.41,0,0,1,203.12,118.9Zm3,0v1.22a.44.44,0,0,1-.42.45h-1.29a.45.45,0,0,1-.44-.45V118.9a.42.42,0,0,1,.44-.41h1.29A.4.4,0,0,1,206.09,118.9Zm8.93-3.3v1.31a.44.44,0,0,1-.44.46H214a2.54,2.54,0,0,1-2.14-.9,3.5,3.5,0,0,1-2.67.9h-1.91a.45.45,0,0,1-.44-.46V115.6a.46.46,0,0,1,.44-.46h1.94a1.05,1.05,0,0,0,1.21-1.19V110.1a.62.62,0,0,1,.61-.63h1a.62.62,0,0,1,.61.63v3.62a1.35,1.35,0,0,0,1.38,1.42h.61A.45.45,0,0,1,215,115.6Zm-6.09-7.7v-1.24a.44.44,0,0,1,.46-.39h1.29a.39.39,0,0,1,.41.39v1.24a.42.42,0,0,1-.41.44h-1.29A.46.46,0,0,1,208.93,107.9Zm3,0v-1.24a.42.42,0,0,1,.44-.39h1.29a.39.39,0,0,1,.41.39v1.24a.42.42,0,0,1-.41.44h-1.29A.44.44,0,0,1,211.93,107.9Zm2.21,9V115.6a.46.46,0,0,1,.46-.46h4.87a.46.46,0,0,1,.46.46v1.31a.45.45,0,0,1-.46.46H214.6A.45.45,0,0,1,214.14,116.91Zm4.89,0V115.6a.47.47,0,0,1,.46-.46h4.88a.47.47,0,0,1,.46.46v1.31a.45.45,0,0,1-.46.46h-4.88A.45.45,0,0,1,219,116.91Zm18.67-6.85v4.1c0,2.36-1.23,3.53-3.15,3.53a3.6,3.6,0,0,1-2.45-.8,3.07,3.07,0,0,1-2.22.8,3.45,3.45,0,0,1-2.62-1,3.9,3.9,0,0,1-2.33.66h-.56a.44.44,0,0,1-.44-.46V115.6a.45.45,0,0,1,.44-.46H225a1.06,1.06,0,0,0,1.19-1.19v-2.78a.63.63,0,0,1,.62-.63h1a.62.62,0,0,1,.61.63v3c0,1,.53,1.27,1.19,1.27a1.11,1.11,0,0,0,1.26-1.27v-3a.64.64,0,0,1,.63-.63h1a.64.64,0,0,1,.63.63v3c0,1,.51,1.27,1.19,1.27a1.11,1.11,0,0,0,1.26-1.27v-4.1a.62.62,0,0,1,.61-.63h1A.63.63,0,0,1,237.7,110.06Zm5.61-4.16v10.84a.62.62,0,0,1-.61.63h-1a.64.64,0,0,1-.63-.63l0-9.25h-.42a.61.61,0,0,1-.62-.61v-1a.63.63,0,0,1,.62-.63h2A.64.64,0,0,1,243.31,105.9Z"/><path class="cls-7" d="M140.39,88.14c0-1.42-.77-1.92-2.06-1.92H134V83.91h4.9c2.85,0,4.25,1.43,4.25,4v6h-2.74Zm-6.41.28h2.74v5.49H134Zm11.51-1.53-.68-3h2.82l.33,1.51a3.05,3.05,0,0,1,3-1.75c2.45,0,3.47,1.52,3.47,4v6.19H149.3V91.59h2.39V87.74c0-1-.51-1.72-1.59-1.72-1.48,0-2,1.44-2,2.89l-.34,5H145Zm15-.67h-5.12V81.6h2.72v2.31h5.22v2.43l-3.11,7.57h-2.91Zm5.25,6.67a5,5,0,1,1,6.9,0,5.39,5.39,0,0,1-6.9,0Zm5.66-4c0-1.58-.53-3-2.21-3s-2.21,1.38-2.21,3,.49,3,2.21,3S171.38,90.37,171.38,88.91Zm4.78-2.69H175V83.91h3.86v10h-2.74Zm12.48,1.94c0-1.36-.7-1.94-2-1.94h-2.93V83.91h3.45c2.86,0,4.2,1.43,4.2,4v6h-2.73Zm4.5,5.64V91.73a2.59,2.59,0,0,0,.65.07c.73,0,1.09-.29,1.09-1.4V86.22h-1.64V83.91h6.67c2.85,0,4.2,1.34,4.2,3.94v6.06h-2.74V88.09c0-1.36-.66-1.87-2-1.87h-1.8v4.32c0,2.86-1.53,3.48-3.09,3.48A3.59,3.59,0,0,1,193.14,93.8Zm14.2-.91a5.24,5.24,0,0,1,3.45-9.22,5.24,5.24,0,1,1-3.45,9.22Zm5.66-4c0-1.58-.53-3-2.21-3s-2.21,1.38-2.21,3,.49,3,2.21,3S213,90.37,213,88.91Zm3.92,1.34a2.85,2.85,0,0,1,2-2.92l-2.33-3.42h3.19l3.13,5c.43-.16.7-.53.7-1.55V83.91h2.67V87.6A2.83,2.83,0,0,1,224,90.54l2.38,3.37h-3.29L220.07,89c-.33.2-.48.61-.48,1.43v3.47h-2.67Z"/><text class="cls-11" transform="translate(121.67 637.23)"> </text><text class="cls-12" transform="translate(112.37 69.98)">ESTHER & SELMA</text><text class="cls-13" transform="translate(21.26 585.61)">Rencontres cinématographiques Essaouira</text><g class="cls-14"><text class="cls-15" transform="translate(147.37 611)"> </text><path class="cls-7" d="M148.46,601.62h4.8c2.68,0,4,1.31,4,3.75V611h-8.79Zm6.22,7.21v-3.27c0-1.29-.72-1.77-1.93-1.77H151v5Zm4.77-5h-1v-2.17H162V608h-2.57Zm4.61,0h-1v-2.17h3.6V608h-2.57Zm4,5h2.17l-2-7.21h2.6l2,7.18c1.21-.08,1.49-1.15,1.49-2.47v-4.71h2.56v4.79c0,3-1.69,4.59-4.93,4.59H168.1Zm10.88-5h-1v-2.17h3.62V611H179Zm4.31,5h2.44v-4c0-.69-.33-1-1-1h-1.13v-2.17h1.87c2,0,2.82,1.23,2.82,3.23V611h-5Zm10.84-5h-4.81v-4.34h2.56v2.17h4.9v2.28l-2.92,7.1h-2.73Zm4.83,0h-1.05v-2.17h3.62V611H199Zm11.06,0H203.7v-2.17h9v2.28l-2.92,7.1H207Zm-6.32,2.3h2.57v8.27H203.7Zm13.5-4.47H222c2.68,0,4,1.31,4,3.75V611H217.2Zm6.22,7.21v-3.27c0-1.29-.71-1.77-1.93-1.77h-1.72v5Zm4.78-5h-1v-2.17h3.6V608H228.2Zm4.4,2.13v-4.3h2.47v4.73c1.28-.05,1.9-.69,1.9-2.14v-2.59h2.43v2.84c0,2.57-1.79,3.5-3.77,3.58a2.9,2.9,0,0,0,2.51,1c2.05,0,3-1.13,3-3.06v-4.39h2.47v4.3c0,3.11-1.77,5.31-5.42,5.31S232.6,609,232.6,605.92Zm12.53,5v-2.25a3.32,3.32,0,0,0,.79.06c1.36,0,2.29-.45,2.29-2.11v-1.73c0-.82-.36-1.14-1.11-1.14h-1.61v-2.17H248c1.87,0,2.82,1,2.82,2.94v3l.74,3.47h-2.38l-.35-1.59a2.57,2.57,0,0,1-2.55,1.74A2.45,2.45,0,0,1,245.13,611Zm8.2-2.13h3c1.69,0,2.31-1,2.31-2.55,0-1.34-.43-2.74-2.14-2.74-1,0-1.69.44-1.69,1.26s.69,1.18,1.63,1.18v2a1.37,1.37,0,0,1-.27,0c-2.48,0-3.82-1.25-3.82-3.18s1.65-3.43,4.12-3.43a4.39,4.39,0,0,1,4.75,4.75c0,3-1.88,4.85-4.65,4.85h-3.21Zm9.52-4.41-.64-2.8h2.65l.31,1.42A2.88,2.88,0,0,1,268,601.4c2.3,0,3.26,1.42,3.26,3.8V611h-4.82v-2.17h2.25v-3.62a1.41,1.41,0,0,0-1.5-1.61c-1.39,0-1.84,1.36-1.92,2.71l-.32,4.69h-2.58Z"/></g><g class="cls-16"><path class="cls-7" d="M91.46,605.64c0-1.34-.71-1.81-1.93-1.81H85.45v-2.17H90c2.68,0,4,1.34,4,3.79v5.6H91.46Zm-6,.25H88v5.16H85.45Zm13.82-.24c0-1.27-.66-1.82-1.87-1.82H94.66v-2.17H97.9c2.68,0,3.94,1.34,3.94,3.79v5.6H99.27Zm4.77-1.82h-1v-2.17h3.61V608H104Zm4.39,3.79a2.68,2.68,0,0,1,1.9-2.75l-2.19-3.21h3l2.94,4.71c.39-.14.65-.49.65-1.45v-3.26h2.5v3.47a2.66,2.66,0,0,1-2.12,2.76l2.24,3.16h-3.1l-2.87-4.6c-.3.19-.45.57-.45,1.34v3.26h-2.5Zm10.9-3.79h-1.06v-2.17h3.62v9.39h-2.56Zm5.68,6.26a5,5,0,1,1,3.24,1.18A4.69,4.69,0,0,1,125,610.09Zm5.31-3.74c0-1.48-.49-2.77-2.07-2.77s-2.08,1.29-2.08,2.77.46,2.78,2.08,2.78S130.32,607.73,130.32,606.35Zm3.69,1.27a2.68,2.68,0,0,1,1.9-2.75l-2.19-3.21h3l2.93,4.71c.4-.14.66-.49.66-1.45v-3.26h2.5v3.47a2.66,2.66,0,0,1-2.12,2.76l2.24,3.16h-3.1l-2.87-4.6c-.3.19-.45.57-.45,1.34v3.26H134Z"/></g><path class="cls-7" d="M157.66,634.86a3.19,3.19,0,0,1-1.54-.37,2.63,2.63,0,0,1-1.1-1,2.92,2.92,0,0,1-.4-1.54v-1.42a4.12,4.12,0,0,1,.42-1.9,3.09,3.09,0,0,1,1.21-1.27,3.53,3.53,0,0,1,1.79-.45h.43a2.36,2.36,0,0,1,1.43.45,2.8,2.8,0,0,1,.93,1.27,5.08,5.08,0,0,1,.33,1.9v1a3.63,3.63,0,0,1-.78,2.44,2.56,2.56,0,0,1-2.09.92Zm-1.78-9.7a.45.45,0,0,1-.32-.14.46.46,0,0,1-.15-.33V623.4a.39.39,0,0,1,.15-.31.48.48,0,0,1,.32-.13h1.37a.44.44,0,0,1,.32.13.4.4,0,0,1,.13.31v1.29a.48.48,0,0,1-.13.33.42.42,0,0,1-.32.14Zm2.77,7.34a1.14,1.14,0,0,0,.91-.36,1.42,1.42,0,0,0,.32-1v-.7a1.21,1.21,0,0,0-.35-.92,1.29,1.29,0,0,0-.88-.32h-.46a1.25,1.25,0,0,0-.86.33,1.16,1.16,0,0,0-.37.91v.68a1.43,1.43,0,0,0,.31,1,1.13,1.13,0,0,0,.92.35Zm.4-7.34a.48.48,0,0,1-.34-.14.46.46,0,0,1-.15-.33V623.4a.39.39,0,0,1,.15-.31.51.51,0,0,1,.34-.13h1.35a.44.44,0,0,1,.32.13.4.4,0,0,1,.13.31v1.29a.48.48,0,0,1-.13.33.42.42,0,0,1-.32.14ZM163,635.42a2.91,2.91,0,0,1-2.25-.93,3.49,3.49,0,0,1-.84-2.45V626.8a.61.61,0,0,1,.2-.47.63.63,0,0,1,.46-.2h1a.68.68,0,0,1,.67.67V632a.92.92,0,0,0,.29.75,1.2,1.2,0,0,0,.8.25h.42a.46.46,0,0,1,.34.15.44.44,0,0,1,.14.34v1.4a.46.46,0,0,1-.14.35.49.49,0,0,1-.34.14Z"/><path class="cls-7" d="M163.75,635.42a.48.48,0,0,1-.34-.14.49.49,0,0,1-.13-.35v-1.38a.47.47,0,0,1,.13-.34.45.45,0,0,1,.34-.15h2.05a1.34,1.34,0,0,0,.95-.3,1.27,1.27,0,0,0,.33-1v-4.08a.64.64,0,0,1,.19-.47.59.59,0,0,1,.45-.2h1.05a.62.62,0,0,1,.45.2.65.65,0,0,1,.2.47v4.06a3.85,3.85,0,0,1-.86,2.71,3.65,3.65,0,0,1-2.8.93Zm1.83,3.38a.41.41,0,0,1-.32-.14.43.43,0,0,1-.14-.32V637a.39.39,0,0,1,.14-.31.47.47,0,0,1,.32-.12H167a.47.47,0,0,1,.32.12.42.42,0,0,1,.13.31v1.3a.45.45,0,0,1-.13.32.41.41,0,0,1-.32.14Zm5.3-3.38a2.93,2.93,0,0,1-1.85-.53,2.71,2.71,0,0,1-.94-1.39,6.47,6.47,0,0,1-.27-2h1.6a1.49,1.49,0,0,0,.42,1.09,1.42,1.42,0,0,0,1,.42h.63a.47.47,0,0,1,.35.15.48.48,0,0,1,.14.34v1.38a.48.48,0,0,1-.49.49Zm-2.15,3.38a.41.41,0,0,1-.32-.14.44.44,0,0,1-.15-.32V637a.4.4,0,0,1,.15-.31.47.47,0,0,1,.32-.12h1.37a.44.44,0,0,1,.32.12.42.42,0,0,1,.13.31v1.3a.45.45,0,0,1-.13.32.39.39,0,0,1-.32.14Z"/><path class="cls-7" d="M171.52,635.42a.45.45,0,0,1-.33-.14.49.49,0,0,1-.13-.35v-1.38a.47.47,0,0,1,.13-.34.43.43,0,0,1,.33-.15h1a1.35,1.35,0,0,0,1-.3,1.31,1.31,0,0,0,.32-1v-4.08a.64.64,0,0,1,.19-.47.67.67,0,0,1,.47-.2h1a.67.67,0,0,1,.47.2.64.64,0,0,1,.19.47v4.06a3.85,3.85,0,0,1-.85,2.71,3.65,3.65,0,0,1-2.8.93Zm1.86-9.56a.33.33,0,0,1-.25-.1.32.32,0,0,1-.09-.24V625a.38.38,0,0,1,.09-.24.33.33,0,0,1,.25-.1h3.38a.34.34,0,0,1,.25.11.33.33,0,0,1,.11.23v.52a.32.32,0,0,1-.1.23.3.3,0,0,1-.26.11Zm2.05-.27a1.77,1.77,0,0,1-1.28-.45,1.39,1.39,0,0,1-.47-1v-.49a1.71,1.71,0,0,1,.51-1.26,1.67,1.67,0,0,1,1.26-.5h.18a1.8,1.8,0,0,1,.71.14,1.72,1.72,0,0,1,.58.38.31.31,0,0,1,.12.23.3.3,0,0,1-.1.25l-.3.35a.53.53,0,0,1-.27.13.27.27,0,0,1-.27-.1.69.69,0,0,0-.47-.18h-.18a.58.58,0,0,0-.4.16.54.54,0,0,0-.16.4v.4a.73.73,0,0,0,.14.45.49.49,0,0,0,.4.18Z"/><path class="cls-7" d="M179.55,625a.59.59,0,0,1-.45-.2.62.62,0,0,1-.2-.45v-1a.65.65,0,0,1,.2-.47.62.62,0,0,1,.45-.2h2.14a.62.62,0,0,1,.47.21.69.69,0,0,1,.2.48v1a.62.62,0,0,1-.2.45.61.61,0,0,1-.47.2Zm3.58,10.46a3,3,0,0,1-2.27-.92A3.5,3.5,0,0,1,180,632v-8.77a.64.64,0,0,1,.19-.47.61.61,0,0,1,.46-.2h1a.68.68,0,0,1,.67.67v8.78a1,1,0,0,0,.28.76,1.23,1.23,0,0,0,.83.25H184a.42.42,0,0,1,.32.15.45.45,0,0,1,.15.34v1.38a.47.47,0,0,1-.15.35.45.45,0,0,1-.32.14Z"/><path class="cls-7" d="M189.88,635.76l-3.06-1.26,1-1.92,2,.82a1.2,1.2,0,0,0,.86-.36,1.31,1.31,0,0,0,.37-1V630.4a1.12,1.12,0,0,0-.35-.84,1.22,1.22,0,0,0-.86-.33h-.58a1.17,1.17,0,0,0-.84.34,1.1,1.1,0,0,0-.36.83v1.71a3.5,3.5,0,0,1-.38,1.58,3,3,0,0,1-1.14,1.24,3.36,3.36,0,0,1-1.87.49H184a.45.45,0,0,1-.33-.14.5.5,0,0,1-.14-.35v-1.38a.48.48,0,0,1,.14-.34.43.43,0,0,1,.33-.15h.74a1.22,1.22,0,0,0,.8-.21,1,1,0,0,0,.24-.74v-1.69a3.47,3.47,0,0,1,1-2.6,3.62,3.62,0,0,1,2.64-1h.52a3.65,3.65,0,0,1,2.6.91,3.4,3.4,0,0,1,1,2.64v1.63a4,4,0,0,1-.47,2,3.18,3.18,0,0,1-1.29,1.28A3.79,3.79,0,0,1,189.88,635.76Zm5.19-.34a3.54,3.54,0,0,1-1.81-.4,2.34,2.34,0,0,1-1-1.26,6.42,6.42,0,0,1-.32-2.21h1.53a1.5,1.5,0,0,0,.41,1.13,1.71,1.71,0,0,0,1.2.38.43.43,0,0,1,.33.15.47.47,0,0,1,.13.34v1.38a.49.49,0,0,1-.13.35A.45.45,0,0,1,195.07,635.42Z"/><path class="cls-7" d="M195.07,635.42a.46.46,0,0,1-.34-.14.49.49,0,0,1-.13-.35v-1.38a.47.47,0,0,1,.13-.34.43.43,0,0,1,.34-.15h1a1.35,1.35,0,0,0,1-.3,1.31,1.31,0,0,0,.32-1v-4.08a.61.61,0,0,1,.2-.47.63.63,0,0,1,.46-.2h1a.68.68,0,0,1,.67.67v4.06a3.85,3.85,0,0,1-.86,2.71,3.65,3.65,0,0,1-2.8.93Zm2.88-9.56a.47.47,0,0,1-.35-.14.49.49,0,0,1-.14-.34V624a.43.43,0,0,1,.14-.31.47.47,0,0,1,.35-.14h1.4a.44.44,0,0,1,.34.14.42.42,0,0,1,.13.31v1.34a.48.48,0,0,1-.13.34.44.44,0,0,1-.34.14Zm3.25,9.56a3,3,0,0,1-1.85-.53,2.65,2.65,0,0,1-.94-1.39,6.47,6.47,0,0,1-.27-2h1.61a1.48,1.48,0,0,0,.41,1.09,1.4,1.4,0,0,0,1,.42h.65a.46.46,0,0,1,.33.15.48.48,0,0,1,.14.34v1.38a.5.5,0,0,1-.14.35.49.49,0,0,1-.33.14Z"/><path class="cls-7" d="M201.85,635.42a.45.45,0,0,1-.33-.14.5.5,0,0,1-.14-.35v-1.38a.48.48,0,0,1,.14-.34.43.43,0,0,1,.33-.15h2.05a1.38,1.38,0,0,0,1-.3,1.31,1.31,0,0,0,.32-1v-4.08a.68.68,0,0,1,.19-.47.63.63,0,0,1,.46-.2h1a.69.69,0,0,1,.64.67v4.06a3.85,3.85,0,0,1-.85,2.71,3.66,3.66,0,0,1-2.8.93Zm1.84,3.38a.45.45,0,0,1-.33-.14.47.47,0,0,1-.14-.32V637a.43.43,0,0,1,.14-.31.52.52,0,0,1,.33-.12h1.37a.45.45,0,0,1,.31.12.43.43,0,0,1,.14.31v1.3a.47.47,0,0,1-.14.32.39.39,0,0,1-.31.14Zm5.29-3.38a2.92,2.92,0,0,1-1.84-.53,2.79,2.79,0,0,1-.95-1.39,6.47,6.47,0,0,1-.27-2h1.6a1.45,1.45,0,0,0,.43,1.09,1.42,1.42,0,0,0,1.05.42h.63a.46.46,0,0,1,.34.15.44.44,0,0,1,.14.34v1.38a.46.46,0,0,1-.14.35.49.49,0,0,1-.34.14Zm-2.14,3.38a.45.45,0,0,1-.33-.14.47.47,0,0,1-.14-.32V637a.43.43,0,0,1,.14-.31.52.52,0,0,1,.33-.12h1.37a.44.44,0,0,1,.32.12.46.46,0,0,1,.13.31v1.3a.5.5,0,0,1-.13.32.39.39,0,0,1-.32.14Z"/><path class="cls-7" d="M209.63,635.42a.45.45,0,0,1-.33-.14.5.5,0,0,1-.14-.35v-1.38a.48.48,0,0,1,.14-.34.43.43,0,0,1,.33-.15h.63a1.11,1.11,0,0,0,1.26-1.26v-2.95a.65.65,0,0,1,.2-.47.62.62,0,0,1,.45-.2h1a.63.63,0,0,1,.46.2.64.64,0,0,1,.19.47v3.24a3.2,3.2,0,0,1-1,2.43,3.74,3.74,0,0,1-2.69.9Zm5.83.34a3.69,3.69,0,0,1-2.73-1,3.74,3.74,0,0,1-1-2.75h2.11a1.33,1.33,0,0,0,.34,1,1.3,1.3,0,0,0,.92.32,1.36,1.36,0,0,0,1-.33,1.47,1.47,0,0,0,.32-1v-3.17a.68.68,0,0,1,.67-.67h1a.68.68,0,0,1,.67.67V632a4,4,0,0,1-.89,2.79A3.24,3.24,0,0,1,215.46,635.76Zm4.95,0a3.67,3.67,0,0,1-2.74-1,3.71,3.71,0,0,1-1-2.75h2.13a1.33,1.33,0,0,0,.34,1,1.3,1.3,0,0,0,.92.32,1.37,1.37,0,0,0,1-.33,1.42,1.42,0,0,0,.33-1v-4.34a.65.65,0,0,1,.2-.47.62.62,0,0,1,.45-.2h1a.68.68,0,0,1,.66.67V632a4,4,0,0,1-.88,2.79A3.19,3.19,0,0,1,220.41,635.76Z"/><path class="cls-7" d="M235.26,635.42a3.67,3.67,0,0,1-2.83-1,4,4,0,0,1-1-2.84v-1.1a3,3,0,0,1,.29-1.37,3.92,3.92,0,0,1,.65-.93.59.59,0,0,1,.46-.23.67.67,0,0,1,.47.17l.72.65a.55.55,0,0,1,.18.43.89.89,0,0,1-.14.49,2.06,2.06,0,0,0-.2.42,1.93,1.93,0,0,0-.09.62v.85a1.52,1.52,0,0,0,.41,1.09,1.42,1.42,0,0,0,1.05.42h2.66a.47.47,0,0,1,.35.15.48.48,0,0,1,.14.34v1.38a.48.48,0,0,1-.49.49Zm.18-9.56a.48.48,0,0,1-.34-.14.45.45,0,0,1-.14-.33V624.1a.39.39,0,0,1,.14-.31.5.5,0,0,1,.34-.12h1.35a.48.48,0,0,1,.33.12.45.45,0,0,1,.12.31v1.29a.52.52,0,0,1-.12.33.45.45,0,0,1-.33.14Zm2.5,9.56a.45.45,0,0,1-.32-.14.47.47,0,0,1-.15-.35v-1.38a.45.45,0,0,1,.15-.34.42.42,0,0,1,.32-.15H240a1.35,1.35,0,0,0,.95-.3,1.27,1.27,0,0,0,.32-1v-4.08a.65.65,0,0,1,.2-.47.62.62,0,0,1,.45-.2h1a.61.61,0,0,1,.46.2.64.64,0,0,1,.19.47v4.06a3.85,3.85,0,0,1-.85,2.71,3.66,3.66,0,0,1-2.8.93Zm.65-9.56a.48.48,0,0,1-.34-.14.46.46,0,0,1-.15-.33V624.1a.4.4,0,0,1,.15-.31.5.5,0,0,1,.34-.12H240a.41.41,0,0,1,.3.12.42.42,0,0,1,.13.31v1.29a.48.48,0,0,1-.13.33.39.39,0,0,1-.3.14Z"/><path class="cls-7" d="M246.75,625a.62.62,0,0,1-.46-.2.61.61,0,0,1-.19-.45v-1a.64.64,0,0,1,.19-.47.66.66,0,0,1,.46-.2h2.14a.6.6,0,0,1,.46.21.65.65,0,0,1,.2.48v1a.59.59,0,0,1-.2.45.59.59,0,0,1-.46.2Zm1.13,10.46a.68.68,0,0,1-.67-.67V623.27a.64.64,0,0,1,.19-.47.65.65,0,0,1,.47-.2h1a.63.63,0,0,1,.46.2.61.61,0,0,1,.2.47v11.48a.64.64,0,0,1-.19.47.59.59,0,0,1-.45.2Z"/><path class="cls-7" d="M252.74,635.42a.68.68,0,0,1-.67-.67v-1a.62.62,0,0,1,.2-.45.65.65,0,0,1,.47-.2h6.19a.65.65,0,0,1,.47.2.62.62,0,0,1,.2.45v1a.68.68,0,0,1-.67.67Zm4.57-1.19a5.91,5.91,0,0,1-2-.31A3.05,3.05,0,0,1,254,633a2.08,2.08,0,0,1-.47-1.36v-.6a2.85,2.85,0,0,1,.37-1.43,3.18,3.18,0,0,1,1-1,2.38,2.38,0,0,1,1.3-.39h.68a2.91,2.91,0,0,1,1.21.27,3.83,3.83,0,0,1,.88.52.82.82,0,0,1,.32.43.61.61,0,0,1-.08.47l-.47.8a.66.66,0,0,1-.41.3.57.57,0,0,1-.49-.07.38.38,0,0,1-.11-.11l-.39-.19a1,1,0,0,0-.38-.06h-.18a.81.81,0,0,0-.64.28,1,1,0,0,0-.26.73V632a1,1,0,0,0,.37.82,1.87,1.87,0,0,0,1.12.28Z"/><path class="cls-7" d="M262.22,625a.67.67,0,0,1-.64-.65v-1a.64.64,0,0,1,.19-.47.66.66,0,0,1,.45-.2h2.15a.6.6,0,0,1,.46.21.65.65,0,0,1,.2.48v1a.59.59,0,0,1-.2.45.59.59,0,0,1-.46.2Zm3.59,10.46a2.94,2.94,0,0,1-2.27-.92,3.46,3.46,0,0,1-.85-2.46v-8.77a.64.64,0,0,1,.19-.47.63.63,0,0,1,.46-.2h1a.68.68,0,0,1,.67.67v8.78a1,1,0,0,0,.29.76,1.21,1.21,0,0,0,.83.25h.48a.46.46,0,0,1,.33.15.48.48,0,0,1,.14.34v1.38a.5.5,0,0,1-.14.35.49.49,0,0,1-.33.14Z"/><path class="cls-7" d="M266.67,635.42a.48.48,0,0,1-.35-.14.5.5,0,0,1-.14-.35v-1.38a.48.48,0,0,1,.14-.34.45.45,0,0,1,.35-.15h3a.46.46,0,0,1,.34.15.48.48,0,0,1,.14.34v1.38a.5.5,0,0,1-.14.35.49.49,0,0,1-.34.14Zm3,0a.49.49,0,0,1-.33-.14.5.5,0,0,1-.14-.35v-1.38a.48.48,0,0,1,.14-.34.46.46,0,0,1,.33-.15H272a1.17,1.17,0,0,0,.85-.36,1.31,1.31,0,0,0,.36-1v-1.26a1.19,1.19,0,0,0-.37-.87,1.16,1.16,0,0,0-.84-.37h-.76a1.14,1.14,0,0,0-.92.39,1.58,1.58,0,0,0-.34,1l.69,2.63h-2.16l-.83-2.79a4.21,4.21,0,0,1,.38-1.75,3.13,3.13,0,0,1,1.18-1.35,3.63,3.63,0,0,1,2-.52h.68a3.34,3.34,0,0,1,3.59,3.62v1.22a4.09,4.09,0,0,1-.47,2,3.13,3.13,0,0,1-1.28,1.27,3.82,3.82,0,0,1-1.84.43Zm-.33-9.74a.45.45,0,0,1-.33-.14.49.49,0,0,1-.14-.33v-1.29a.43.43,0,0,1,.14-.31.48.48,0,0,1,.33-.12h1.37a.41.41,0,0,1,.43.43v1.29a.52.52,0,0,1-.12.33.43.43,0,0,1-.31.14Zm3.15,0a.45.45,0,0,1-.32-.14.46.46,0,0,1-.15-.33v-1.29a.4.4,0,0,1,.15-.31.47.47,0,0,1,.32-.12h1.37a.47.47,0,0,1,.32.12.42.42,0,0,1,.13.31v1.29a.48.48,0,0,1-.13.33.45.45,0,0,1-.32.14Zm4.65,9.74a3.53,3.53,0,0,1-1.82-.4,2.32,2.32,0,0,1-1-1.26,6.42,6.42,0,0,1-.32-2.21h1.52a1.47,1.47,0,0,0,.41,1.13,1.75,1.75,0,0,0,1.21.38.5.5,0,0,1,.46.49v1.38a.46.46,0,0,1-.14.35A.47.47,0,0,1,277.15,635.42Z"/><path class="cls-7" d="M277.24,635.42a.46.46,0,0,1-.34-.14.49.49,0,0,1-.13-.35v-1.38a.47.47,0,0,1,.13-.34.43.43,0,0,1,.34-.15h1a1.35,1.35,0,0,0,1-.3,1.31,1.31,0,0,0,.32-1V625h-.45a.61.61,0,0,1-.47-.2.62.62,0,0,1-.2-.45v-1a.68.68,0,0,1,.67-.67h2.12a.69.69,0,0,1,.48.2.62.62,0,0,1,.21.47v8.51a3.85,3.85,0,0,1-.86,2.71,3.65,3.65,0,0,1-2.8.93Z"/><path class="cls-7" d="M81.62,635.76a3,3,0,0,1-1.6-.47A3.55,3.55,0,0,1,78.8,634a3.67,3.67,0,0,1-.46-1.79v-1.71a3.7,3.7,0,0,1,.45-1.8A3.62,3.62,0,0,1,80,627.36a3.24,3.24,0,0,1,1.72-.49h.11a5,5,0,0,1,.83.13l.43,2.46a1.4,1.4,0,0,0-.75-.23h-.47a1.28,1.28,0,0,0-.87.32,1.18,1.18,0,0,0-.36.92v1.75a1.09,1.09,0,0,0,.35.87,1.27,1.27,0,0,0,.88.3h.54a1.21,1.21,0,0,0,.8-.3,1.09,1.09,0,0,0,.35-.87l-1.37-5.85a.65.65,0,0,1,.07-.51.68.68,0,0,1,.42-.3l1-.24a.68.68,0,0,1,.48.08.59.59,0,0,1,.29.41L86,632.18a3.68,3.68,0,0,1-.44,1.73,3.63,3.63,0,0,1-1.24,1.34,3.32,3.32,0,0,1-1.81.51Zm-2-11.18a.45.45,0,0,1-.34-.14.49.49,0,0,1-.14-.34v-1.3a.39.39,0,0,1,.14-.3.48.48,0,0,1,.34-.13H81a.42.42,0,0,1,.31.13.41.41,0,0,1,.12.3v1.3a.52.52,0,0,1-.12.34.39.39,0,0,1-.31.14Zm3.15,0a.42.42,0,0,1-.33-.14.48.48,0,0,1-.13-.34v-1.3a.38.38,0,0,1,.13-.3.44.44,0,0,1,.33-.13h1.37a.42.42,0,0,1,.31.13.41.41,0,0,1,.12.3v1.3a.52.52,0,0,1-.12.34.39.39,0,0,1-.31.14Z"/><path class="cls-7" d="M88.87,639.31a3.25,3.25,0,0,1-1.21-.22,3.78,3.78,0,0,1-1.11-.66.88.88,0,0,1-.24-.48.63.63,0,0,1,.12-.5l.52-.68a.59.59,0,0,1,.9-.07,1.37,1.37,0,0,0,.42.2,2.65,2.65,0,0,0,.59.07h.25a1,1,0,0,0,.87-.33,2,2,0,0,0,.24-1.15v-7.77a.65.65,0,0,1,.2-.47.62.62,0,0,1,.45-.2h1a.63.63,0,0,1,.46.2.67.67,0,0,1,.18.47v7.75a4.19,4.19,0,0,1-.87,2.87,3.34,3.34,0,0,1-2.6,1Zm5.31-3.89a3.52,3.52,0,0,1-1.81-.4,2.34,2.34,0,0,1-1-1.26,6.16,6.16,0,0,1-.33-2.21h1.53a1.47,1.47,0,0,0,.42,1.13,1.73,1.73,0,0,0,1.2.38.46.46,0,0,1,.33.15.48.48,0,0,1,.14.34v1.38a.5.5,0,0,1-.14.35A.49.49,0,0,1,94.18,635.42Z"/><path class="cls-7" d="M94.2,635.42a.48.48,0,0,1-.35-.14.49.49,0,0,1-.13-.35v-1.38a.47.47,0,0,1,.13-.34.45.45,0,0,1,.35-.15h5.17a.46.46,0,0,1,.34.15.44.44,0,0,1,.14.34v1.38a.46.46,0,0,1-.14.35.49.49,0,0,1-.34.14Z"/><path class="cls-7" d="M99.38,635.42a.48.48,0,0,1-.35-.14.49.49,0,0,1-.13-.35v-1.38a.47.47,0,0,1,.13-.34.45.45,0,0,1,.35-.15h5.17a.51.51,0,0,1,.49.49v1.38a.47.47,0,0,1-.15.35.48.48,0,0,1-.34.14Z"/><path class="cls-7" d="M104.55,635.42a.45.45,0,0,1-.33-.14.5.5,0,0,1-.14-.35v-1.38a.48.48,0,0,1,.14-.34.43.43,0,0,1,.33-.15h2a1.38,1.38,0,0,0,1-.3,1.31,1.31,0,0,0,.32-1v-4.08a.64.64,0,0,1,.19-.47.63.63,0,0,1,.46-.2h1a.62.62,0,0,1,.45.2.61.61,0,0,1,.2.47v4.06a3.85,3.85,0,0,1-.85,2.71,3.66,3.66,0,0,1-2.8.93Zm.52,3.38a.48.48,0,0,1-.46-.46V637a.39.39,0,0,1,.14-.31.49.49,0,0,1,.32-.12h1.37a.48.48,0,0,1,.33.12.45.45,0,0,1,.12.31v1.3a.49.49,0,0,1-.12.32.42.42,0,0,1-.33.14Zm3.17,0a.45.45,0,0,1-.34-.14.43.43,0,0,1-.14-.32V637a.39.39,0,0,1,.14-.31.52.52,0,0,1,.34-.12h1.35a.48.48,0,0,1,.33.12.45.45,0,0,1,.12.31v1.3a.49.49,0,0,1-.12.32.42.42,0,0,1-.33.14Z"/><path class="cls-7" d="M115.59,639.31a3.19,3.19,0,0,1-1.37-.27,4.43,4.43,0,0,1-1.06-.7.75.75,0,0,1-.23-.47.57.57,0,0,1,.15-.47l.6-.65a.62.62,0,0,1,.41-.24.84.84,0,0,1,.49.15,1.07,1.07,0,0,0,.45.23,2.55,2.55,0,0,0,.59.06h1.5a1.11,1.11,0,0,0,.87-.31,1.62,1.62,0,0,0,.3-1v-4.33a.6.6,0,0,1,.19-.46.66.66,0,0,1,.47-.19h1a.66.66,0,0,1,.47.19.6.6,0,0,1,.19.46v4.15a4.1,4.1,0,0,1-.9,2.87,3.45,3.45,0,0,1-2.64,1Zm.46-3.89a2.95,2.95,0,0,1-2.63-1.54,3.12,3.12,0,0,1-.41-1.57v-1.82a3.55,3.55,0,0,1,.46-1.78,3.8,3.8,0,0,1,1.24-1.34,3.18,3.18,0,0,1,1.74-.5h.76a3.32,3.32,0,0,1,1.73.46,3.28,3.28,0,0,1,1.24,1.29,3.73,3.73,0,0,1,.46,1.87v2.82h-2.35v-2.84a1.18,1.18,0,0,0-.36-.91,1.21,1.21,0,0,0-.87-.33h-.48a1.25,1.25,0,0,0-.86.33,1.16,1.16,0,0,0-.37.91v1.08a1.78,1.78,0,0,0,.32,1.09,1.06,1.06,0,0,0,.91.42h5.47a.49.49,0,0,1,.36.15.48.48,0,0,1,.14.34v1.38a.5.5,0,0,1-.14.35.52.52,0,0,1-.36.14Z"/><path class="cls-7" d="M122.08,635.42c-.32,0-.48-.22-.48-.67v-1c0-.43.16-.65.48-.65h1.62v-5.51a.63.63,0,0,1,.2-.46.61.61,0,0,1,.47-.2H125a.68.68,0,0,1,.66.66v2.36l.36.13v5.38Zm1.62-3.89a3.88,3.88,0,0,1,.69-2,6.13,6.13,0,0,1,1.81-1.85,4.2,4.2,0,0,1,2.36-.75h2.72a3.44,3.44,0,0,1,2.59,1,3.51,3.51,0,0,1,.92,2.56v1.49a3.72,3.72,0,0,1-.84,2.62,3.44,3.44,0,0,1-2.67.91H123.7Zm7.62,1.53a1,1,0,0,0,1.13-1.15v-1.53a1.08,1.08,0,0,0-.32-.82,1.16,1.16,0,0,0-.81-.3h-3a3.18,3.18,0,0,0-1.6.37,1.37,1.37,0,0,0-.62,1.27v2.16Zm5.09,2.36a3.58,3.58,0,0,1-1.82-.4,2.37,2.37,0,0,1-1-1.26,6.16,6.16,0,0,1-.33-2.21h1.53a1.47,1.47,0,0,0,.42,1.13,1.71,1.71,0,0,0,1.2.38.46.46,0,0,1,.33.15.48.48,0,0,1,.14.34v1.38a.5.5,0,0,1-.14.35A.49.49,0,0,1,136.41,635.42Z"/><path class="cls-7" d="M136.41,635.42a.45.45,0,0,1-.33-.14.5.5,0,0,1-.14-.35v-1.38a.48.48,0,0,1,.14-.34.43.43,0,0,1,.33-.15h1.05a1.35,1.35,0,0,0,1-.3,1.31,1.31,0,0,0,.31-1V625h-.45a.59.59,0,0,1-.46-.2.59.59,0,0,1-.2-.45v-1a.61.61,0,0,1,.2-.47.63.63,0,0,1,.46-.2h2.13a.65.65,0,0,1,.47.2.62.62,0,0,1,.21.47v8.51a3.85,3.85,0,0,1-.85,2.71,3.66,3.66,0,0,1-2.8.93Z"/><path class="cls-7" d="M144.24,625a.59.59,0,0,1-.45-.2.62.62,0,0,1-.2-.45v-1a.65.65,0,0,1,.2-.47.62.62,0,0,1,.45-.2h2.14a.62.62,0,0,1,.47.21.69.69,0,0,1,.2.48v1a.62.62,0,0,1-.2.45.61.61,0,0,1-.47.2Zm1.14,10.46a.65.65,0,0,1-.47-.2.61.61,0,0,1-.2-.47l0-11.48a.68.68,0,0,1,.67-.67h1a.68.68,0,0,1,.67.67v11.48a.64.64,0,0,1-.19.47.63.63,0,0,1-.46.2Z"/></g></g></svg>