<svg xmlns="http://www.w3.org/2000/svg" viewBox="0 0 419 484.96"><defs><style>.cls-1,.cls-4,.cls-5,.cls-6{fill:none;}.cls-1,.cls-2,.cls-4,.cls-5,.cls-6,.cls-7{stroke:#fff;}.cls-1,.cls-2,.cls-7{stroke-miterlimit:10;}.cls-2{fill:gray;stroke-width:0.7px;}.cls-3,.cls-7{fill:#fff;}.cls-4,.cls-5{stroke-linecap:round;}.cls-4,.cls-6{stroke-linejoin:round;}</style></defs><g id="Calque_2" data-name="Calque 2"><g id="Calque_2-2" data-name="Calque 2"><rect class="cls-1" x="0.5" y="0.5" width="418" height="483.96" rx="31"/><path class="cls-2" d="M357.13,150.06l.07,0Z"/><path class="cls-2" d="M356,150.61l.12-.05Z"/><path class="cls-2" d="M345.5,153c.43,0,.85,0,1.27,0C346.35,153,345.93,153,345.5,153Z"/><path class="cls-2" d="M358.2,149.46l0,0Z"/><path class="cls-2" d="M359.22,148.82h0Z"/><path class="cls-2" d="M354.89,151.11l.17-.07Z"/><path class="cls-2" d="M348.66,152.75l.59-.08Z"/><path class="cls-2" d="M351.26,152.28l.39-.09Z"/><path class="cls-2" d="M352.51,151.94l.3-.08Z"/><path class="cls-2" d="M353.71,151.56l.24-.08Z"/><path class="cls-2" d="M347.26,152.89c.25,0,.51,0,.76-.06C347.77,152.86,347.51,152.87,347.26,152.89Z"/><path class="cls-2" d="M350,152.55l.48-.09Z"/><path class="cls-3" d="M349.25,152.67c.25,0,.49-.08.73-.12C349.74,152.59,349.5,152.64,349.25,152.67Z"/><path class="cls-3" d="M346.77,152.93l.49,0Z"/><path class="cls-3" d="M348,152.83l.64-.08Z"/><path class="cls-3" d="M356.15,150.56l1-.5Z"/><path class="cls-3" d="M358.23,149.44c.34-.2.67-.4,1-.62C358.9,149,358.57,149.24,358.23,149.44Z"/><path class="cls-3" d="M359.22,148.82c-.32.22-.65.42-1,.62l0,0c-.33.2-.66.39-1,.57l-.07,0-1,.5-.12.05c-.32.15-.64.3-1,.43l-.17.07-.94.37-.24.08c-.3.1-.6.21-.9.3l-.3.08-.86.25-.39.09-.8.18-.48.09c-.24,0-.48.09-.73.12l-.59.08-.64.08c-.25,0-.51,0-.76.06l-.49,0c-.42,0-.84,0-1.27,0H70.5v.5H345a24.92,24.92,0,0,0,17.9-7.6h0a25.43,25.43,0,0,1-3.67,3Z"/><path class="cls-3" d="M357.2,150c.34-.18.67-.37,1-.57C357.87,149.66,357.54,149.85,357.2,150Z"/><path class="cls-3" d="M362.9,145.86a25.43,25.43,0,0,1-3.67,3A25.43,25.43,0,0,0,362.9,145.86Z"/><path class="cls-3" d="M354,151.48l.94-.37Z"/><path class="cls-3" d="M351.65,152.19l.86-.25Z"/><path class="cls-3" d="M352.81,151.86c.3-.09.6-.2.9-.3C353.41,151.66,353.11,151.77,352.81,151.86Z"/><path class="cls-3" d="M355.06,151c.33-.13.65-.28,1-.43C355.71,150.76,355.39,150.91,355.06,151Z"/><path class="cls-3" d="M350.46,152.46l.8-.18Z"/><path class="cls-2" d="M357.13,150.06l.07,0Z"/><path class="cls-2" d="M356,150.61l.12-.05Z"/><path class="cls-2" d="M345.5,153c.43,0,.85,0,1.27,0C346.35,153,345.93,153,345.5,153Z"/><path class="cls-2" d="M358.2,149.46l0,0Z"/><path class="cls-2" d="M359.22,148.82h0Z"/><path class="cls-2" d="M354.89,151.11l.17-.07Z"/><path class="cls-2" d="M348.66,152.75l.59-.08Z"/><path class="cls-2" d="M351.26,152.28l.39-.09Z"/><path class="cls-2" d="M352.51,151.94l.3-.08Z"/><path class="cls-2" d="M353.71,151.56l.24-.08Z"/><path class="cls-2" d="M347.26,152.89c.25,0,.51,0,.76-.06C347.77,152.86,347.51,152.87,347.26,152.89Z"/><path class="cls-2" d="M350,152.55l.48-.09Z"/><path class="cls-4" d="M315,92.46v32.86c0,12.73,9.56,23.14,21.25,23.14h8.5c11.69,0,21.25-10.41,21.25-23.14V92.46"/><path class="cls-4" d="M362.9,145.86a25.43,25.43,0,0,1-3.67,3h0c-.32.22-.65.42-1,.62l0,0c-.33.2-.66.39-1,.57l-.07,0-1,.5-.12.05c-.32.15-.64.3-1,.43l-.17.07-.94.37-.24.08c-.3.1-.6.21-.9.3l-.3.08-.86.25-.39.09-.8.18-.48.09c-.24,0-.48.09-.73.12l-.59.08-.64.08c-.25,0-.51,0-.76.06l-.49,0c-.42,0-.84,0-1.27,0h-10a25.07,25.07,0,0,1-25-25"/><path class="cls-4" d="M362.9,145.86h0a24.92,24.92,0,0,1-17.9,7.6H70.5"/><path class="cls-4" d="M362.9,145.86a24.92,24.92,0,0,0,7.6-17.9V92.46"/><path class="cls-4" d="M75,92.46v32.86c0,12.73,9.56,23.14,21.25,23.14h8.5c11.69,0,21.25-10.41,21.25-23.14V92.46"/><path class="cls-4" d="M130.5,128a25.07,25.07,0,0,1-25,25h-10a25.07,25.07,0,0,1-25-25"/><path class="cls-4" d="M135,92.46v32.86c0,12.73,9.56,23.14,21.25,23.14h8.5c11.69,0,21.25-10.41,21.25-23.14V92.46"/><path class="cls-4" d="M130.5,128a25.07,25.07,0,0,0,25,25h10a25.07,25.07,0,0,0,25-25"/><line class="cls-4" x1="130.5" y1="127.96" x2="130.5" y2="92.46"/><polyline class="cls-4" points="70.5 153.46 70.5 152.96 70.5 127.96"/><line class="cls-4" x1="15.5" y1="157.82" x2="15.5" y2="148.46"/><line class="cls-5" x1="66" y1="180.46" x2="66" y2="101.46"/><line class="cls-4" x1="70.5" y1="96.46" x2="70.5" y2="127.96"/><path class="cls-4" d="M250.5,128a25.07,25.07,0,0,0,25,25h10a25.07,25.07,0,0,0,25-25"/><path class="cls-4" d="M255,92.46v32.86c0,12.73,9.56,23.14,21.25,23.14h8.5c11.69,0,21.25-10.41,21.25-23.14V92.46"/><line class="cls-4" x1="310.5" y1="92.46" x2="310.5" y2="127.96"/><path class="cls-4" d="M195,92.46v32.86c0,12.73,9.56,23.14,21.25,23.14h8.5c11.69,0,21.25-10.41,21.25-23.14V92.46"/><path class="cls-4" d="M250.5,128a25.07,25.07,0,0,1-25,25h-10a25.07,25.07,0,0,1-25-25"/><line class="cls-4" x1="190.5" y1="92.46" x2="190.5" y2="127.96"/><line class="cls-4" x1="250.5" y1="127.96" x2="250.5" y2="92.46"/><path class="cls-3" d="M349.25,152.67c.25,0,.49-.08.73-.12C349.74,152.59,349.5,152.64,349.25,152.67Z"/><path class="cls-3" d="M346.77,152.93l.49,0Z"/><path class="cls-3" d="M348,152.83l.64-.08Z"/><path class="cls-3" d="M356.15,150.56l1-.5Z"/><path class="cls-3" d="M358.23,149.44c.34-.2.67-.4,1-.62C358.9,149,358.57,149.24,358.23,149.44Z"/><path class="cls-3" d="M359.22,148.82c-.32.22-.65.42-1,.62l0,0c-.33.2-.66.39-1,.57l-.07,0-1,.5-.12.05c-.32.15-.64.3-1,.43l-.17.07-.94.37-.24.08c-.3.1-.6.21-.9.3l-.3.08-.86.25-.39.09-.8.18-.48.09c-.24,0-.48.09-.73.12l-.59.08-.64.08c-.25,0-.51,0-.76.06l-.49,0c-.42,0-.84,0-1.27,0H70.5v.5H345a24.92,24.92,0,0,0,17.9-7.6h0a25.43,25.43,0,0,1-3.67,3Z"/><path class="cls-3" d="M357.2,150c.34-.18.67-.37,1-.57C357.87,149.66,357.54,149.85,357.2,150Z"/><path class="cls-3" d="M362.9,145.86a25.43,25.43,0,0,1-3.67,3A25.43,25.43,0,0,0,362.9,145.86Z"/><path class="cls-3" d="M354,151.48l.94-.37Z"/><path class="cls-3" d="M351.65,152.19l.86-.25Z"/><path class="cls-3" d="M352.81,151.86c.3-.09.6-.2.9-.3C353.41,151.66,353.11,151.77,352.81,151.86Z"/><path class="cls-3" d="M355.06,151c.33-.13.65-.28,1-.43C355.71,150.76,355.39,150.91,355.06,151Z"/><path class="cls-3" d="M350.46,152.46l.8-.18Z"/><path class="cls-3" d="M35.58,185.46a24.86,24.86,0,0,1-24.58-25V176a24.91,24.91,0,0,1-.5-5v44a25,25,0,0,0,24.79,25h9.92A25,25,0,0,0,70,215v-29.5Z"/><path class="cls-1" d="M408.5,175v57a25.07,25.07,0,0,1-25,25H376"/><circle class="cls-3" cx="199.61" cy="46.82" r="6.5"/><circle class="cls-3" cx="182.61" cy="46.82" r="6.5"/><circle class="cls-3" cx="138.5" cy="230.96" r="6.5"/><circle class="cls-3" cx="121.5" cy="230.96" r="6.5"/><line class="cls-4" x1="10.5" y1="172.46" x2="10.5" y2="92.96"/><path class="cls-6" d="M66.5,181H36.75c-11.69,0-21.25-10.41-21.25-23.14"/><line class="cls-4" x1="370.5" y1="154.96" x2="370.5" y2="92.96"/><path class="cls-3" d="M370.51,152.66l.49-16.3v-3a4.09,4.09,0,0,1-.61-.1A25.11,25.11,0,0,1,349,152.66H331.65A25.1,25.1,0,0,1,310.5,128a25.1,25.1,0,0,1-20.06,24.5H270.56A25.1,25.1,0,0,1,250.5,128a25.1,25.1,0,0,1-20.06,24.5H210.56A25.1,25.1,0,0,1,190.5,128a25.1,25.1,0,0,1-20.06,24.5H150.56A25.1,25.1,0,0,1,130.5,128a25.1,25.1,0,0,1-20.06,24.5H90.56A25.1,25.1,0,0,1,70.5,128v24.5H70v33H286.89q.83.06,1.65.06h57.33A25.29,25.29,0,0,0,371,160.24v-7.58Z"/><rect class="cls-1" x="5.5" y="5.96" width="408" height="472.71" rx="27"/><path class="cls-7" d="M408.5,36.93a25.13,25.13,0,0,0-25-25.12H376V185h7.5a25.07,25.07,0,0,0,25-25V103a25.19,25.19,0,0,0-.39-4.37,25.53,25.53,0,0,0,.39-4.4Z"/><path class="cls-1" d="M408.5,348v57a25.07,25.07,0,0,1-25,25H376"/><line class="cls-4" x1="375.5" y1="429.96" x2="388.5" y2="429.96"/><path class="cls-1" d="M34.5,473.29a24.07,24.07,0,0,1-24-24V429.46"/><path class="cls-1" d="M408.5,288V231a25.07,25.07,0,0,0-25-25H376"/><path class="cls-2" d="M390.13,390.06l.07,0Z"/><path class="cls-2" d="M389,390.61l.12-.05Z"/><path class="cls-2" d="M378.5,393c.43,0,.85,0,1.27,0C379.35,393,378.93,393,378.5,393Z"/><path class="cls-2" d="M391.2,389.46l0,0Z"/><path class="cls-2" d="M392.22,388.82h0Z"/><path class="cls-2" d="M387.89,391.11l.17-.07Z"/><path class="cls-2" d="M381.66,392.75l.59-.08Z"/><path class="cls-2" d="M384.26,392.28l.39-.09Z"/><path class="cls-2" d="M385.51,391.94l.3-.08Z"/><path class="cls-2" d="M386.71,391.56l.24-.08Z"/><path class="cls-2" d="M380.26,392.89c.25,0,.51,0,.76-.06C380.77,392.86,380.51,392.87,380.26,392.89Z"/><path class="cls-2" d="M383,392.55l.48-.09Z"/><path class="cls-3" d="M382.25,392.67c.25,0,.49-.08.73-.12C382.74,392.59,382.5,392.64,382.25,392.67Z"/><path class="cls-3" d="M379.77,392.93l.49,0Z"/><path class="cls-3" d="M381,392.83l.64-.08Z"/><path class="cls-3" d="M389.15,390.56l1-.5Z"/><path class="cls-3" d="M391.23,389.44c.34-.2.67-.4,1-.62C391.9,389,391.57,389.24,391.23,389.44Z"/><path class="cls-3" d="M390.2,390c.34-.18.67-.37,1-.57C390.87,389.66,390.54,389.85,390.2,390Z"/><path class="cls-3" d="M395.9,385.86a25.43,25.43,0,0,1-3.67,3A25.43,25.43,0,0,0,395.9,385.86Z"/><path class="cls-3" d="M387,391.48l.94-.37Z"/><path class="cls-3" d="M384.65,392.19l.86-.25Z"/><path class="cls-3" d="M385.81,391.86l.9-.3Z"/><path class="cls-3" d="M388.06,391c.33-.13.65-.28,1-.43C388.71,390.76,388.39,390.91,388.06,391Z"/><path class="cls-3" d="M383.46,392.46l.8-.18Z"/><path class="cls-2" d="M390.13,390.06l.07,0Z"/><path class="cls-2" d="M389,390.61l.12-.05Z"/><path class="cls-2" d="M378.5,393c.43,0,.85,0,1.27,0C379.35,393,378.93,393,378.5,393Z"/><path class="cls-2" d="M391.2,389.46l0,0Z"/><path class="cls-2" d="M392.22,388.82h0Z"/><path class="cls-2" d="M387.89,391.11l.17-.07Z"/><path class="cls-2" d="M381.66,392.75l.59-.08Z"/><path class="cls-2" d="M384.26,392.28l.39-.09Z"/><path class="cls-2" d="M385.51,391.94l.3-.08Z"/><path class="cls-2" d="M386.71,391.56l.24-.08Z"/><path class="cls-2" d="M380.26,392.89c.25,0,.51,0,.76-.06C380.77,392.86,380.51,392.87,380.26,392.89Z"/><path class="cls-2" d="M383,392.55l.48-.09Z"/><path class="cls-4" d="M348,332.46v32.86c0,12.73,9.56,23.14,21.25,23.14h8.5c11.69,0,21.25-10.41,21.25-23.14V332.46"/><path class="cls-4" d="M395.9,385.86a25.43,25.43,0,0,1-3.67,3h0c-.32.22-.65.42-1,.62l0,0c-.33.2-.66.39-1,.57l-.07,0-1,.5-.12.05c-.32.15-.64.3-1,.43l-.17.07-.94.37-.24.08-.9.3-.3.08-.86.25-.39.09-.8.18-.48.09c-.24,0-.48.09-.73.12l-.59.08-.64.08c-.25,0-.51,0-.76.06l-.49,0c-.42,0-.84,0-1.27,0h-10a25.07,25.07,0,0,1-25-25"/><path class="cls-4" d="M395.9,385.86a24.92,24.92,0,0,0,7.6-17.9v-35.5"/><path class="cls-4" d="M283.5,368a25.07,25.07,0,0,0,25,25h10a25.07,25.07,0,0,0,25-25"/><path class="cls-4" d="M288,332.46v32.86c0,12.73,9.56,23.14,21.25,23.14h8.5c11.69,0,21.25-10.41,21.25-23.14V332.46"/><line class="cls-4" x1="343.5" y1="332.46" x2="343.5" y2="367.96"/><path class="cls-4" d="M228,332.46v32.86c0,12.73,9.56,23.14,21.25,23.14h8.5c11.69,0,21.25-10.41,21.25-23.14V332.46"/><path class="cls-4" d="M283.5,368a25.07,25.07,0,0,1-25,25h-10a25.07,25.07,0,0,1-25-25"/><line class="cls-4" x1="283.5" y1="367.96" x2="283.5" y2="332.46"/><path class="cls-3" d="M382.25,392.67c.25,0,.49-.08.73-.12C382.74,392.59,382.5,392.64,382.25,392.67Z"/><path class="cls-3" d="M379.77,392.93l.49,0Z"/><path class="cls-3" d="M381,392.83l.64-.08Z"/><path class="cls-3" d="M389.15,390.56l1-.5Z"/><path class="cls-3" d="M391.23,389.44c.34-.2.67-.4,1-.62C391.9,389,391.57,389.24,391.23,389.44Z"/><path class="cls-3" d="M390.2,390c.34-.18.67-.37,1-.57C390.87,389.66,390.54,389.85,390.2,390Z"/><path class="cls-3" d="M395.9,385.86a25.43,25.43,0,0,1-3.67,3A25.43,25.43,0,0,0,395.9,385.86Z"/><path class="cls-3" d="M387,391.48l.94-.37Z"/><path class="cls-3" d="M384.65,392.19l.86-.25Z"/><path class="cls-3" d="M385.81,391.86l.9-.3Z"/><path class="cls-3" d="M388.06,391c.33-.13.65-.28,1-.43C388.71,390.76,388.39,390.91,388.06,391Z"/><path class="cls-3" d="M383.46,392.46l.8-.18Z"/><line class="cls-4" x1="70.3" y1="430.46" x2="70.3" y2="388.46"/><circle class="cls-1" cx="105" cy="400.46" r="25.5"/><line class="cls-4" x1="228.07" y1="352.32" x2="228.07" y2="259.46"/><path class="cls-3" d="M408.77,407.77v-.08l-.18,0a25.39,25.39,0,0,1-25.24,21.8H134v-25a25.08,25.08,0,0,1-25,25H70v44H383.35c14,0,25.46-11.25,25.46-25V408.13C408.8,408,408.77,407.89,408.77,407.77Z"/><polygon class="cls-3" points="391.86 231.48 395 235.77 389.71 235.2 387.57 240.06 385.43 235.2 380.14 235.77 383.28 231.48 380.14 227.19 385.43 227.77 387.57 222.9 389.71 227.77 395 227.19 391.86 231.48"/><path class="cls-4" d="M189,365.46a23.07,23.07,0,0,1-23,23H152"/><line class="cls-4" x1="189" y1="365.46" x2="189" y2="349.9"/><line class="cls-4" x1="155" y1="388.46" x2="134" y2="388.46"/><line class="cls-4" x1="403.5" y1="362.96" x2="403.5" y2="393.82"/><path class="cls-3" d="M403.5,392.46,404,376v-3a4.09,4.09,0,0,1-.61-.1A25.09,25.09,0,0,1,379,392.46H363.53a25.1,25.1,0,0,1-20-24.5,25.1,25.1,0,0,1-20,24.5H303.54a25.11,25.11,0,0,1-20-24.5,25.1,25.1,0,0,1-20.06,24.5H249a25.07,25.07,0,0,1-25-25V260h-7.13c-13.07,0-23.76,11.25-23.76,25v82.5a25.13,25.13,0,0,1-25.11,25H134v33H351.07a4.82,4.82,0,0,0,1.22-.14h26.58A25.28,25.28,0,0,0,404,400v-7.58Z"/><path class="cls-3" d="M70,407.77v-.08l-.17,0c-1.52,12.25-11.63,21.8-23.79,21.8H11v11.83h-.87v7.5a25.13,25.13,0,0,0,25.12,25H46v0h0l0,0c13,0,23.64-10.89,24-24.33h0V408.13C70,408,70,407.89,70,407.77Zm-9,41.86v-.17h.1Z"/><path class="cls-1" d="M10.51,425.33V35.14a24.07,24.07,0,0,1,24-24h350a24.07,24.07,0,0,1,24,24V449.66a24.07,24.07,0,0,1-24,24H70"/><path class="cls-4" d="M14.91,425.33H44.66c11.69,0,21.25-10.42,21.25-23.14"/><line class="cls-4" x1="65.91" y1="402.33" x2="65.91" y2="388.83"/><line class="cls-4" x1="10.51" y1="425.33" x2="23.51" y2="425.33"/></g></g></svg>