<svg xmlns="http://www.w3.org/2000/svg" viewBox="0 0 1892 1052"><defs><style>.cls-1,.cls-10,.cls-4,.cls-5,.cls-8{fill:none;}.cls-1,.cls-10,.cls-11,.cls-4,.cls-5,.cls-6,.cls-9{stroke:#000;}.cls-1,.cls-11,.cls-2,.cls-6,.cls-7{stroke-miterlimit:10;}.cls-2{fill:gray;stroke-width:0.7px;}.cls-2,.cls-8{stroke:#fff;}.cls-3{fill:#fff;}.cls-4,.cls-5,.cls-8,.cls-9{stroke-linecap:round;}.cls-10,.cls-4,.cls-8,.cls-9{stroke-linejoin:round;}.cls-7{fill:#000010;stroke:#000010;}.cls-11{stroke-width:0.5px;}</style></defs><g id="Calque_2" data-name="Calque 2"><g id="Calque_2-2" data-name="Calque 2"><rect class="cls-1" x="0.5" y="0.5" width="1891" height="1051" rx="31"/><path class="cls-2" d="M1829.15,149.47l.08,0Z"/><path class="cls-2" d="M1828.05,150l.12-.05Z"/><path class="cls-2" d="M1817.52,152.37c.43,0,.85,0,1.27,0C1818.37,152.36,1818,152.37,1817.52,152.37Z"/><path class="cls-2" d="M1830.22,148.88l0,0Z"/><path class="cls-2" d="M1831.24,148.23h0Z"/><path class="cls-2" d="M1826.91,150.52l.17-.07Z"/><path class="cls-2" d="M1820.69,152.16l.58-.07Z"/><path class="cls-2" d="M1823.28,151.69l.39-.09Z"/><path class="cls-2" d="M1824.53,151.36l.3-.09Z"/><path class="cls-2" d="M1825.73,151l.24-.08Z"/><path class="cls-2" d="M1819.28,152.3c.25,0,.51,0,.76-.06C1819.79,152.27,1819.53,152.28,1819.28,152.3Z"/><path class="cls-2" d="M1822,152l.48-.09Z"/><path d="M1662.52,127.37v0a25.07,25.07,0,0,1-25,25h50A25.07,25.07,0,0,1,1662.52,127.37Z"/><path d="M1722.52,127.37v0a25.07,25.07,0,0,1-25,25h50A25.07,25.07,0,0,1,1722.52,127.37Z"/><path d="M1602.52,127.37v0a25.07,25.07,0,0,1-25,25h50A25.07,25.07,0,0,1,1602.52,127.37Z"/><path d="M1542.52,127.37v25h25A25.07,25.07,0,0,1,1542.52,127.37Z"/><path d="M1782.52,127.37v0a25.07,25.07,0,0,1-25,25h50A25.07,25.07,0,0,1,1782.52,127.37Z"/><path class="cls-3" d="M1821.27,152.09l.73-.13Z"/><path class="cls-3" d="M1818.79,152.34l.49,0Z"/><path class="cls-3" d="M1820,152.24l.65-.08Z"/><path class="cls-3" d="M1828.17,150c.33-.16.66-.32,1-.5C1828.83,149.65,1828.5,149.81,1828.17,150Z"/><path class="cls-3" d="M1830.25,148.86q.51-.3,1-.63Q1830.76,148.56,1830.25,148.86Z"/><path class="cls-3" d="M1831.24,148.23q-.48.33-1,.63l0,0-1,.56-.08,0c-.32.18-.65.34-1,.5l-.12.05c-.32.15-.64.3-1,.43l-.17.07-.94.37-.24.08c-.29.1-.59.21-.9.3l-.3.09-.86.24-.39.09c-.26.06-.53.13-.8.18l-.48.09-.73.13-.58.07-.65.08c-.25,0-.51,0-.76.06l-.49,0c-.42,0-.84,0-1.27,0h-275v.5H1817a24.92,24.92,0,0,0,17.9-7.6h0a24.9,24.9,0,0,1-3.67,3Z"/><path class="cls-3" d="M1829.23,149.44l1-.56Z"/><path class="cls-3" d="M1834.92,145.27a25.43,25.43,0,0,1-3.67,3A24.9,24.9,0,0,0,1834.92,145.27Z"/><path class="cls-3" d="M1826,150.89l.94-.37Z"/><path class="cls-3" d="M1823.67,151.6l.86-.24Z"/><path class="cls-3" d="M1824.83,151.27c.31-.09.61-.2.9-.3C1825.44,151.07,1825.14,151.18,1824.83,151.27Z"/><path class="cls-3" d="M1827.08,150.45c.33-.13.65-.28,1-.43C1827.73,150.17,1827.41,150.32,1827.08,150.45Z"/><path class="cls-3" d="M1822.48,151.87c.27-.05.54-.12.8-.18C1823,151.75,1822.75,151.82,1822.48,151.87Z"/><path class="cls-2" d="M1829.15,149.47l.08,0Z"/><path class="cls-2" d="M1828.05,150l.12-.05Z"/><path class="cls-2" d="M1817.52,152.37c.43,0,.85,0,1.27,0C1818.37,152.36,1818,152.37,1817.52,152.37Z"/><path class="cls-2" d="M1830.22,148.88l0,0Z"/><path class="cls-2" d="M1831.24,148.23h0Z"/><path class="cls-2" d="M1826.91,150.52l.17-.07Z"/><path class="cls-2" d="M1820.69,152.16l.58-.07Z"/><path class="cls-2" d="M1823.28,151.69l.39-.09Z"/><path class="cls-2" d="M1824.53,151.36l.3-.09Z"/><path class="cls-2" d="M1825.73,151l.24-.08Z"/><path class="cls-2" d="M1819.28,152.3c.25,0,.51,0,.76-.06C1819.79,152.27,1819.53,152.28,1819.28,152.3Z"/><path class="cls-2" d="M1822,152l.48-.09Z"/><path class="cls-4" d="M1787,91.87v32.86c0,12.73,9.56,23.14,21.25,23.14h8.5c11.69,0,21.25-10.41,21.25-23.14V91.87"/><path class="cls-4" d="M1834.92,145.27a25.43,25.43,0,0,1-3.67,3h0q-.48.33-1,.63l0,0-1,.56-.08,0c-.32.18-.65.34-1,.5l-.12.05c-.32.15-.64.3-1,.43l-.17.07-.94.37-.24.08c-.29.1-.59.21-.9.3l-.3.09-.86.24-.39.09c-.26.06-.53.13-.8.18l-.48.09-.73.13-.58.07-.65.08c-.25,0-.51,0-.76.06l-.49,0c-.42,0-.84,0-1.27,0h-10a25.07,25.07,0,0,1-25-25"/><path class="cls-4" d="M1834.92,145.27a24.92,24.92,0,0,0,7.6-17.9V91.87"/><path class="cls-4" d="M1547,91.87v32.86c0,12.73,9.56,23.14,21.25,23.14h8.5c11.69,0,21.25-10.41,21.25-23.14V91.87"/><path class="cls-4" d="M1602.52,127.37a25.07,25.07,0,0,1-25,25h-10a25.07,25.07,0,0,1-25-25"/><path class="cls-4" d="M1607,91.87v32.86c0,12.73,9.56,23.14,21.25,23.14h8.5c11.69,0,21.25-10.41,21.25-23.14V91.87"/><path class="cls-4" d="M1602.52,127.37a25.07,25.07,0,0,0,25,25h10a25.07,25.07,0,0,0,25-25"/><line class="cls-4" x1="1602.52" y1="127.37" x2="1602.52" y2="91.87"/><polyline class="cls-4" points="1542.52 152.87 1542.52 152.37 1542.52 127.37"/><line class="cls-5" x1="1538.02" y1="179.87" x2="1538.02" y2="100.87"/><line class="cls-4" x1="1542.52" y1="95.87" x2="1542.52" y2="127.37"/><path class="cls-4" d="M1722.52,127.37a25.07,25.07,0,0,0,25,25h10a25.07,25.07,0,0,0,25-25"/><path class="cls-4" d="M1727,91.87v32.86c0,12.73,9.56,23.14,21.25,23.14h8.5c11.69,0,21.25-10.41,21.25-23.14V91.87"/><line class="cls-4" x1="1782.52" y1="91.87" x2="1782.52" y2="127.37"/><path class="cls-4" d="M1667,91.87v32.86c0,12.73,9.56,23.14,21.25,23.14h8.5c11.69,0,21.25-10.41,21.25-23.14V91.87"/><path class="cls-4" d="M1722.52,127.37a25.07,25.07,0,0,1-25,25h-10a25.07,25.07,0,0,1-25-25"/><line class="cls-4" x1="1662.52" y1="91.87" x2="1662.52" y2="127.37"/><line class="cls-4" x1="1722.52" y1="127.37" x2="1722.52" y2="91.87"/><path class="cls-3" d="M1821.27,152.09l.73-.13Z"/><path class="cls-3" d="M1818.79,152.34l.49,0Z"/><path class="cls-3" d="M1820,152.24l.65-.08Z"/><path class="cls-3" d="M1828.17,150c.33-.16.66-.32,1-.5C1828.83,149.65,1828.5,149.81,1828.17,150Z"/><path class="cls-3" d="M1830.25,148.86q.51-.3,1-.63Q1830.76,148.56,1830.25,148.86Z"/><path class="cls-3" d="M1831.24,148.23q-.48.33-1,.63l0,0-1,.56-.08,0c-.32.18-.65.34-1,.5l-.12.05c-.32.15-.64.3-1,.43l-.17.07-.94.37-.24.08c-.29.1-.59.21-.9.3l-.3.09-.86.24-.39.09c-.26.06-.53.13-.8.18l-.48.09-.73.13-.58.07-.65.08c-.25,0-.51,0-.76.06l-.49,0c-.42,0-.84,0-1.27,0h-275v.5H1817a24.92,24.92,0,0,0,17.9-7.6h0a24.9,24.9,0,0,1-3.67,3Z"/><path class="cls-3" d="M1829.23,149.44l1-.56Z"/><path class="cls-3" d="M1826,150.89l.94-.37Z"/><path class="cls-3" d="M1823.67,151.6l.86-.24Z"/><path class="cls-3" d="M1824.83,151.27c.31-.09.61-.2.9-.3C1825.44,151.07,1825.14,151.18,1824.83,151.27Z"/><path class="cls-3" d="M1827.08,150.45c.33-.13.65-.28,1-.43C1827.73,150.17,1827.41,150.32,1827.08,150.45Z"/><path class="cls-3" d="M1822.48,151.87c.27-.05.54-.12.8-.18C1823,151.75,1822.75,151.82,1822.48,151.87Z"/><path class="cls-6" d="M1848,77.37h7.5a25.07,25.07,0,0,1,25,25v57a25.07,25.07,0,0,1-25,25H1848"/><path class="cls-7" d="M1842.52,151.87v7.5a25.07,25.07,0,0,1-25,25h-57a25.07,25.07,0,0,1-25-25v-7.5"/><path d="M1542,184.87h247.8c1.21,0,2.2-.26,2.2-.6v-31.8c0-.33-1-.6-2.2-.6H1542"/><path class="cls-1" d="M1880.52,174.37v57a25.07,25.07,0,0,1-25,25H1848"/><circle cx="1671.52" cy="43.37" r="6.5"/><circle cx="1654.52" cy="43.37" r="6.5"/><circle cx="1615.98" cy="233.02" r="6.5"/><circle cx="1598.98" cy="233.02" r="6.5"/><line class="cls-4" x1="1842.52" y1="154.37" x2="1842.52" y2="92.37"/><path d="M1842.41,132.31A25.09,25.09,0,0,1,1818,151.87h24.5l.5-16.5v-3A4.09,4.09,0,0,1,1842.41,132.31Z"/><rect class="cls-1" x="5.5" y="5.37" width="1880.42" height="1040.13" rx="27"/><path class="cls-6" d="M1848,10.22h7.5a25.13,25.13,0,0,1,25,25.12V92.6a25.13,25.13,0,0,1-25,25.12H1848"/><path d="M1880.08,974.1l-.18,0a25.07,25.07,0,0,1-24.78,21.8h-35v19a25.07,25.07,0,0,0,25,25h10a25.07,25.07,0,0,0,25-25V974.54c0-.12,0-.24,0-.36Z"/><path class="cls-1" d="M1880.5,899v67.68c0,16.33-11.25,29.69-25,29.69H1848"/><line class="cls-8" x1="375.92" y1="996.37" x2="388.92" y2="996.37"/><path class="cls-6" d="M34.92,1039.6a24.07,24.07,0,0,1-24-24V995.77"/><path class="cls-1" d="M1880.5,939.3v76a24.07,24.07,0,0,1-24,24H1542"/><path class="cls-1" d="M1547,10.18h309.5a24.07,24.07,0,0,1,24,24V372.69"/><path class="cls-1" d="M10.5,425.39V34.21a24.07,24.07,0,0,1,24-24H75"/><path class="cls-1" d="M1880.52,287.37v-57a25.07,25.07,0,0,0-25-25H1848"/><path class="cls-2" d="M378.92,959.37c.43,0,.85,0,1.27,0C379.77,959.36,379.35,959.37,378.92,959.37Z"/><path class="cls-2" d="M392.64,955.23h0Z"/><path class="cls-2" d="M382.09,959.16l.58-.07Z"/><path class="cls-2" d="M384.68,958.69l.39-.09Z"/><path class="cls-2" d="M385.93,958.36l.3-.09Z"/><path class="cls-2" d="M380.68,959.3c.25,0,.51,0,.76-.06C381.19,959.27,380.93,959.28,380.68,959.3Z"/><path class="cls-2" d="M383.4,959l.48-.09Z"/><path class="cls-3" d="M382.67,959.09l.73-.13Z"/><path class="cls-3" d="M380.19,959.34l.49,0Z"/><path class="cls-3" d="M381.44,959.24l.65-.08Z"/><path class="cls-3" d="M396.32,952.27a25.43,25.43,0,0,1-3.67,3A24.9,24.9,0,0,0,396.32,952.27Z"/><path class="cls-3" d="M385.07,958.6l.86-.24Z"/><path class="cls-3" d="M383.88,958.87c.27,0,.54-.12.8-.18C384.42,958.75,384.15,958.82,383.88,958.87Z"/><path class="cls-2" d="M378.92,959.37c.43,0,.85,0,1.27,0C379.77,959.36,379.35,959.37,378.92,959.37Z"/><path class="cls-2" d="M392.64,955.23h0Z"/><path class="cls-2" d="M382.09,959.16l.58-.07Z"/><path class="cls-2" d="M384.68,958.69l.39-.09Z"/><path class="cls-2" d="M385.93,958.36l.3-.09Z"/><path class="cls-2" d="M380.68,959.3c.25,0,.51,0,.76-.06C381.19,959.27,380.93,959.28,380.68,959.3Z"/><path class="cls-2" d="M383.4,959l.48-.09Z"/><path class="cls-4" d="M348.42,898.87v32.86c0,12.73,9.56,23.14,21.25,23.14h8.5c11.69,0,21.25-10.41,21.25-23.14V898.87"/><path class="cls-4" d="M396.32,952.27a25.43,25.43,0,0,1-3.67,3h0q-.48.33-1,.63l0,0-1,.56-.08,0c-.32.18-.65.34-1,.5l-.12,0c-.32.15-.64.3-1,.43l-.17.07-.94.37-.24.08c-.29.1-.59.21-.9.3l-.3.09-.86.24-.39.09c-.26.06-.53.13-.8.18l-.48.09-.73.13-.58.07-.65.08c-.25,0-.51,0-.76.06l-.49,0c-.42,0-.84,0-1.27,0h-10a25.07,25.07,0,0,1-25-25"/><path class="cls-4" d="M396.32,952.27a24.92,24.92,0,0,0,7.6-17.9v-35.5"/><path class="cls-4" d="M283.92,934.37a25.07,25.07,0,0,0,25,25h10a25.07,25.07,0,0,0,25-25"/><path class="cls-4" d="M288.42,898.87v32.86c0,12.73,9.56,23.14,21.25,23.14h8.5c11.69,0,21.25-10.41,21.25-23.14V898.87"/><line class="cls-4" x1="343.92" y1="898.87" x2="343.92" y2="934.37"/><path class="cls-4" d="M228.42,898.87v32.86c0,12.73,9.56,23.14,21.25,23.14h8.5c11.69,0,21.25-10.41,21.25-23.14V898.87"/><path class="cls-4" d="M283.92,934.37a25.07,25.07,0,0,1-25,25h-10a25.07,25.07,0,0,1-25-25"/><line class="cls-4" x1="283.92" y1="934.37" x2="283.92" y2="898.87"/><path d="M283.92,934.37v0a25.07,25.07,0,0,1-25,25h50A25.07,25.07,0,0,1,283.92,934.37Z"/><path d="M343.92,934.37v0a25.07,25.07,0,0,1-25,25h50A25.07,25.07,0,0,1,343.92,934.37Z"/><path class="cls-3" d="M382.67,959.09l.73-.13Z"/><path class="cls-3" d="M380.19,959.34l.49,0Z"/><path class="cls-3" d="M381.44,959.24l.65-.08Z"/><path class="cls-6" d="M403.92,958.87v7.5a25.07,25.07,0,0,1-25,25h-57a25.07,25.07,0,0,1-25-25v-7.5"/><path d="M134.42,991.87H351.49c1.07,0,1.93-.26,1.93-.6v-31.8c0-.33-.86-.6-1.93-.6H134.42"/><path d="M70,1039.86H1831.74c8.66,0,15.68-.36,15.68-.8v-42.4c0-.44-7-.8-15.68-.8H70"/><path d="M70.42,1001.2V974.54c0-.12,0-.24,0-.36v-.08l-.18,0c-1.52,12.25-11.63,21.8-23.79,21.8"/><path d="M194.42,867.87v122.9c0,.61.25,1.1.55,1.1h28.91c.3,0,.54-.49.54-1.1V867.87"/><line class="cls-4" x1="70.72" y1="996.87" x2="70.72" y2="954.87"/><circle class="cls-1" cx="105.42" cy="966.87" r="25.5"/><line class="cls-4" x1="228.49" y1="923.86" x2="228.49" y2="825.87"/><path class="cls-4" d="M15.92,992.37H45.67c11.69,0,21.25-10.41,21.25-23.14"/><line class="cls-4" x1="66.92" y1="969.87" x2="66.92" y2="954.87"/><path class="cls-6" d="M224.42,826.37H217.6c-12.5,0-22.72,11.25-22.72,25v57c0,13.75,10.22,25,22.72,25h6.82"/><line class="cls-4" x1="10.92" y1="992.37" x2="23.92" y2="992.37"/><path d="M224.42,933.87v25h25A25.07,25.07,0,0,1,224.42,933.87Z"/><path d="M194.42,933.87v25h-25A25.07,25.07,0,0,0,194.42,933.87Z"/><path d="M134.42,970.87v25h-25A25.07,25.07,0,0,0,134.42,970.87Z"/><polygon points="1863.88 230.89 1867.02 235.18 1861.74 234.61 1859.59 239.47 1857.45 234.61 1852.16 235.18 1855.3 230.89 1852.16 226.6 1857.45 227.18 1859.59 222.31 1861.74 227.18 1867.02 226.6 1863.88 230.89"/><rect x="11.42" y="995.87" width="59" height="20"/><path class="cls-4" d="M190.42,931.87a23.07,23.07,0,0,1-23,23h-14"/><line class="cls-4" x1="190.42" y1="931.87" x2="190.42" y2="916.31"/><line class="cls-4" x1="155.42" y1="954.87" x2="134.42" y2="954.87"/><path class="cls-9" d="M403.92,968.37a23.07,23.07,0,0,1-23,23h-14a23.07,23.07,0,0,1-23-23"/><line class="cls-4" x1="403.92" y1="929.37" x2="403.92" y2="968.37"/><path d="M403.81,939.31a25.09,25.09,0,0,1-24.39,19.56h24.5l.5-16.5v-3A4.09,4.09,0,0,1,403.81,939.31Z"/><path d="M51.42,1007.7H10.55v7.5a25.14,25.14,0,0,0,25.12,25H46.42"/><rect x="45.42" y="1014.54" width="16" height="20"/><path d="M46.42,1040.2c13.2,0,24-11.25,24-25v-13.66"/><rect x="46.42" y="1032.87" width="4" height="6"/><rect x="43.42" y="1034.17" width="4" height="6"/><line class="cls-1" x1="10.5" y1="371.37" x2="10.5" y2="992.87"/><line class="cls-1" x1="1567.5" y1="10.2" x2="72.75" y2="10.2"/><line class="cls-4" x1="1486.52" y1="157.23" x2="1486.52" y2="147.87"/><path class="cls-10" d="M1532.57,180.37h-24.8c-11.69,0-21.25-10.41-21.25-23.14"/><line class="cls-10" x1="1538.51" y1="180.37" x2="1532.09" y2="180.37"/><path d="M1506.6,184.87a24.86,24.86,0,0,1-24.58-25v11.34a24.85,24.85,0,0,0,24.57,24.16H1541v-10.5Z"/><path d="M1516.44,228.87h-9.84a24.86,24.86,0,0,1-24.58-25V171.21c0-.28,0-.56,0-.84q-.49,21.81-1,43.63a26.63,26.63,0,0,0,25.59,25.37h9.84a24.87,24.87,0,0,0,24.59-25l0-10.37a24.82,24.82,0,0,1-24.56,24.87Z"/><path d="M1482,171.21v32.66a24.86,24.86,0,0,0,24.58,25h9.84a24.86,24.86,0,0,0,24.58-25v-8.5h-34.43A24.85,24.85,0,0,1,1482,171.21Z"/><polygon class="cls-11" points="1481.27 166.5 1482.27 166.5 1482.27 214.5 1481.27 214.5 1481.27 208.69 1481.27 175.16 1481.27 166.5"/><line class="cls-4" x1="1481.52" y1="167.34" x2="1481.52" y2="157.98"/></g></g></svg>