<svg xmlns="http://www.w3.org/2000/svg" xmlns:xlink="http://www.w3.org/1999/xlink" viewBox="0 0 1920 1080"><defs><style>.cls-1,.cls-3,.cls-6,.cls-7,.cls-8{fill:none;}.cls-2{fill:#c70e0e;}.cls-3,.cls-4,.cls-6,.cls-7,.cls-8,.cls-9{stroke:#fff;}.cls-3,.cls-4,.cls-9{stroke-miterlimit:10;}.cls-4{fill:gray;stroke-width:0.7px;}.cls-10,.cls-11,.cls-13,.cls-5,.cls-9{fill:#fff;}.cls-6,.cls-7{stroke-linecap:round;}.cls-6,.cls-8{stroke-linejoin:round;}.cls-10,.cls-11{font-size:18px;}.cls-10{font-family:29LTBaseet-ExtraBold, "29LT Baseet";}.cls-10,.cls-11,.cls-13{font-weight:800;}.cls-11,.cls-13{font-family:AkkuratLLHeb-Black, Akkurat LL Hebrew;}.cls-12{clip-path:url(#clip-path);}.cls-13{font-size:19px;}</style><clipPath id="clip-path"><rect class="cls-1" x="850.24" y="892.21" width="226.38" height="35.68"/></clipPath></defs><g id="Calque_2" data-name="Calque 2"><g id="Calque_2-2" data-name="Calque 2"><rect class="cls-2" width="1920" height="1080"/><rect class="cls-3" x="750.39" y="279.18" width="418" height="483.96" rx="31"/><path class="cls-4" d="M1107,428.74l.08,0Z"/><path class="cls-4" d="M1105.92,429.29l.12-.06Z"/><path class="cls-4" d="M1095.39,431.63c.43,0,.85,0,1.27,0C1096.24,431.62,1095.82,431.63,1095.39,431.63Z"/><path class="cls-4" d="M1108.09,428.14l0,0Z"/><path class="cls-4" d="M1109.12,427.5h0Z"/><path class="cls-4" d="M1104.78,429.79l.17-.07Z"/><path class="cls-4" d="M1098.56,431.43l.58-.08Z"/><path class="cls-4" d="M1101.15,431l.39-.09Z"/><path class="cls-4" d="M1102.4,430.62l.3-.09Z"/><path class="cls-4" d="M1103.6,430.23l.24-.08Z"/><path class="cls-4" d="M1097.15,431.56l.76-.05Z"/><path class="cls-4" d="M1099.87,431.22c.16,0,.32-.05.48-.09C1100.19,431.17,1100,431.19,1099.87,431.22Z"/><path class="cls-5" d="M1099.14,431.35l.73-.13Z"/><path class="cls-5" d="M1096.66,431.6l.49,0Z"/><path class="cls-5" d="M1097.91,431.51l.65-.08Z"/><path class="cls-5" d="M1106,429.23c.33-.15.66-.32,1-.49C1106.7,428.91,1106.37,429.08,1106,429.23Z"/><path class="cls-5" d="M1108.12,428.12c.34-.2.67-.41,1-.62C1108.79,427.71,1108.46,427.92,1108.12,428.12Z"/><path class="cls-5" d="M1109.12,427.5c-.33.21-.66.42-1,.62l0,0-1,.56-.08,0c-.32.17-.65.34-1,.49l-.12.06-1,.43-.17.07c-.31.12-.62.25-.94.36l-.24.08q-.43.16-.9.3l-.3.09c-.29.08-.57.17-.86.24l-.39.09c-.26.07-.53.13-.8.18s-.32.06-.48.09l-.73.13-.58.08-.65.08-.76.05-.49,0c-.42,0-.84,0-1.27,0h-275v.5h274.5a24.92,24.92,0,0,0,17.9-7.6h0a25.49,25.49,0,0,1-3.67,2.95Z"/><path class="cls-5" d="M1107.1,428.7l1-.56Z"/><path class="cls-5" d="M1112.79,424.54a26.05,26.05,0,0,1-3.67,2.95A25.49,25.49,0,0,0,1112.79,424.54Z"/><path class="cls-5" d="M1103.84,430.15c.32-.11.63-.24.94-.36C1104.47,429.91,1104.16,430,1103.84,430.15Z"/><path class="cls-5" d="M1101.54,430.86c.29-.07.57-.16.86-.24C1102.11,430.7,1101.83,430.79,1101.54,430.86Z"/><path class="cls-5" d="M1102.7,430.53q.46-.13.9-.3Q1103.17,430.4,1102.7,430.53Z"/><path class="cls-5" d="M1105,429.72l1-.43Z"/><path class="cls-5" d="M1100.35,431.13c.27-.05.54-.11.8-.18C1100.89,431,1100.62,431.08,1100.35,431.13Z"/><path class="cls-4" d="M1107,428.74l.08,0Z"/><path class="cls-4" d="M1105.92,429.29l.12-.06Z"/><path class="cls-4" d="M1095.39,431.63c.43,0,.85,0,1.27,0C1096.24,431.62,1095.82,431.63,1095.39,431.63Z"/><path class="cls-4" d="M1108.09,428.14l0,0Z"/><path class="cls-4" d="M1109.12,427.5h0Z"/><path class="cls-4" d="M1104.78,429.79l.17-.07Z"/><path class="cls-4" d="M1098.56,431.43l.58-.08Z"/><path class="cls-4" d="M1101.15,431l.39-.09Z"/><path class="cls-4" d="M1102.4,430.62l.3-.09Z"/><path class="cls-4" d="M1103.6,430.23l.24-.08Z"/><path class="cls-4" d="M1097.15,431.56l.76-.05Z"/><path class="cls-4" d="M1099.87,431.22c.16,0,.32-.05.48-.09C1100.19,431.17,1100,431.19,1099.87,431.22Z"/><path class="cls-6" d="M1064.89,371.13V404c0,12.73,9.56,23.14,21.25,23.14h8.5c11.69,0,21.25-10.41,21.25-23.14V371.13"/><path class="cls-6" d="M1112.79,424.54a26.05,26.05,0,0,1-3.67,2.95h0c-.33.21-.66.42-1,.62l0,0-1,.56-.08,0c-.32.17-.65.34-1,.49l-.12.06-1,.43-.17.07c-.31.12-.62.25-.94.36l-.24.08q-.43.16-.9.3l-.3.09c-.29.08-.57.17-.86.24l-.39.09c-.26.07-.53.13-.8.18s-.32.06-.48.09l-.73.13-.58.08-.65.08-.76.05-.49,0c-.42,0-.84,0-1.27,0h-10a25.07,25.07,0,0,1-25-25"/><path class="cls-6" d="M1112.79,424.54h0a24.92,24.92,0,0,1-17.9,7.6H820.39"/><path class="cls-6" d="M1112.79,424.54a24.93,24.93,0,0,0,7.6-17.91v-35.5"/><path class="cls-6" d="M824.89,371.13V404c0,12.73,9.56,23.14,21.25,23.14h8.5c11.69,0,21.25-10.41,21.25-23.14V371.13"/><path class="cls-6" d="M880.39,406.63a25.07,25.07,0,0,1-25,25h-10a25.07,25.07,0,0,1-25-25"/><path class="cls-6" d="M884.89,371.13V404c0,12.73,9.56,23.14,21.25,23.14h8.5c11.69,0,21.25-10.41,21.25-23.14V371.13"/><path class="cls-6" d="M880.39,406.63a25.07,25.07,0,0,0,25,25h10a25.07,25.07,0,0,0,25-25"/><line class="cls-6" x1="880.39" y1="406.63" x2="880.39" y2="371.13"/><polyline class="cls-6" points="820.39 432.13 820.39 431.63 820.39 406.63"/><line class="cls-6" x1="765.39" y1="436.49" x2="765.39" y2="427.13"/><line class="cls-7" x1="815.89" y1="459.13" x2="815.89" y2="380.13"/><line class="cls-6" x1="820.39" y1="375.13" x2="820.39" y2="406.63"/><path class="cls-6" d="M1000.39,406.63a25.07,25.07,0,0,0,25,25h10a25.07,25.07,0,0,0,25-25"/><path class="cls-6" d="M1004.89,371.13V404c0,12.73,9.56,23.14,21.25,23.14h8.5c11.69,0,21.25-10.41,21.25-23.14V371.13"/><line class="cls-6" x1="1060.39" y1="371.13" x2="1060.39" y2="406.63"/><path class="cls-6" d="M944.89,371.13V404c0,12.73,9.56,23.14,21.25,23.14h8.5c11.69,0,21.25-10.41,21.25-23.14V371.13"/><path class="cls-6" d="M1000.39,406.63a25.07,25.07,0,0,1-25,25h-10a25.07,25.07,0,0,1-25-25"/><line class="cls-6" x1="940.39" y1="371.13" x2="940.39" y2="406.63"/><line class="cls-6" x1="1000.39" y1="406.63" x2="1000.39" y2="371.13"/><path class="cls-5" d="M1099.14,431.35l.73-.13Z"/><path class="cls-5" d="M1096.66,431.6l.49,0Z"/><path class="cls-5" d="M1097.91,431.51l.65-.08Z"/><path class="cls-5" d="M1106,429.23c.33-.15.66-.32,1-.49C1106.7,428.91,1106.37,429.08,1106,429.23Z"/><path class="cls-5" d="M1108.12,428.12c.34-.2.67-.41,1-.62C1108.79,427.71,1108.46,427.92,1108.12,428.12Z"/><path class="cls-5" d="M1109.12,427.5c-.33.21-.66.42-1,.62l0,0-1,.56-.08,0c-.32.17-.65.34-1,.49l-.12.06-1,.43-.17.07c-.31.12-.62.25-.94.36l-.24.08q-.43.16-.9.3l-.3.09c-.29.08-.57.17-.86.24l-.39.09c-.26.07-.53.13-.8.18s-.32.06-.48.09l-.73.13-.58.08-.65.08-.76.05-.49,0c-.42,0-.84,0-1.27,0h-275v.5h274.5a24.92,24.92,0,0,0,17.9-7.6h0a25.49,25.49,0,0,1-3.67,2.95Z"/><path class="cls-5" d="M1107.1,428.7l1-.56Z"/><path class="cls-5" d="M1112.79,424.54a26.05,26.05,0,0,1-3.67,2.95A25.49,25.49,0,0,0,1112.79,424.54Z"/><path class="cls-5" d="M1103.84,430.15c.32-.11.63-.24.94-.36C1104.47,429.91,1104.16,430,1103.84,430.15Z"/><path class="cls-5" d="M1101.54,430.86c.29-.07.57-.16.86-.24C1102.11,430.7,1101.83,430.79,1101.54,430.86Z"/><path class="cls-5" d="M1102.7,430.53q.46-.13.9-.3Q1103.17,430.4,1102.7,430.53Z"/><path class="cls-5" d="M1105,429.72l1-.43Z"/><path class="cls-5" d="M1100.35,431.13c.27-.05.54-.11.8-.18C1100.89,431,1100.62,431.08,1100.35,431.13Z"/><path class="cls-5" d="M785.48,464.13a24.87,24.87,0,0,1-24.59-25v15.49a24.84,24.84,0,0,1-.5-5v44a25,25,0,0,0,24.79,25h9.92a25,25,0,0,0,24.79-25v-29.5Z"/><path class="cls-3" d="M1158.39,453.63v57a25.07,25.07,0,0,1-25,25h-7.5"/><circle class="cls-5" cx="949.5" cy="325.5" r="6.5"/><circle class="cls-5" cx="932.5" cy="325.5" r="6.5"/><circle class="cls-5" cx="888.39" cy="509.63" r="6.5"/><circle class="cls-5" cx="871.39" cy="509.63" r="6.5"/><line class="cls-6" x1="760.39" y1="451.13" x2="760.39" y2="371.63"/><path class="cls-8" d="M816.39,459.63H786.64c-11.69,0-21.25-10.41-21.25-23.14"/><line class="cls-6" x1="1120.39" y1="433.63" x2="1120.39" y2="371.63"/><path class="cls-5" d="M1120.4,431.33l.49-16.3v-2.95l-.61-.1a25.11,25.11,0,0,1-21.41,19.35h-17.33a25.09,25.09,0,0,1-21.15-24.7,25.1,25.1,0,0,1-20.06,24.51h-19.88a25.11,25.11,0,0,1-20.06-24.51,25.1,25.1,0,0,1-20.06,24.51H960.45a25.11,25.11,0,0,1-20.06-24.51,25.1,25.1,0,0,1-20.06,24.51H900.45a25.11,25.11,0,0,1-20.06-24.51,25.1,25.1,0,0,1-20.06,24.51H840.45a25.11,25.11,0,0,1-20.06-24.51v24.51h-.5v33h216.89c.55,0,1.1.06,1.65.06h57.33a25.29,25.29,0,0,0,25.14-25.28v-7.59Z"/><rect class="cls-3" x="755.39" y="284.63" width="408" height="472.71" rx="27"/><path class="cls-9" d="M1158.39,315.6a25.14,25.14,0,0,0-25-25.12h-7.5V463.63h7.5a25.07,25.07,0,0,0,25-25v-57a25.19,25.19,0,0,0-.39-4.37,25.42,25.42,0,0,0,.39-4.39Z"/><path class="cls-3" d="M1158.39,626.63v57a25.07,25.07,0,0,1-25,25h-7.5"/><line class="cls-6" x1="1125.39" y1="708.63" x2="1138.39" y2="708.63"/><path class="cls-3" d="M784.39,752a24.07,24.07,0,0,1-24-24V708.13"/><path class="cls-3" d="M1158.39,566.63v-57a25.07,25.07,0,0,0-25-25h-7.5"/><path class="cls-4" d="M1140,668.74l.08,0Z"/><path class="cls-4" d="M1138.92,669.29l.12-.06Z"/><path class="cls-4" d="M1128.39,671.63c.43,0,.85,0,1.27,0C1129.24,671.62,1128.82,671.63,1128.39,671.63Z"/><path class="cls-4" d="M1141.09,668.14l0,0Z"/><path class="cls-4" d="M1142.12,667.5h0Z"/><path class="cls-4" d="M1137.78,669.79l.17-.07Z"/><path class="cls-4" d="M1131.56,671.43l.58-.08Z"/><path class="cls-4" d="M1134.15,671l.39-.09Z"/><path class="cls-4" d="M1135.4,670.62l.3-.09Z"/><path class="cls-4" d="M1136.6,670.23l.24-.08Z"/><path class="cls-4" d="M1130.15,671.56l.76,0Z"/><path class="cls-4" d="M1132.87,671.22l.48-.09Z"/><path class="cls-5" d="M1132.14,671.35l.73-.13Z"/><path class="cls-5" d="M1129.66,671.6l.49,0Z"/><path class="cls-5" d="M1130.91,671.51l.65-.08Z"/><path class="cls-5" d="M1139,669.23c.33-.15.66-.32,1-.49C1139.7,668.91,1139.37,669.08,1139,669.23Z"/><path class="cls-5" d="M1141.12,668.12c.34-.2.67-.41,1-.62C1141.79,667.71,1141.46,667.92,1141.12,668.12Z"/><path class="cls-5" d="M1140.1,668.7l1-.56Z"/><path class="cls-5" d="M1145.79,664.54a26.05,26.05,0,0,1-3.67,3A25.49,25.49,0,0,0,1145.79,664.54Z"/><path class="cls-5" d="M1136.84,670.15c.32-.11.63-.24.94-.36C1137.47,669.91,1137.16,670,1136.84,670.15Z"/><path class="cls-5" d="M1134.54,670.86c.29-.07.57-.16.86-.24C1135.11,670.7,1134.83,670.79,1134.54,670.86Z"/><path class="cls-5" d="M1135.7,670.53q.46-.13.9-.3Q1136.17,670.4,1135.7,670.53Z"/><path class="cls-5" d="M1138,669.72l1-.43Z"/><path class="cls-5" d="M1133.35,671.13c.27,0,.54-.11.8-.18C1133.89,671,1133.62,671.08,1133.35,671.13Z"/><path class="cls-4" d="M1140,668.74l.08,0Z"/><path class="cls-4" d="M1138.92,669.29l.12-.06Z"/><path class="cls-4" d="M1128.39,671.63c.43,0,.85,0,1.27,0C1129.24,671.62,1128.82,671.63,1128.39,671.63Z"/><path class="cls-4" d="M1141.09,668.14l0,0Z"/><path class="cls-4" d="M1142.12,667.5h0Z"/><path class="cls-4" d="M1137.78,669.79l.17-.07Z"/><path class="cls-4" d="M1131.56,671.43l.58-.08Z"/><path class="cls-4" d="M1134.15,671l.39-.09Z"/><path class="cls-4" d="M1135.4,670.62l.3-.09Z"/><path class="cls-4" d="M1136.6,670.23l.24-.08Z"/><path class="cls-4" d="M1130.15,671.56l.76,0Z"/><path class="cls-4" d="M1132.87,671.22l.48-.09Z"/><path class="cls-6" d="M1097.89,611.13V644c0,12.73,9.56,23.14,21.25,23.14h8.5c11.69,0,21.25-10.41,21.25-23.14V611.13"/><path class="cls-6" d="M1145.79,664.54a26.05,26.05,0,0,1-3.67,3h0c-.33.21-.66.42-1,.62l0,0-1,.56-.08,0c-.32.17-.65.34-1,.49l-.12.06-1,.43-.17.07c-.31.12-.62.25-.94.36l-.24.08q-.43.16-.9.3l-.3.09c-.29.08-.57.17-.86.24l-.39.09c-.26.07-.53.13-.8.18l-.48.09-.73.13-.58.08-.65.08-.76,0-.49,0c-.42,0-.84,0-1.27,0h-10a25.07,25.07,0,0,1-25-25"/><path class="cls-6" d="M1145.79,664.54a24.93,24.93,0,0,0,7.6-17.91v-35.5"/><path class="cls-6" d="M1033.39,646.63a25.07,25.07,0,0,0,25,25h10a25.07,25.07,0,0,0,25-25"/><path class="cls-6" d="M1037.89,611.13V644c0,12.73,9.56,23.14,21.25,23.14h8.5c11.69,0,21.25-10.41,21.25-23.14V611.13"/><line class="cls-6" x1="1093.39" y1="611.13" x2="1093.39" y2="646.63"/><path class="cls-6" d="M977.89,611.13V644c0,12.73,9.56,23.14,21.25,23.14h8.5c11.69,0,21.25-10.41,21.25-23.14V611.13"/><path class="cls-6" d="M1033.39,646.63a25.07,25.07,0,0,1-25,25h-10a25.07,25.07,0,0,1-25-25"/><line class="cls-6" x1="1033.39" y1="646.63" x2="1033.39" y2="611.13"/><path class="cls-5" d="M1132.14,671.35l.73-.13Z"/><path class="cls-5" d="M1129.66,671.6l.49,0Z"/><path class="cls-5" d="M1130.91,671.51l.65-.08Z"/><path class="cls-5" d="M1139,669.23c.33-.15.66-.32,1-.49C1139.7,668.91,1139.37,669.08,1139,669.23Z"/><path class="cls-5" d="M1141.12,668.12c.34-.2.67-.41,1-.62C1141.79,667.71,1141.46,667.92,1141.12,668.12Z"/><path class="cls-5" d="M1140.1,668.7l1-.56Z"/><path class="cls-5" d="M1145.79,664.54a26.05,26.05,0,0,1-3.67,3A25.49,25.49,0,0,0,1145.79,664.54Z"/><path class="cls-5" d="M1136.84,670.15c.32-.11.63-.24.94-.36C1137.47,669.91,1137.16,670,1136.84,670.15Z"/><path class="cls-5" d="M1134.54,670.86c.29-.07.57-.16.86-.24C1135.11,670.7,1134.83,670.79,1134.54,670.86Z"/><path class="cls-5" d="M1135.7,670.53q.46-.13.9-.3Q1136.17,670.4,1135.7,670.53Z"/><path class="cls-5" d="M1138,669.72l1-.43Z"/><path class="cls-5" d="M1133.35,671.13c.27,0,.54-.11.8-.18C1133.89,671,1133.62,671.08,1133.35,671.13Z"/><line class="cls-6" x1="820.19" y1="709.13" x2="820.19" y2="667.13"/><circle class="cls-3" cx="854.89" cy="679.13" r="25.5"/><line class="cls-6" x1="977.96" y1="631" x2="977.96" y2="538.13"/><path class="cls-5" d="M1158.66,686.45v-.09l-.18,0a25.39,25.39,0,0,1-25.24,21.79H883.89v-25a25.06,25.06,0,0,1-25,25h-39v44h313.35c14,0,25.46-11.25,25.46-25V686.8C1158.69,686.68,1158.66,686.56,1158.66,686.45Z"/><polygon class="cls-5" points="1141.75 510.16 1144.89 514.45 1139.61 513.87 1137.46 518.74 1135.32 513.87 1130.03 514.45 1133.17 510.16 1130.03 505.87 1135.32 506.44 1137.46 501.58 1139.61 506.44 1144.89 505.87 1141.75 510.16"/><path class="cls-6" d="M938.89,644.13a23.07,23.07,0,0,1-23,23h-14"/><line class="cls-6" x1="938.89" y1="644.13" x2="938.89" y2="628.58"/><line class="cls-6" x1="904.89" y1="667.13" x2="883.89" y2="667.13"/><line class="cls-6" x1="1153.39" y1="641.63" x2="1153.39" y2="672.5"/><path class="cls-5" d="M1153.39,671.13l.5-16.5v-3l-.61-.1a25.09,25.09,0,0,1-24.39,19.55h-15.46a25.09,25.09,0,0,1-20-24.5,25.09,25.09,0,0,1-20,24.5h-19.93a25.09,25.09,0,0,1-20-24.5,25.1,25.1,0,0,1-20.06,24.51H998.89a25.07,25.07,0,0,1-25-25V538.63h-7.13c-13.07,0-23.76,11.25-23.76,25v82.5a25.13,25.13,0,0,1-25.11,25h-34v33H1101a4.76,4.76,0,0,0,1.22-.14h26.58a25.29,25.29,0,0,0,25.14-25.28v-7.59Z"/><path class="cls-5" d="M819.86,686.45v-.09l-.18,0c-1.52,12.25-11.63,21.79-23.79,21.79h-35V720H760v7.5a25.14,25.14,0,0,0,25.12,25h10.75v0h0l0,0c13,0,23.64-10.89,24-24.34h0V686.8C819.88,686.68,819.86,686.56,819.86,686.45Zm-9,41.85v-.17H811Z"/><path class="cls-3" d="M760.4,704V313.82a24.07,24.07,0,0,1,24-24h350a24.07,24.07,0,0,1,24,24V728.34a24.07,24.07,0,0,1-24,24H819.9"/><path class="cls-6" d="M764.8,704h29.75c11.69,0,21.25-10.41,21.25-23.14"/><line class="cls-6" x1="815.8" y1="681.01" x2="815.8" y2="667.51"/><line class="cls-6" x1="760.4" y1="704" x2="773.4" y2="704"/><path class="cls-5" d="M1681.68,138.25v1c0,.36-.11.66-.47.66H1678a.67.67,0,0,1-.67-.66v-5.35h-1.42a1.19,1.19,0,0,0-1.31,1.35v4.88c0,2.27-1,3.67-3.71,3.67h-2.07a3.76,3.76,0,0,1-4-3.89,5.92,5.92,0,0,1,1.06-3.42.63.63,0,0,1,.9-.2l.77.52a.66.66,0,0,1,.2.9,3.94,3.94,0,0,0-.57,1.9c0,1.22.63,1.83,1.62,1.83h2.1c.87,0,1.34-.41,1.34-1.28V135.3c0-2.31,1-3.73,3.65-3.73H1679a.67.67,0,0,1,.66.66v5.35h1.57C1681.57,137.58,1681.68,137.89,1681.68,138.25Zm-1,1.21v-1.39a.49.49,0,0,1,.49-.49h5.17a.48.48,0,0,1,.48.49v1.39a.47.47,0,0,1-.48.48h-5.17A.48.48,0,0,1,1680.73,139.46Zm5.19,0v-1.39a.49.49,0,0,1,.49-.49h5.16a.49.49,0,0,1,.49.49v1.39a.48.48,0,0,1-.49.48h-5.16A.48.48,0,0,1,1685.92,139.46Zm17.21-1.39v1.39a.47.47,0,0,1-.47.48,2.93,2.93,0,0,1-2.39-.9,3.5,3.5,0,0,1-2.79,1.24l-2.83-1.17a3.3,3.3,0,0,1-2.32.83h-.76a.47.47,0,0,1-.47-.48v-1.39a.49.49,0,0,1,.47-.49h.74c.72,0,1-.23,1-1v-1.69a3.31,3.31,0,0,1,3.6-3.55h.53a3.28,3.28,0,0,1,3.58,3.55v1.42a1.41,1.41,0,0,0,1.6,1.22A.49.49,0,0,1,1703.13,138.07Zm-4.43-3.15a1.17,1.17,0,0,0-1.21-1.17h-.57a1.21,1.21,0,0,0-1.21,1.17v1.71c0,.18,0,.38,0,.56l1.8.73a1.25,1.25,0,0,0,1.22-1.33Zm10.71,3.15v1.39a.47.47,0,0,1-.47.48,2.86,2.86,0,0,1-2.43-.95,3.69,3.69,0,0,1-2.82.95h-1a.47.47,0,0,1-.47-.48v-1.39a.49.49,0,0,1,.47-.49h1c.87,0,1.28-.39,1.28-1.26v-6.84h-.45a.66.66,0,0,1-.66-.65v-1a.67.67,0,0,1,.66-.67h2.13a.69.69,0,0,1,.68.67v8.57a1.41,1.41,0,0,0,1.6,1.22A.49.49,0,0,1,1709.41,138.07Zm13.65-5.87v4.34c0,2.5-1.3,3.74-3.33,3.74a3.82,3.82,0,0,1-2.6-.84,3.26,3.26,0,0,1-2.36.84,3.66,3.66,0,0,1-2.77-1,4.08,4.08,0,0,1-2.46.7h-.6a.47.47,0,0,1-.47-.48v-1.39a.49.49,0,0,1,.47-.49h.63a1.12,1.12,0,0,0,1.26-1.26v-2.95a.67.67,0,0,1,.65-.67h1a.67.67,0,0,1,.65.67v3.17c0,1,.56,1.35,1.26,1.35a1.18,1.18,0,0,0,1.33-1.35v-3.17a.68.68,0,0,1,.67-.67h1a.67.67,0,0,1,.66.67v3.17c0,1,.54,1.35,1.26,1.35a1.18,1.18,0,0,0,1.34-1.35V132.2a.66.66,0,0,1,.64-.67h1A.67.67,0,0,1,1723.06,132.2Zm10.42,2.81v5c0,2.5-1.23,3.83-3.55,3.83h-1.51a3.44,3.44,0,0,1-2.43-1,.66.66,0,0,1-.07-.94l.59-.65c.27-.32.52-.32.9-.09a1.65,1.65,0,0,0,1,.29h1.5c.81,0,1.15-.43,1.17-1.29v-.31a4,4,0,0,1-1.69.38h-.53a2.92,2.92,0,0,1-3.06-3V135a3.56,3.56,0,0,1,3.44-3.62h.78A3.46,3.46,0,0,1,1733.48,135Zm-2.36,1.82v-1a.34.34,0,0,1,0-.15V135a1.18,1.18,0,0,0-1.23-1.24h-.48a1.19,1.19,0,0,0-1.23,1.24v1.55c0,.84.4,1.35,1.23,1.35h.48A1.14,1.14,0,0,0,1731.12,136.83Zm22.68,1.24v1.39a.48.48,0,0,1-.49.48H1753c-2.7,0-3.65-1.37-3.65-3.64v-2.37h-3.8V140c0,2.52-1.19,3.83-3.48,3.83h-.21a3.43,3.43,0,0,1-2.33-.88.74.74,0,0,1-.12-1l.52-.69a.59.59,0,0,1,.9-.07,1.62,1.62,0,0,0,1,.27h.25c.83,0,1.12-.38,1.12-1.48v-7.78h0a.65.65,0,0,1,.64-.65h5.5v-.51a.63.63,0,0,1,.64-.64h1a.64.64,0,0,1,.65.64v5.26a1.11,1.11,0,0,0,1.27,1.26h.36A.5.5,0,0,1,1753.8,138.07Zm-4.84,3.49v1.3a.47.47,0,0,1-.45.47h-1.37a.48.48,0,0,1-.47-.47v-1.3a.45.45,0,0,1,.47-.43h1.37A.43.43,0,0,1,1749,141.56Zm3.15,0v1.3a.47.47,0,0,1-.45.47h-1.37a.48.48,0,0,1-.47-.47v-1.3a.45.45,0,0,1,.47-.43h1.37A.43.43,0,0,1,1752.11,141.56Zm9.45-3.49v1.39a.47.47,0,0,1-.47.48h-.67a2.71,2.71,0,0,1-2.27-.95,3.69,3.69,0,0,1-2.82.95h-2a.47.47,0,0,1-.47-.48v-1.39a.49.49,0,0,1,.47-.49h2a1.11,1.11,0,0,0,1.28-1.26v-4.09a.66.66,0,0,1,.65-.66h1a.66.66,0,0,1,.65.66v3.84a1.43,1.43,0,0,0,1.46,1.51h.65A.49.49,0,0,1,1761.56,138.07Zm-6.45-8.16V128.6a.47.47,0,0,1,.49-.42H1757a.41.41,0,0,1,.43.42v1.31a.45.45,0,0,1-.43.47h-1.37A.5.5,0,0,1,1755.11,129.91Zm3.17,0V128.6a.45.45,0,0,1,.47-.42h1.37a.41.41,0,0,1,.43.42v1.31a.45.45,0,0,1-.43.47h-1.37A.48.48,0,0,1,1758.28,129.91Zm2.34,9.55v-1.39a.48.48,0,0,1,.48-.49h5.17a.49.49,0,0,1,.49.49v1.39a.48.48,0,0,1-.49.48h-5.17A.47.47,0,0,1,1760.62,139.46Zm5.18,0v-1.39a.49.49,0,0,1,.49-.49h5.17a.48.48,0,0,1,.48.49v1.39a.47.47,0,0,1-.48.48h-5.17A.48.48,0,0,1,1765.8,139.46Zm19.77-7.26v4.34c0,2.5-1.3,3.74-3.33,3.74a3.79,3.79,0,0,1-2.59-.84,3.29,3.29,0,0,1-2.36.84,3.64,3.64,0,0,1-2.77-1,4.11,4.11,0,0,1-2.47.7h-.6a.46.46,0,0,1-.46-.48v-1.39a.48.48,0,0,1,.46-.49h.63a1.12,1.12,0,0,0,1.27-1.26v-2.95a.66.66,0,0,1,.64-.67h1a.67.67,0,0,1,.65.67v3.17c0,1,.55,1.35,1.26,1.35a1.18,1.18,0,0,0,1.33-1.35v-3.17a.67.67,0,0,1,.66-.67h1a.68.68,0,0,1,.67.67v3.17c0,1,.54,1.35,1.26,1.35a1.18,1.18,0,0,0,1.33-1.35V132.2a.67.67,0,0,1,.65-.67h1A.67.67,0,0,1,1785.57,132.2Zm5.94-4.41v11.49a.66.66,0,0,1-.65.66h-1a.67.67,0,0,1-.66-.66l0-9.8h-.45a.65.65,0,0,1-.65-.65v-1a.67.67,0,0,1,.65-.67h2.14A.68.68,0,0,1,1791.51,127.79Z"/><path class="cls-5" d="M920.08,136.74c0-1.52-.81-2-2.18-2h-4.61v-2.45h5.18c3,0,4.5,1.51,4.5,4.27v6.32h-2.89Zm-6.79.28h2.9v5.82h-2.9Zm12.18-1.62-.72-3.15h3l.34,1.6a3.26,3.26,0,0,1,3.19-1.85c2.59,0,3.67,1.6,3.67,4.29v6.55h-5.43v-2.45h2.54V136.3a1.59,1.59,0,0,0-1.7-1.82c-1.56,0-2.07,1.54-2.16,3.07l-.36,5.29h-2.91Zm15.86-.7h-5.42v-4.9h2.88v2.45h5.53v2.58l-3.29,8H938Zm5.56,7.06a6.35,6.35,0,0,1,0-8.43,5.69,5.69,0,0,1,7.31,0,5.58,5.58,0,0,1-7.31,8.43Zm6-4.21c0-1.68-.56-3.14-2.34-3.14s-2.34,1.46-2.34,3.14.52,3.13,2.34,3.13S952.89,139.09,952.89,137.55ZM958,134.7h-1.19v-2.45h4.08v10.59H958Zm13.21,2.05c0-1.44-.74-2.05-2.11-2.05H966v-2.45h3.65c3,0,4.45,1.51,4.45,4.27v6.32h-2.9Zm4.77,6v-2.2a2.4,2.4,0,0,0,.68.08c.78,0,1.15-.31,1.15-1.48V134.7H976v-2.45h7.05c3,0,4.45,1.42,4.45,4.18v6.41h-2.9v-6.16c0-1.44-.7-2-2.07-2h-1.91v4.57c0,3-1.62,3.7-3.27,3.7A3.64,3.64,0,0,1,975.93,142.73Zm15-1a5.55,5.55,0,0,1,3.65-9.76,5.4,5.4,0,0,1,3.66,1.33,5.58,5.58,0,0,1-7.31,8.43Zm6-4.21c0-1.68-.55-3.14-2.34-3.14s-2.34,1.46-2.34,3.14.52,3.13,2.34,3.13S997,139.09,997,137.55Zm4.16,1.42a3,3,0,0,1,2.14-3.1l-2.47-3.62h3.39l3.31,5.31c.45-.16.74-.55.74-1.63v-3.68h2.83v3.91a3,3,0,0,1-2.4,3.11l2.52,3.57h-3.49l-3.24-5.19c-.34.22-.51.65-.51,1.52v3.67h-2.82Z"/><path class="cls-5" d="M936.6,971.65c0-1.52-.81-2-2.18-2h-4.61v-2.45H935c3,0,4.5,1.52,4.5,4.27v6.32h-2.9Zm-6.79.29h2.9v5.81h-2.9Zm15.59-.27c0-1.44-.74-2.06-2.11-2.06H940.2v-2.45h3.65c3,0,4.45,1.52,4.45,4.27v6.32h-2.9Zm5.38-2.06h-1.17v-2.45h4.07v7.19h-2.9Zm5,4.27a3,3,0,0,1,2.14-3.1l-2.46-3.62h3.38l3.32,5.32c.45-.17.73-.56.73-1.64v-3.68h2.83v3.91a3,3,0,0,1-2.39,3.12l2.52,3.56h-3.5l-3.24-5.18c-.34.21-.5.64-.5,1.51v3.67h-2.83Zm12.3-4.27h-1.19v-2.45h4.08v10.59H968Zm6.4,7.06a6.35,6.35,0,0,1,0-8.43,5.69,5.69,0,0,1,7.31,0,5.58,5.58,0,0,1-7.31,8.43Zm6-4.21c0-1.68-.56-3.14-2.34-3.14s-2.34,1.46-2.34,3.14.52,3.13,2.34,3.13S980.43,974,980.43,972.46Zm4.16,1.42a3,3,0,0,1,2.14-3.1l-2.47-3.62h3.39l3.31,5.32c.45-.17.74-.56.74-1.64v-3.68h2.82v3.91a3,3,0,0,1-2.39,3.12l2.52,3.56h-3.49l-3.24-5.18c-.35.21-.51.64-.51,1.51v3.67h-2.82Z"/><path class="cls-5" d="M132,966h9.21v2.14H134.5V971h5.85V973H134.5v3.38h6.72v2.12H132Z"/><path class="cls-5" d="M142,975.62h2.21a1.72,1.72,0,0,0,2,1.49c1.05,0,1.64-.4,1.64-1,0-.86-1.13-1-2.36-1.19-1.61-.32-3.19-.75-3.19-2.72s1.61-2.87,3.66-2.87c2.37,0,3.68,1.18,3.85,3h-2.15c-.1-1-.72-1.31-1.73-1.31s-1.54.35-1.54,1,1.19.85,2.47,1.11c1.5.31,3.16.73,3.16,2.83,0,1.81-1.54,2.89-3.78,2.89C143.56,978.79,142.11,977.53,142,975.62Z"/><path class="cls-5" d="M150.46,975.62h2.2a1.73,1.73,0,0,0,2,1.49c1.06,0,1.65-.4,1.65-1,0-.86-1.14-1-2.36-1.19-1.61-.32-3.19-.75-3.19-2.72s1.61-2.87,3.66-2.87c2.36,0,3.68,1.18,3.85,3h-2.15c-.11-1-.72-1.31-1.74-1.31s-1.54.35-1.54,1,1.2.85,2.47,1.11c1.51.31,3.17.73,3.17,2.83,0,1.81-1.54,2.89-3.78,2.89C152.05,978.79,150.6,977.53,150.46,975.62Z"/><path class="cls-5" d="M165,977.53h0a2.75,2.75,0,0,1-2.64,1.21c-1.84,0-3.13-1-3.13-2.75,0-2,1.61-2.61,3.6-2.89,1.49-.21,2.17-.33,2.17-1s-.51-1.07-1.5-1.07-1.67.4-1.74,1.26h-2.11c.07-1.57,1.24-3,3.86-3s3.79,1.21,3.79,3.31v4.57c0,.68.1,1.08.31,1.24v.09h-2.29A2.45,2.45,0,0,1,165,977.53Zm0-2.17V974a6.35,6.35,0,0,1-1.66.53c-1.24.28-1.85.56-1.85,1.4s.56,1.14,1.4,1.14A1.87,1.87,0,0,0,165,975.36Z"/><path class="cls-5" d="M168.29,974.05a4.69,4.69,0,1,1,4.69,4.74A4.57,4.57,0,0,1,168.29,974.05Zm7,0c0-1.75-.83-2.94-2.28-2.94s-2.27,1.19-2.27,2.94.8,2.92,2.27,2.92S175.26,975.8,175.26,974.05Z"/><path class="cls-5" d="M184.44,978.53v-1h-.05a2.88,2.88,0,0,1-2.57,1.29,2.93,2.93,0,0,1-3.12-3.23v-6h2.37v5.58c0,1,.47,1.63,1.48,1.63a1.82,1.82,0,0,0,1.81-2v-5.18h2.38v9Z"/><path class="cls-5" d="M188.28,966h2.38v2.14h-2.38Zm0,3.54h2.38v9h-2.38Z"/><path class="cls-5" d="M194.49,971h0a2.35,2.35,0,0,1,2.21-1.54,1.67,1.67,0,0,1,.56.06v2.09h-.06c-1.55-.16-2.67.66-2.67,2.55v4.38H192.2v-9h2.29Z"/><path class="cls-5" d="M203.47,977.53h0a2.75,2.75,0,0,1-2.64,1.21c-1.84,0-3.13-1-3.13-2.75,0-2,1.61-2.61,3.6-2.89,1.49-.21,2.17-.33,2.17-1s-.51-1.07-1.5-1.07-1.67.4-1.74,1.26h-2.11c.07-1.57,1.24-3,3.86-3s3.78,1.21,3.78,3.31v4.57c0,.68.11,1.08.32,1.24v.09h-2.29A2.45,2.45,0,0,1,203.47,977.53Zm0-2.17V974a6.35,6.35,0,0,1-1.66.53c-1.24.28-1.85.56-1.85,1.4s.56,1.14,1.4,1.14A1.87,1.87,0,0,0,203.48,975.36Z"/><text class="cls-10" transform="translate(1793 973.59)"> </text><path class="cls-5" d="M132.42,909.53h5.73a5.12,5.12,0,0,1,1.66.26,3.74,3.74,0,0,1,1.27.71,3,3,0,0,1,.81,1.09,3.48,3.48,0,0,1,.29,1.43,3.34,3.34,0,0,1-.54,1.9,3,3,0,0,1-1.75,1.12v.06a2.53,2.53,0,0,1,1.32.81,3.22,3.22,0,0,1,.58,1.71c.05.44.08.85.1,1.23s0,.71.07,1a3.49,3.49,0,0,0,.13.71c.06.19.14.31.25.35v.13H139.9c-.08,0-.14-.15-.19-.33a6.23,6.23,0,0,1-.11-.67c0-.27-.06-.57-.08-.89s-.05-.66-.07-1a2.39,2.39,0,0,0-.67-1.59A2.58,2.58,0,0,0,137,917H135v5h-2.53Zm2.53,5.53h2.7a2.21,2.21,0,0,0,1.56-.48,1.64,1.64,0,0,0,.5-1.23,1.73,1.73,0,0,0-.49-1.27,2,2,0,0,0-1.5-.5H135Z"/><path class="cls-5" d="M147.74,922.31a5,5,0,0,1-2-.37,4.09,4.09,0,0,1-2.36-2.52,5.48,5.48,0,0,1-.31-1.87,5.34,5.34,0,0,1,.32-1.86,4.53,4.53,0,0,1,.91-1.5,4.29,4.29,0,0,1,3.2-1.37,4.36,4.36,0,0,1,1.9.4,3.85,3.85,0,0,1,1.39,1.11,5.27,5.27,0,0,1,.85,1.71,7.91,7.91,0,0,1,.28,2.19h-6.51a2.92,2.92,0,0,0,.71,1.65,2.12,2.12,0,0,0,1.59.59,1.9,1.9,0,0,0,1.12-.3,1.64,1.64,0,0,0,.61-.8h2.34a3.64,3.64,0,0,1-.44,1.13,3.53,3.53,0,0,1-.84.93,3.93,3.93,0,0,1-1.22.64A4.77,4.77,0,0,1,147.74,922.31Zm-.19-7.65a1.84,1.84,0,0,0-1.43.52,2.58,2.58,0,0,0-.65,1.41h4a2.15,2.15,0,0,0-.57-1.39A1.76,1.76,0,0,0,147.55,914.66Z"/><path class="cls-5" d="M155.38,914.29h.05a3.1,3.1,0,0,1,1.09-1.1,3.17,3.17,0,0,1,1.57-.37,3.1,3.1,0,0,1,1.27.26,2.84,2.84,0,0,1,1,.7,3.11,3.11,0,0,1,.63,1.06,3.81,3.81,0,0,1,.22,1.34v5.87H158.8v-5.52a1.73,1.73,0,0,0-.4-1.19,1.46,1.46,0,0,0-1.15-.45,1.7,1.7,0,0,0-1.31.57,2.16,2.16,0,0,0-.51,1.49v5.1h-2.38v-9h2.33Z"/><path class="cls-5" d="M166.82,922.31a4.73,4.73,0,0,1-1.92-.37,4.33,4.33,0,0,1-1.44-1,4.54,4.54,0,0,1-.92-1.51,5.68,5.68,0,0,1,0-3.73,4.35,4.35,0,0,1,.9-1.5,4.23,4.23,0,0,1,1.41-1,4.61,4.61,0,0,1,1.86-.37,4.79,4.79,0,0,1,1.57.25,4,4,0,0,1,1.22.67,3.56,3.56,0,0,1,.84,1,4.34,4.34,0,0,1,.44,1.33h-2.32a1.88,1.88,0,0,0-.55-1,1.57,1.57,0,0,0-1.1-.39,1.88,1.88,0,0,0-1.63.76,3.54,3.54,0,0,0-.54,2.08,3.6,3.6,0,0,0,.52,2,1.79,1.79,0,0,0,1.62.78A1.85,1.85,0,0,0,168,920a1.76,1.76,0,0,0,.6-1.15h2.29a3.57,3.57,0,0,1-1.18,2.42,3.82,3.82,0,0,1-1.24.74A4.63,4.63,0,0,1,166.82,922.31Z"/><path class="cls-5" d="M176.15,922.31a4.72,4.72,0,0,1-1.91-.37,4.5,4.5,0,0,1-1.48-1,4.64,4.64,0,0,1-1-1.51,5.29,5.29,0,0,1,0-3.73,4.47,4.47,0,0,1,2.44-2.51,4.89,4.89,0,0,1,1.91-.37,4.84,4.84,0,0,1,1.9.37,4.42,4.42,0,0,1,1.48,1,4.36,4.36,0,0,1,1,1.5,5.29,5.29,0,0,1,0,3.73,4.5,4.5,0,0,1-1,1.51,4.4,4.4,0,0,1-1.48,1A4.67,4.67,0,0,1,176.15,922.31Zm0-1.82a2,2,0,0,0,1.69-.81,3.49,3.49,0,0,0,.58-2.11,3.56,3.56,0,0,0-.58-2.13,2.17,2.17,0,0,0-3.38,0,3.56,3.56,0,0,0-.59,2.13,3.49,3.49,0,0,0,.59,2.11A2,2,0,0,0,176.15,920.49Z"/><path class="cls-5" d="M184.27,914.29h0a2.87,2.87,0,0,1,2.66-1.47,3.07,3.07,0,0,1,1.27.26,2.84,2.84,0,0,1,1,.7,3.11,3.11,0,0,1,.63,1.06,3.8,3.8,0,0,1,.23,1.34v5.87H187.7v-5.52a1.74,1.74,0,0,0-.41-1.19,1.45,1.45,0,0,0-1.15-.45,1.68,1.68,0,0,0-1.3.57,2.12,2.12,0,0,0-.52,1.49v5.1h-2.38v-9h2.33Z"/><path class="cls-5" d="M190.85,913.07h1.24v-2.8h2.33v2.8H196v1.57h-1.54v4.76a.84.84,0,0,0,.24.7,1,1,0,0,0,.65.2h.45l.25,0V922l-.39,0h-1.1a4.12,4.12,0,0,1-.86-.09,2.29,2.29,0,0,1-.78-.34,1.78,1.78,0,0,1-.57-.67,2.21,2.21,0,0,1-.22-1.05v-5.27h-1.24Z"/><path class="cls-5" d="M199.47,914.5h.06a3.31,3.31,0,0,1,.91-1.15,2.06,2.06,0,0,1,1.29-.39,1.91,1.91,0,0,1,.56.07v2.09h0a2.5,2.5,0,0,0-1.93.5,2.55,2.55,0,0,0-.75,2v4.38h-2.38v-9h2.29Z"/><path class="cls-5" d="M207.28,922.31a5,5,0,0,1-2-.37,4.09,4.09,0,0,1-2.36-2.52,5.73,5.73,0,0,1-.31-1.87,5.12,5.12,0,0,1,.33-1.86,4.46,4.46,0,0,1,6-2.47,3.73,3.73,0,0,1,1.38,1.11,5.08,5.08,0,0,1,.85,1.71,7.9,7.9,0,0,1,.29,2.19H205a2.85,2.85,0,0,0,.71,1.65,2.1,2.1,0,0,0,1.58.59,1.88,1.88,0,0,0,1.12-.3,1.59,1.59,0,0,0,.61-.8h2.35a3.43,3.43,0,0,1-.45,1.13,3.22,3.22,0,0,1-.84.93,3.88,3.88,0,0,1-1.21.64A4.82,4.82,0,0,1,207.28,922.31Zm-.19-7.65a1.88,1.88,0,0,0-1.44.52,2.73,2.73,0,0,0-.65,1.41h4a2.09,2.09,0,0,0-.56-1.39A1.79,1.79,0,0,0,207.09,914.66Z"/><path class="cls-5" d="M216.22,922.31a4.66,4.66,0,0,1-3-.87,3.09,3.09,0,0,1-1.18-2.3h2.21a1.57,1.57,0,0,0,.64,1.14,2.31,2.31,0,0,0,1.32.35,2.17,2.17,0,0,0,1.21-.28.86.86,0,0,0,.43-.75.66.66,0,0,0-.2-.51,1.64,1.64,0,0,0-.52-.32,4.39,4.39,0,0,0-.76-.2l-.88-.16-1.18-.28a3.65,3.65,0,0,1-1-.46,2.28,2.28,0,0,1-.71-.77,2.41,2.41,0,0,1-.27-1.21,2.61,2.61,0,0,1,.28-1.26,2.47,2.47,0,0,1,.77-.9,3.58,3.58,0,0,1,1.17-.53,5.44,5.44,0,0,1,1.43-.18,4.16,4.16,0,0,1,2.75.81,3.12,3.12,0,0,1,1.1,2.17h-2.15a1.33,1.33,0,0,0-.52-1,2.65,2.65,0,0,0-2.33,0,.82.82,0,0,0-.42.74.57.57,0,0,0,.21.47,1.88,1.88,0,0,0,.55.28,4.88,4.88,0,0,0,.79.18l.91.18c.38.08.75.17,1.13.28a3.56,3.56,0,0,1,1,.46,2.34,2.34,0,0,1,.73.8,2.62,2.62,0,0,1,.28,1.29,2.53,2.53,0,0,1-1.06,2.12,4,4,0,0,1-1.19.57A5.61,5.61,0,0,1,216.22,922.31Z"/><path class="cls-5" d="M228.17,922.31a4.65,4.65,0,0,1-1.91-.37,4.27,4.27,0,0,1-1.45-1,4.52,4.52,0,0,1-.91-1.51,5.2,5.2,0,0,1-.33-1.86,5.44,5.44,0,0,1,.32-1.87,4.35,4.35,0,0,1,.9-1.5,4.23,4.23,0,0,1,1.41-1,4.56,4.56,0,0,1,1.85-.37,4.89,4.89,0,0,1,1.58.25,3.94,3.94,0,0,1,1.21.67,3.27,3.27,0,0,1,.84,1,4.1,4.1,0,0,1,.45,1.33H229.8a1.81,1.81,0,0,0-.55-1,1.57,1.57,0,0,0-1.09-.39,1.86,1.86,0,0,0-1.63.76,3.54,3.54,0,0,0-.54,2.08,3.68,3.68,0,0,0,.51,2,1.82,1.82,0,0,0,1.62.78,1.9,1.9,0,0,0,1.21-.37,1.8,1.8,0,0,0,.59-1.15h2.3A3.57,3.57,0,0,1,231,921.3a3.87,3.87,0,0,1-1.25.74A4.59,4.59,0,0,1,228.17,922.31Z"/><path class="cls-5" d="M233.25,909.53h2.38v2.14h-2.38Zm0,3.54h2.38v9h-2.38Z"/><path class="cls-5" d="M239.5,914.29h.05a2.87,2.87,0,0,1,2.66-1.47,3.07,3.07,0,0,1,1.27.26,2.84,2.84,0,0,1,1,.7,3.11,3.11,0,0,1,.63,1.06,3.8,3.8,0,0,1,.23,1.34v5.87h-2.38v-5.52a1.74,1.74,0,0,0-.41-1.19,1.45,1.45,0,0,0-1.15-.45,1.66,1.66,0,0,0-1.3.57,2.12,2.12,0,0,0-.52,1.49v5.1h-2.38v-9h2.33Z"/><path class="cls-5" d="M251,922.31a5,5,0,0,1-2-.37,4.09,4.09,0,0,1-2.36-2.52,5.48,5.48,0,0,1-.31-1.87,5.34,5.34,0,0,1,.32-1.86,4.53,4.53,0,0,1,.91-1.5,4.29,4.29,0,0,1,3.2-1.37,4.36,4.36,0,0,1,1.9.4,3.85,3.85,0,0,1,1.39,1.11,5.27,5.27,0,0,1,.85,1.71,7.91,7.91,0,0,1,.28,2.19h-6.51a2.92,2.92,0,0,0,.71,1.65,2.12,2.12,0,0,0,1.59.59,1.9,1.9,0,0,0,1.12-.3,1.64,1.64,0,0,0,.61-.8h2.34a3.64,3.64,0,0,1-.44,1.13,3.53,3.53,0,0,1-.84.93,3.93,3.93,0,0,1-1.22.64A4.77,4.77,0,0,1,251,922.31Zm-.19-7.65a1.84,1.84,0,0,0-1.43.52,2.58,2.58,0,0,0-.65,1.41h4a2.15,2.15,0,0,0-.57-1.39A1.76,1.76,0,0,0,250.8,914.66Zm.88-2.71h-1.86l1-2.47h2.79Z"/><path class="cls-5" d="M256.3,913.07h2.29v1.21h.05a3.26,3.26,0,0,1,1-1,2.85,2.85,0,0,1,1.59-.42,2.66,2.66,0,0,1,2.48,1.58h0a3.45,3.45,0,0,1,1.15-1.16,2.9,2.9,0,0,1,1.54-.42,2.82,2.82,0,0,1,2.19.85,3.34,3.34,0,0,1,.77,2.34v6H267v-5.64a1.62,1.62,0,0,0-.36-1.15,1.32,1.32,0,0,0-1-.39,1.44,1.44,0,0,0-1.18.53,2.22,2.22,0,0,0-.43,1.43v5.22h-2.38v-5.64a1.62,1.62,0,0,0-.36-1.15,1.32,1.32,0,0,0-1-.39,1.44,1.44,0,0,0-1.17.53,2.16,2.16,0,0,0-.44,1.43v5.22H256.3Z"/><path class="cls-5" d="M276.54,922.05a1.4,1.4,0,0,1-.17-.42,5.4,5.4,0,0,1-.11-.58h0a4.54,4.54,0,0,1-.39.48,2.31,2.31,0,0,1-.53.38,3.11,3.11,0,0,1-.73.25,4.72,4.72,0,0,1-1,.1,3.54,3.54,0,0,1-2.26-.7,2.49,2.49,0,0,1-.88-2,2.61,2.61,0,0,1,.28-1.24,2.48,2.48,0,0,1,.77-.84,3.91,3.91,0,0,1,1.15-.52,11.32,11.32,0,0,1,1.41-.29,9.2,9.2,0,0,0,1.64-.33.68.68,0,0,0,.53-.68.93.93,0,0,0-.38-.78,1.78,1.78,0,0,0-1.13-.29,2.11,2.11,0,0,0-1.26.31,1.24,1.24,0,0,0-.47.95h-2.11a2.75,2.75,0,0,1,.26-1.13,2.69,2.69,0,0,1,.71-.94,3.65,3.65,0,0,1,1.19-.64,5.12,5.12,0,0,1,1.7-.25,4,4,0,0,1,2.9.87,3.26,3.26,0,0,1,.88,2.44v4.57c0,.67.11,1.09.32,1.24v.09Zm-2.37-1.46a2.83,2.83,0,0,0,.9-.14,2.14,2.14,0,0,0,.66-.39,1.62,1.62,0,0,0,.41-.54,1.45,1.45,0,0,0,.14-.64v-1.35a2.8,2.8,0,0,1-.76.31l-.9.22a4.62,4.62,0,0,0-1.4.49,1,1,0,0,0-.46.91,1,1,0,0,0,.39.88A1.81,1.81,0,0,0,274.17,920.59Z"/><path class="cls-5" d="M279.33,913.07h1.24v-2.8h2.33v2.8h1.54v1.57H282.9v4.76a.84.84,0,0,0,.24.7,1,1,0,0,0,.65.2h.45l.25,0V922l-.39,0H283a4.12,4.12,0,0,1-.86-.09,2.29,2.29,0,0,1-.78-.34,1.78,1.78,0,0,1-.57-.67,2.21,2.21,0,0,1-.22-1.05v-5.27h-1.24Z"/><path class="cls-5" d="M289.83,922.31a4.72,4.72,0,0,1-1.91-.37,4.5,4.5,0,0,1-1.48-1,4.64,4.64,0,0,1-1-1.51,5.29,5.29,0,0,1,0-3.73,4.47,4.47,0,0,1,2.44-2.51,4.89,4.89,0,0,1,1.91-.37,4.84,4.84,0,0,1,1.9.37,4.42,4.42,0,0,1,1.48,1,4.36,4.36,0,0,1,1,1.5,5.29,5.29,0,0,1,0,3.73,4.5,4.5,0,0,1-1,1.51,4.4,4.4,0,0,1-1.48,1A4.67,4.67,0,0,1,289.83,922.31Zm0-1.82a2,2,0,0,0,1.69-.81,3.49,3.49,0,0,0,.58-2.11,3.56,3.56,0,0,0-.58-2.13,2,2,0,0,0-1.69-.81,2,2,0,0,0-1.69.81,3.56,3.56,0,0,0-.59,2.13,3.49,3.49,0,0,0,.59,2.11A2,2,0,0,0,289.83,920.49Z"/><path class="cls-5" d="M299.57,925.11a5.14,5.14,0,0,1-2.93-.74,2.92,2.92,0,0,1-1.26-2.06h2.36a1.38,1.38,0,0,0,.55.71,2.2,2.2,0,0,0,1.25.29c1.33,0,2-.63,2-1.88v-1h0a3.45,3.45,0,0,1-.94.76,3,3,0,0,1-1.4.29,3.9,3.9,0,0,1-2.72-1.12,4.31,4.31,0,0,1-.9-1.35,4.71,4.71,0,0,1-.34-1.81,5.51,5.51,0,0,1,.29-1.82,4.07,4.07,0,0,1,.81-1.39,3.44,3.44,0,0,1,1.22-.88,4,4,0,0,1,1.57-.31,3.2,3.2,0,0,1,1.46.32,2.86,2.86,0,0,1,1,.87h0v-.94h2.29v8.29a4.07,4.07,0,0,1-.28,1.61,3,3,0,0,1-.79,1.12,3.34,3.34,0,0,1-1.4.77A6.3,6.3,0,0,1,299.57,925.11Zm0-5.51a2.19,2.19,0,0,0,1-.2,1.7,1.7,0,0,0,.66-.52,2.2,2.2,0,0,0,.37-.77,3.21,3.21,0,0,0,.13-1,3.6,3.6,0,0,0-.13-.93,2.22,2.22,0,0,0-.4-.78,1.82,1.82,0,0,0-.66-.53,2.18,2.18,0,0,0-1-.19,1.82,1.82,0,0,0-1.46.66,2.66,2.66,0,0,0-.55,1.79,2.63,2.63,0,0,0,.55,1.79A1.87,1.87,0,0,0,299.54,919.6Z"/><path class="cls-5" d="M307.71,914.5h.05a3.56,3.56,0,0,1,.91-1.15A2.07,2.07,0,0,1,310,913a2,2,0,0,1,.56.07v2.09h0a2.49,2.49,0,0,0-1.93.5,2.55,2.55,0,0,0-.75,2v4.38h-2.38v-9h2.29Z"/><path class="cls-5" d="M317,922.05a1.18,1.18,0,0,1-.17-.42,5.4,5.4,0,0,1-.11-.58h0a3.64,3.64,0,0,1-.4.48,2.05,2.05,0,0,1-.52.38,3.28,3.28,0,0,1-.73.25,4.75,4.75,0,0,1-1,.1,3.52,3.52,0,0,1-2.25-.7,2.46,2.46,0,0,1-.88-2,2.61,2.61,0,0,1,.28-1.24,2.38,2.38,0,0,1,.77-.84,3.91,3.91,0,0,1,1.15-.52,11,11,0,0,1,1.41-.29,9.4,9.4,0,0,0,1.64-.33.68.68,0,0,0,.53-.68.93.93,0,0,0-.38-.78,1.8,1.8,0,0,0-1.13-.29,2.09,2.09,0,0,0-1.26.31,1.2,1.2,0,0,0-.47.95h-2.12a2.92,2.92,0,0,1,.26-1.13,2.85,2.85,0,0,1,.72-.94,3.55,3.55,0,0,1,1.19-.64,5.12,5.12,0,0,1,1.7-.25,4,4,0,0,1,2.9.87,3.3,3.3,0,0,1,.88,2.44v4.57c0,.67.1,1.09.31,1.24v.09Zm-2.38-1.46a2.74,2.74,0,0,0,.9-.14,2.08,2.08,0,0,0,.67-.39,1.55,1.55,0,0,0,.55-1.18v-1.35a2.8,2.8,0,0,1-.76.31l-.9.22a4.62,4.62,0,0,0-1.4.49,1.16,1.16,0,0,0-.07,1.79A1.78,1.78,0,0,0,314.57,920.59Z"/><path class="cls-5" d="M320.43,913.07h2.3v1.12h0a3.49,3.49,0,0,1,1.08-1,2.91,2.91,0,0,1,1.56-.39,3.66,3.66,0,0,1,1.61.35,3.9,3.9,0,0,1,1.24,1,4.45,4.45,0,0,1,.78,1.5,6.52,6.52,0,0,1,.28,1.93,6.42,6.42,0,0,1-.29,2,4.33,4.33,0,0,1-.79,1.49,3.58,3.58,0,0,1-1.24,1,3.68,3.68,0,0,1-1.57.33,3.23,3.23,0,0,1-1.57-.35,2.85,2.85,0,0,1-1-.93h0v4h-2.39Zm4.5,7.26a1.71,1.71,0,0,0,1.45-.71,3.26,3.26,0,0,0,.53-2,4.07,4.07,0,0,0-.48-2.09,1.71,1.71,0,0,0-1.59-.8,1.78,1.78,0,0,0-.95.23,1.89,1.89,0,0,0-.65.61,2.53,2.53,0,0,0-.36.92,5.09,5.09,0,0,0-.12,1.13,3.25,3.25,0,0,0,.55,2A1.9,1.9,0,0,0,324.93,920.33Z"/><path class="cls-5" d="M332.81,914.24h.05a3.65,3.65,0,0,1,1.08-1.07,3,3,0,0,1,1.53-.35,3.1,3.1,0,0,1,1.27.26,2.84,2.84,0,0,1,1,.7,3.11,3.11,0,0,1,.63,1.06,3.81,3.81,0,0,1,.22,1.34v5.87h-2.38v-5.52a1.73,1.73,0,0,0-.4-1.19,1.46,1.46,0,0,0-1.15-.45,1.7,1.7,0,0,0-1.31.57,2.16,2.16,0,0,0-.51,1.49v5.1h-2.38V909.53h2.38Z"/><path class="cls-5" d="M340,909.53h2.39v2.14H340Zm0,3.54h2.39v9H340Z"/><path class="cls-5" d="M350,921h0a2.7,2.7,0,0,1-.93.91,2.85,2.85,0,0,1-1.52.37A3.56,3.56,0,0,1,346,922a3.64,3.64,0,0,1-1.23-1,4.57,4.57,0,0,1-.83-1.49,6.42,6.42,0,0,1-.29-2,6.52,6.52,0,0,1,.27-1.93,4.45,4.45,0,0,1,.78-1.5,3.62,3.62,0,0,1,1.22-1,3.69,3.69,0,0,1,1.61-.35,2.87,2.87,0,0,1,1.52.36,3,3,0,0,1,1,1h.05v-1.12h2.3V925H350Zm-2-.75a1.78,1.78,0,0,0,1.49-.71,3.12,3.12,0,0,0,.54-1.93,6,6,0,0,0-.11-1.15,3,3,0,0,0-.36-.93,1.93,1.93,0,0,0-.62-.62,1.79,1.79,0,0,0-.92-.23,1.89,1.89,0,0,0-.94.22,1.78,1.78,0,0,0-.61.61,2.63,2.63,0,0,0-.34.92,6.31,6.31,0,0,0-.11,1.18,3.18,3.18,0,0,0,.52,2A1.73,1.73,0,0,0,348.05,920.28Z"/><path class="cls-5" d="M359.62,922.05v-1h-.06a3.58,3.58,0,0,1-1,1,3.54,3.54,0,0,1-3.84-.53,3.37,3.37,0,0,1-.8-2.37v-6h2.36v5.58a1.8,1.8,0,0,0,.36,1.21,1.4,1.4,0,0,0,1.13.42,1.63,1.63,0,0,0,1.32-.57,2.19,2.19,0,0,0,.48-1.46v-5.18h2.38v9Z"/><path class="cls-5" d="M367.67,922.31a5,5,0,0,1-2-.37,4.22,4.22,0,0,1-1.46-1,4.15,4.15,0,0,1-.9-1.52,5.48,5.48,0,0,1-.31-1.87,5.12,5.12,0,0,1,.33-1.86,4.23,4.23,0,0,1,.91-1.5,4.31,4.31,0,0,1,1.4-1,4.37,4.37,0,0,1,1.79-.37,4.43,4.43,0,0,1,1.91.4,3.73,3.73,0,0,1,1.38,1.11,5.08,5.08,0,0,1,.85,1.71,7.9,7.9,0,0,1,.29,2.19h-6.51a2.85,2.85,0,0,0,.71,1.65,2.1,2.1,0,0,0,1.58.59,1.88,1.88,0,0,0,1.12-.3,1.64,1.64,0,0,0,.61-.8h2.35a3.43,3.43,0,0,1-.45,1.13,3.37,3.37,0,0,1-.84.93,3.82,3.82,0,0,1-1.22.64A4.71,4.71,0,0,1,367.67,922.31Zm-.2-7.65a1.86,1.86,0,0,0-1.43.52,2.65,2.65,0,0,0-.65,1.41h4a2.05,2.05,0,0,0-.57-1.39A1.76,1.76,0,0,0,367.47,914.66Z"/><path class="cls-5" d="M376.61,922.31a4.67,4.67,0,0,1-3-.87,3.11,3.11,0,0,1-1.17-2.3h2.2a1.64,1.64,0,0,0,.64,1.14,2.36,2.36,0,0,0,1.32.35,2.2,2.2,0,0,0,1.22-.28.86.86,0,0,0,.43-.75.69.69,0,0,0-.2-.51,1.7,1.7,0,0,0-.53-.32,4,4,0,0,0-.75-.2l-.88-.16c-.41-.09-.81-.18-1.18-.28a3.65,3.65,0,0,1-1-.46,2.22,2.22,0,0,1-.72-.77,2.41,2.41,0,0,1-.27-1.21,2.53,2.53,0,0,1,1.06-2.16,3.53,3.53,0,0,1,1.16-.53,5.57,5.57,0,0,1,1.44-.18,4.18,4.18,0,0,1,2.75.81,3.12,3.12,0,0,1,1.1,2.17H378a1.34,1.34,0,0,0-.53-1,2.1,2.1,0,0,0-1.21-.29,2.16,2.16,0,0,0-1.12.25.82.82,0,0,0-.42.74.57.57,0,0,0,.21.47,2,2,0,0,0,.56.28,4.74,4.74,0,0,0,.78.18l.92.18c.37.08.75.17,1.13.28a3.39,3.39,0,0,1,1,.46,2.37,2.37,0,0,1,.74.8,2.62,2.62,0,0,1,.28,1.29,2.55,2.55,0,0,1-.28,1.22,2.79,2.79,0,0,1-.78.9,4,4,0,0,1-1.19.57A5.61,5.61,0,0,1,376.61,922.31Z"/><path class="cls-5" d="M131.7,133.42h9.49V136H134.8v2.24h5.47v2.41H134.8v2.68h6.49v2.62H131.7Z"/><path class="cls-5" d="M147.87,146.23a8.94,8.94,0,0,1-2.27-.27,5.32,5.32,0,0,1-1.75-.8,3.81,3.81,0,0,1-1.13-1.33,4,4,0,0,1-.43-1.83h3.11a1.78,1.78,0,0,0,.72,1.36,3.05,3.05,0,0,0,1.73.42,3.67,3.67,0,0,0,.75-.07,1.75,1.75,0,0,0,.63-.23,1.3,1.3,0,0,0,.46-.41,1,1,0,0,0,.17-.6,1,1,0,0,0-.18-.61,1.34,1.34,0,0,0-.53-.42,4.47,4.47,0,0,0-.86-.31l-1.15-.29c-.55-.13-1.09-.27-1.62-.44a5.22,5.22,0,0,1-1.43-.66,3.36,3.36,0,0,1-1-1.07,3,3,0,0,1-.4-1.63,3.58,3.58,0,0,1,.39-1.72,3.36,3.36,0,0,1,1.05-1.2,4.7,4.7,0,0,1,1.57-.7,8.16,8.16,0,0,1,2-.23,7.22,7.22,0,0,1,1.9.24,4.64,4.64,0,0,1,1.54.71,3.38,3.38,0,0,1,1,1.2,4.06,4.06,0,0,1,.45,1.7h-3a1.55,1.55,0,0,0-.61-1.12,2.8,2.8,0,0,0-2.71-.06,1,1,0,0,0-.5.85.83.83,0,0,0,.19.55,1.48,1.48,0,0,0,.53.38,6.22,6.22,0,0,0,.89.29l1.23.29c.58.14,1.14.29,1.67.47a5.16,5.16,0,0,1,1.41.7,3.23,3.23,0,0,1,1,1.1,3.48,3.48,0,0,1,.37,1.66,3.64,3.64,0,0,1-1.48,3,4.85,4.85,0,0,1-1.63.79A7.25,7.25,0,0,1,147.87,146.23Z"/><path class="cls-5" d="M157.18,136.05h-3.64v-2.63H164v2.63h-3.67v9.88h-3.1Z"/><path class="cls-5" d="M165.39,133.42h3.09v4.75h4.4v-4.75H176v12.51h-3.1v-5.21h-4.4v5.21h-3.09Z"/><path class="cls-5" d="M178,133.42h9.48V136h-6.38v2.24h5.47v2.41h-5.47v2.68h6.49v2.62H178Z"/><path class="cls-5" d="M189.24,133.42h6a6.08,6.08,0,0,1,1.73.24,4.31,4.31,0,0,1,1.39.69,3.17,3.17,0,0,1,.92,1.13,3.47,3.47,0,0,1,.33,1.55,2.95,2.95,0,0,1-2.17,3v.06a2.6,2.6,0,0,1,1.25.81,3,3,0,0,1,.57,1.48,10.22,10.22,0,0,1,.13,1.2q0,.59.06,1.05a5.9,5.9,0,0,0,.11.77c0,.2.12.32.22.36v.15h-3c-.09,0-.15-.16-.19-.35s-.07-.43-.1-.7-.06-.58-.08-.9-.06-.64-.11-.95a2.17,2.17,0,0,0-.6-1.33,2.11,2.11,0,0,0-1.48-.46h-1.87v4.69h-3.1Zm5.42,5.53a2.09,2.09,0,0,0,1.4-.4,1.43,1.43,0,0,0,.46-1.12,1.48,1.48,0,0,0-.45-1.12,1.83,1.83,0,0,0-1.34-.44h-2.39V139Z"/><path class="cls-5" d="M204,133.42h9.48V136h-6.39v2.24h5.48v2.41h-5.48v2.68h6.49v2.62H204Z"/><path class="cls-5" d="M218.32,136.05h-3.63v-2.63H225.1v2.63h-3.68v9.88h-3.1Z"/><path class="cls-5" d="M234.23,146.23A8.81,8.81,0,0,1,232,146a5.14,5.14,0,0,1-1.75-.8,3.74,3.74,0,0,1-1.14-1.33,4,4,0,0,1-.43-1.83h3.12a1.74,1.74,0,0,0,.71,1.36,3.05,3.05,0,0,0,1.73.42,3.67,3.67,0,0,0,.75-.07,1.88,1.88,0,0,0,.64-.23,1.27,1.27,0,0,0,.45-.41,1,1,0,0,0,.18-.6.93.93,0,0,0-.19-.61,1.34,1.34,0,0,0-.53-.42,4.24,4.24,0,0,0-.86-.31l-1.15-.29c-.55-.13-1.09-.27-1.62-.44a5.36,5.36,0,0,1-1.43-.66,3.36,3.36,0,0,1-1-1.07A3.1,3.1,0,0,1,229,137a3.42,3.42,0,0,1,1.44-2.92,4.7,4.7,0,0,1,1.57-.7,8.23,8.23,0,0,1,2-.23,7.22,7.22,0,0,1,1.9.24,4.55,4.55,0,0,1,1.54.71,3.38,3.38,0,0,1,1.05,1.2,3.92,3.92,0,0,1,.45,1.7h-3a1.55,1.55,0,0,0-.61-1.12,2.8,2.8,0,0,0-2.71-.06,1,1,0,0,0-.49.85.83.83,0,0,0,.18.55,1.48,1.48,0,0,0,.53.38,6.22,6.22,0,0,0,.89.29l1.23.29c.59.14,1.14.29,1.67.47a5.16,5.16,0,0,1,1.41.7,3.23,3.23,0,0,1,1,1.1,3.37,3.37,0,0,1,.37,1.66,3.57,3.57,0,0,1-1.48,3,4.85,4.85,0,0,1-1.63.79A7.2,7.2,0,0,1,234.23,146.23Z"/><path class="cls-5" d="M240.9,133.42h9.49V136H244v2.24h5.48v2.41H244v2.68h6.49v2.62H240.9Z"/><path class="cls-5" d="M252.17,133.42h3.1v9.89h5.61v2.62h-8.71Z"/><path class="cls-5" d="M262.34,133.42h4.16L268,138.9q.09.3.21.78c.07.32.15.63.23.93s.19.75.28,1.14h0c.08-.39.17-.77.26-1.14s.15-.61.23-.93.15-.58.21-.78l1.54-5.48h4.2v12.51h-2.84V139c0-.27,0-.55,0-.83s0-.68,0-1.07h0c-.09.36-.17.7-.25,1s-.11.53-.18.78-.11.43-.15.55l-1.8,6.47h-2.55l-1.79-6.45c0-.12-.09-.31-.16-.56s-.13-.52-.19-.79-.15-.64-.23-1h0c0,.39,0,.74,0,1.07s0,.56,0,.84,0,.48,0,.61v6.28h-2.78Z"/><path class="cls-5" d="M280.84,133.42H284l4.51,12.51h-3.25l-.73-2.25h-4.38l-.72,2.25h-3.11Zm3,8-.95-3c-.06-.17-.11-.35-.17-.55s-.11-.39-.16-.57-.11-.43-.16-.65h0l-.18.65c-.06.18-.11.38-.16.57s-.11.38-.17.55l-1,3Z"/><path class="cls-5" d="M1660.72,917.84a3.44,3.44,0,0,1-1.63-.39,2.86,2.86,0,0,1-1.16-1.1,3.13,3.13,0,0,1-.42-1.62v-1.51a4.27,4.27,0,0,1,.45-2,3.22,3.22,0,0,1,1.27-1.34,3.68,3.68,0,0,1,1.89-.47h.46a2.44,2.44,0,0,1,1.5.47,3,3,0,0,1,1,1.34,5.37,5.37,0,0,1,.34,2v1.07a3.82,3.82,0,0,1-.82,2.58,2.71,2.71,0,0,1-2.2,1Zm-1.88-10.24a.51.51,0,0,1-.49-.49v-1.37a.39.39,0,0,1,.15-.32.51.51,0,0,1,.34-.14h1.45a.46.46,0,0,1,.34.14.41.41,0,0,1,.13.32v1.37a.5.5,0,0,1-.13.34.43.43,0,0,1-.34.15Zm2.93,7.75a1.18,1.18,0,0,0,1-.38,1.49,1.49,0,0,0,.33-1v-.74a1.23,1.23,0,0,0-.37-1,1.3,1.3,0,0,0-.92-.35h-.5a1.29,1.29,0,0,0-.9.36,1.21,1.21,0,0,0-.39,1v.72a1.52,1.52,0,0,0,.33,1.05,1.18,1.18,0,0,0,1,.37Zm.42-7.75a.53.53,0,0,1-.52-.49v-1.37a.4.4,0,0,1,.16-.32.52.52,0,0,1,.36-.14h1.42a.44.44,0,0,1,.34.14.42.42,0,0,1,.14.32v1.37a.51.51,0,0,1-.14.34.42.42,0,0,1-.34.15Zm4.14,10.83a3.08,3.08,0,0,1-2.38-1,3.7,3.7,0,0,1-.89-2.59v-5.53a.69.69,0,0,1,.21-.5.7.7,0,0,1,.49-.2h1.09a.7.7,0,0,1,.49.2.69.69,0,0,1,.21.5v5.53a1,1,0,0,0,.31.8,1.31,1.31,0,0,0,.85.26h.44a.49.49,0,0,1,.36.15.53.53,0,0,1,.15.37v1.48a.51.51,0,0,1-.51.51Z"/><path class="cls-5" d="M1667.15,918.43a.49.49,0,0,1-.36-.15.52.52,0,0,1-.14-.36v-1.47a.56.56,0,0,1,.14-.36.49.49,0,0,1,.36-.15h2.16a1.44,1.44,0,0,0,1-.32,1.33,1.33,0,0,0,.34-1V910.3a.72.72,0,0,1,.2-.5.66.66,0,0,1,.49-.2h1.1a.7.7,0,0,1,.68.7v4.29a4.07,4.07,0,0,1-.9,2.86,3.88,3.88,0,0,1-3,1Zm1.93,3.57a.51.51,0,0,1-.49-.49v-1.37a.41.41,0,0,1,.15-.32.51.51,0,0,1,.34-.14h1.45a.47.47,0,0,1,.33.14.4.4,0,0,1,.14.32v1.37a.47.47,0,0,1-.14.34.44.44,0,0,1-.33.15Zm5.59-3.57a3.12,3.12,0,0,1-2-.56,2.88,2.88,0,0,1-1-1.46,6.53,6.53,0,0,1-.29-2.06h1.69a1.57,1.57,0,0,0,.45,1.15,1.52,1.52,0,0,0,1.11.44h.66a.53.53,0,0,1,.37.15.53.53,0,0,1,.15.36v1.47a.49.49,0,0,1-.15.36.53.53,0,0,1-.37.15Zm-2.26,3.57a.46.46,0,0,1-.34-.15.49.49,0,0,1-.16-.34v-1.37a.42.42,0,0,1,.16-.32.49.49,0,0,1,.34-.14h1.44a.44.44,0,0,1,.34.14.43.43,0,0,1,.14.32v1.37a.51.51,0,0,1-.14.34.42.42,0,0,1-.34.15Z"/><path class="cls-5" d="M1675.35,918.43a.47.47,0,0,1-.35-.15.52.52,0,0,1-.14-.36v-1.47a.56.56,0,0,1,.14-.36.47.47,0,0,1,.35-.15h1.11a1.42,1.42,0,0,0,1-.32,1.37,1.37,0,0,0,.34-1V910.3a.68.68,0,0,1,.2-.5.72.72,0,0,1,.5-.2h1.08a.68.68,0,0,1,.7.7v4.29a4.07,4.07,0,0,1-.9,2.86,3.85,3.85,0,0,1-3,1Zm2-10.09a.34.34,0,0,1-.36-.36v-.55a.36.36,0,0,1,.36-.36h3.57a.37.37,0,0,1,.27.12.33.33,0,0,1,.11.24V908a.36.36,0,0,1-.1.25.38.38,0,0,1-.28.11Zm2.17-.28a1.86,1.86,0,0,1-1.35-.48,1.48,1.48,0,0,1-.5-1.08V906a1.84,1.84,0,0,1,1.87-1.87h.19a1.84,1.84,0,0,1,.75.16,1.88,1.88,0,0,1,.61.39.34.34,0,0,1,0,.52l-.32.36a.57.57,0,0,1-.28.14.34.34,0,0,1-.29-.1.69.69,0,0,0-.49-.19h-.19a.58.58,0,0,0-.59.59v.41a.76.76,0,0,0,.15.48.52.52,0,0,0,.42.19Z"/><path class="cls-5" d="M1683.6,907.39a.66.66,0,0,1-.48-.21.64.64,0,0,1-.2-.47v-1.1a.68.68,0,0,1,.2-.5.66.66,0,0,1,.48-.21h2.26a.68.68,0,0,1,.49.22.7.7,0,0,1,.21.5v1.09a.66.66,0,0,1-.21.47.67.67,0,0,1-.49.21Zm3.78,11a3.07,3.07,0,0,1-2.39-1,3.65,3.65,0,0,1-.9-2.6v-9.25a.72.72,0,0,1,.2-.5.67.67,0,0,1,.49-.21h1.1a.67.67,0,0,1,.49.21.69.69,0,0,1,.21.5v9.27a1,1,0,0,0,.31.8,1.31,1.31,0,0,0,.87.26h.51a.46.46,0,0,1,.34.15.5.5,0,0,1,.16.36v1.47a.53.53,0,0,1-.5.51Z"/><path class="cls-5" d="M1694.51,918.79l-3.23-1.33,1.08-2,2.15.87a1.23,1.23,0,0,0,.9-.38,1.35,1.35,0,0,0,.39-1v-1.77a1.18,1.18,0,0,0-.37-.88,1.26,1.26,0,0,0-.91-.36h-.6a1.24,1.24,0,0,0-.9.37,1.17,1.17,0,0,0-.38.87v1.8a3.68,3.68,0,0,1-.4,1.68,3.2,3.2,0,0,1-1.2,1.31,3.63,3.63,0,0,1-2,.51h-.8a.47.47,0,0,1-.35-.15.52.52,0,0,1-.14-.36v-1.47a.56.56,0,0,1,.14-.36.47.47,0,0,1,.35-.15h.78a1.22,1.22,0,0,0,.85-.23,1,1,0,0,0,.25-.78v-1.78a3.67,3.67,0,0,1,1-2.75,3.83,3.83,0,0,1,2.78-1h.56a3.86,3.86,0,0,1,2.74,1,3.58,3.58,0,0,1,1,2.78v1.73a4.2,4.2,0,0,1-.51,2.11,3.35,3.35,0,0,1-1.35,1.34A4,4,0,0,1,1694.51,918.79Zm5.47-.36a3.7,3.7,0,0,1-1.91-.43,2.46,2.46,0,0,1-1.07-1.32,6.82,6.82,0,0,1-.33-2.33h1.62a1.56,1.56,0,0,0,.42,1.18,1.75,1.75,0,0,0,1.27.41.47.47,0,0,1,.35.15.56.56,0,0,1,.14.36v1.47a.52.52,0,0,1-.14.36A.47.47,0,0,1,1700,918.43Z"/><path class="cls-5" d="M1700,918.43a.45.45,0,0,1-.35-.15.49.49,0,0,1-.15-.36v-1.47a.53.53,0,0,1,.15-.36.45.45,0,0,1,.35-.15h1.1a1.47,1.47,0,0,0,1-.32,1.36,1.36,0,0,0,.33-1V910.3a.69.69,0,0,1,.21-.5.7.7,0,0,1,.49-.2h1.08a.72.72,0,0,1,.5.2.69.69,0,0,1,.21.5v4.29a4,4,0,0,1-.91,2.86,3.85,3.85,0,0,1-3,1Zm3-10.09a.47.47,0,0,1-.37-.15.49.49,0,0,1-.15-.36v-1.41a.44.44,0,0,1,.15-.33.5.5,0,0,1,.37-.14h1.48a.49.49,0,0,1,.36.14.46.46,0,0,1,.13.33v1.41a.52.52,0,0,1-.13.36.46.46,0,0,1-.36.15Zm3.44,10.09a3.13,3.13,0,0,1-2-.56,2.9,2.9,0,0,1-1-1.46,7.19,7.19,0,0,1-.27-2.06h1.69a1.59,1.59,0,0,0,.43,1.15,1.52,1.52,0,0,0,1.11.44h.68a.46.46,0,0,1,.34.15.53.53,0,0,1,.15.36v1.47a.49.49,0,0,1-.15.36.46.46,0,0,1-.34.15Z"/><path class="cls-5" d="M1707.14,918.43a.45.45,0,0,1-.35-.15.48.48,0,0,1-.14-.36v-1.47a.51.51,0,0,1,.14-.36.45.45,0,0,1,.35-.15h2.17a1.41,1.41,0,0,0,1-.32,1.33,1.33,0,0,0,.34-1V910.3a.72.72,0,0,1,.2-.5.7.7,0,0,1,.49-.2h1.1a.7.7,0,0,1,.69.7v4.29a4.07,4.07,0,0,1-.91,2.86,3.85,3.85,0,0,1-3,1Zm1.94,3.57a.46.46,0,0,1-.34-.15.45.45,0,0,1-.16-.34v-1.37a.39.39,0,0,1,.16-.32.49.49,0,0,1,.34-.14h1.44a.45.45,0,0,1,.33.14.41.41,0,0,1,.15.32v1.37a.48.48,0,0,1-.15.34.43.43,0,0,1-.33.15Zm5.58-3.57a3.07,3.07,0,0,1-1.94-.56,2.9,2.9,0,0,1-1-1.46,6.83,6.83,0,0,1-.29-2.06h1.7a1.56,1.56,0,0,0,.44,1.15,1.54,1.54,0,0,0,1.11.44h.67a.49.49,0,0,1,.36.15.53.53,0,0,1,.15.36v1.47a.51.51,0,0,1-.51.51ZM1712.4,922a.51.51,0,0,1-.49-.49v-1.37a.41.41,0,0,1,.15-.32.51.51,0,0,1,.34-.14h1.45a.46.46,0,0,1,.34.14.42.42,0,0,1,.13.32v1.37a.5.5,0,0,1-.13.34.43.43,0,0,1-.34.15Z"/><path class="cls-5" d="M1715.35,918.43a.45.45,0,0,1-.35-.15.49.49,0,0,1-.15-.36v-1.47a.53.53,0,0,1,.15-.36.45.45,0,0,1,.35-.15h.66a1.38,1.38,0,0,0,1-.33,1.33,1.33,0,0,0,.34-1V911.5a.69.69,0,0,1,.21-.5.66.66,0,0,1,.48-.21h1.1a.63.63,0,0,1,.48.21.68.68,0,0,1,.2.5v3.42a3.38,3.38,0,0,1-1,2.56,4,4,0,0,1-2.84.95Zm6.15.36a3.87,3.87,0,0,1-2.87-1,4,4,0,0,1-1-2.91h2.22a1.42,1.42,0,0,0,.36,1.09,1.39,1.39,0,0,0,1,.33,1.42,1.42,0,0,0,1.07-.35,1.46,1.46,0,0,0,.34-1.07V911.5a.69.69,0,0,1,.21-.5.67.67,0,0,1,.49-.21h1.09a.72.72,0,0,1,.7.71v3.34a4.14,4.14,0,0,1-.94,2.94A3.35,3.35,0,0,1,1721.5,918.79Zm5.23,0a3.6,3.6,0,0,1-3.93-3.95H1725a1.42,1.42,0,0,0,.36,1.09,1.37,1.37,0,0,0,1,.33,1.39,1.39,0,0,0,1.05-.35,1.42,1.42,0,0,0,.35-1.07v-4.58a.72.72,0,0,1,.69-.7h1.08a.65.65,0,0,1,.49.21.67.67,0,0,1,.21.49v4.58a4.18,4.18,0,0,1-.93,2.94A3.31,3.31,0,0,1,1726.73,918.79Z"/><path class="cls-5" d="M1742.4,918.43a3.89,3.89,0,0,1-3-1.08,4.27,4.27,0,0,1-1-3v-1.16a3.17,3.17,0,0,1,.31-1.45,4.42,4.42,0,0,1,.68-1,.62.62,0,0,1,.49-.23.66.66,0,0,1,.5.18l.76.68a.57.57,0,0,1,.19.45,1,1,0,0,1-.15.52,1.58,1.58,0,0,0-.21.45,2.06,2.06,0,0,0-.1.65v.9a1.6,1.6,0,0,0,.44,1.15,1.5,1.5,0,0,0,1.1.44h2.82a.51.51,0,0,1,.51.51v1.47a.49.49,0,0,1-.15.36.53.53,0,0,1-.36.15Zm.19-10.09a.49.49,0,0,1-.36-.15.48.48,0,0,1-.15-.34v-1.37a.41.41,0,0,1,.15-.32.52.52,0,0,1,.36-.14H1744a.46.46,0,0,1,.34.14.42.42,0,0,1,.13.32v1.37a.5.5,0,0,1-.13.34.43.43,0,0,1-.34.15Zm2.65,10.09a.49.49,0,0,1-.35-.15.49.49,0,0,1-.15-.36v-1.47a.53.53,0,0,1,.15-.36.49.49,0,0,1,.35-.15h2.16a1.44,1.44,0,0,0,1-.32,1.33,1.33,0,0,0,.34-1V910.3a.7.7,0,0,1,.68-.7h1.11a.66.66,0,0,1,.48.2.72.72,0,0,1,.2.5v4.29a4.07,4.07,0,0,1-.9,2.86,3.88,3.88,0,0,1-3,1Zm.68-10.09a.49.49,0,0,1-.36-.15.48.48,0,0,1-.15-.34v-1.37a.41.41,0,0,1,.15-.32.52.52,0,0,1,.36-.14h1.44a.45.45,0,0,1,.33.14.46.46,0,0,1,.13.32v1.37a.55.55,0,0,1-.13.34.43.43,0,0,1-.33.15Z"/><path class="cls-5" d="M1754.53,907.39a.72.72,0,0,1-.69-.68v-1.1a.69.69,0,0,1,.21-.5.66.66,0,0,1,.48-.21h2.26a.68.68,0,0,1,.49.22.7.7,0,0,1,.21.5v1.09a.66.66,0,0,1-.21.47.67.67,0,0,1-.49.21Zm1.19,11a.72.72,0,0,1-.7-.7l0-12.12a.69.69,0,0,1,.21-.5.67.67,0,0,1,.49-.21h1.09a.67.67,0,0,1,.49.21.69.69,0,0,1,.21.5v12.12a.7.7,0,0,1-.2.49.63.63,0,0,1-.48.21Z"/><path class="cls-5" d="M1760.85,918.43a.72.72,0,0,1-.7-.7v-1.11a.66.66,0,0,1,.21-.47.67.67,0,0,1,.49-.21h6.54a.67.67,0,0,1,.49.21.66.66,0,0,1,.21.47v1.11a.72.72,0,0,1-.7.7Zm4.83-1.25a6,6,0,0,1-2.13-.34,3,3,0,0,1-1.41-1,2.18,2.18,0,0,1-.51-1.43v-.63a3,3,0,0,1,.4-1.51,3.17,3.17,0,0,1,1-1.1,2.51,2.51,0,0,1,1.36-.41h.73a3.05,3.05,0,0,1,1.27.29,3.72,3.72,0,0,1,.93.55.73.73,0,0,1,.33.44.63.63,0,0,1-.08.51l-.5.83a.69.69,0,0,1-.42.33.66.66,0,0,1-.53-.08.56.56,0,0,1-.11-.11,3.67,3.67,0,0,0-.41-.2,1,1,0,0,0-.41-.07h-.19a.9.9,0,0,0-.67.29,1.07,1.07,0,0,0-.28.77v.42a1,1,0,0,0,.4.87,2,2,0,0,0,1.18.29Z"/><path class="cls-5" d="M1770.64,907.39a.72.72,0,0,1-.69-.68v-1.1a.69.69,0,0,1,.21-.5.66.66,0,0,1,.48-.21h2.26a.68.68,0,0,1,.49.22.7.7,0,0,1,.21.5v1.09a.66.66,0,0,1-.21.47.67.67,0,0,1-.49.21Zm3.78,11a3.11,3.11,0,0,1-2.4-1,3.69,3.69,0,0,1-.89-2.6v-9.25a.72.72,0,0,1,.2-.5.65.65,0,0,1,.49-.21h1.1a.67.67,0,0,1,.49.21.69.69,0,0,1,.21.5v9.27a1,1,0,0,0,.31.8,1.31,1.31,0,0,0,.87.26h.51a.46.46,0,0,1,.34.15.5.5,0,0,1,.16.36v1.47a.53.53,0,0,1-.5.51Z"/><path class="cls-5" d="M1775.33,918.43a.5.5,0,0,1-.37-.15.52.52,0,0,1-.14-.36v-1.47a.56.56,0,0,1,.14-.36.5.5,0,0,1,.37-.15h3.17a.53.53,0,0,1,.52.51v1.47a.46.46,0,0,1-.16.36.49.49,0,0,1-.36.15Zm3.17,0a.48.48,0,0,1-.34-.15.49.49,0,0,1-.15-.36v-1.47a.53.53,0,0,1,.15-.36.48.48,0,0,1,.34-.15h2.44a1.19,1.19,0,0,0,.89-.38,1.38,1.38,0,0,0,.38-1v-1.33a1.27,1.27,0,0,0-.39-.93,1.21,1.21,0,0,0-.88-.39h-.8a1.2,1.2,0,0,0-1,.42,1.66,1.66,0,0,0-.35,1.09l.72,2.77h-2.28l-.87-2.95a4.47,4.47,0,0,1,.39-1.84A3.35,3.35,0,0,1,1778,910a3.85,3.85,0,0,1,2.16-.55h.72a3.51,3.51,0,0,1,3.78,3.81v1.3a4.33,4.33,0,0,1-.49,2.11,3.29,3.29,0,0,1-1.35,1.34,4,4,0,0,1-1.94.46Zm-.34-10.28a.47.47,0,0,1-.35-.15.51.51,0,0,1-.14-.34v-1.37a.43.43,0,0,1,.14-.32.5.5,0,0,1,.35-.14h1.45a.45.45,0,0,1,.32.14.42.42,0,0,1,.13.32v1.37a.5.5,0,0,1-.13.34.42.42,0,0,1-.32.15Zm3.33,0a.46.46,0,0,1-.34-.15.45.45,0,0,1-.16-.34v-1.37a.39.39,0,0,1,.16-.32.49.49,0,0,1,.34-.14h1.44a.45.45,0,0,1,.33.14.41.41,0,0,1,.15.32v1.37a.48.48,0,0,1-.15.34.43.43,0,0,1-.33.15Zm4.9,10.28a3.69,3.69,0,0,1-1.92-.43,2.43,2.43,0,0,1-1-1.32,6.56,6.56,0,0,1-.34-2.33h1.6a1.5,1.5,0,0,0,.44,1.18,1.75,1.75,0,0,0,1.27.41.46.46,0,0,1,.34.15.53.53,0,0,1,.15.36v1.47a.49.49,0,0,1-.15.36A.46.46,0,0,1,1786.39,918.43Z"/><path class="cls-5" d="M1786.39,918.43a.45.45,0,0,1-.35-.15.49.49,0,0,1-.15-.36v-1.47a.53.53,0,0,1,.15-.36.45.45,0,0,1,.35-.15h1.1a1.45,1.45,0,0,0,1-.32,1.36,1.36,0,0,0,.33-1v-7.22h-.48a.67.67,0,0,1-.49-.21.66.66,0,0,1-.21-.47v-1.1a.69.69,0,0,1,.21-.5.67.67,0,0,1,.49-.21h2.25a.7.7,0,0,1,.5.21.66.66,0,0,1,.22.5v9a4.07,4.07,0,0,1-.9,2.86,3.89,3.89,0,0,1-3,1Z"/><path class="cls-5" d="M1722.27,978.79a3.2,3.2,0,0,1-1.7-.5,3.75,3.75,0,0,1-1.28-1.37,3.85,3.85,0,0,1-.48-1.89v-1.81a4,4,0,0,1,.47-1.9,3.8,3.8,0,0,1,1.31-1.39,3.38,3.38,0,0,1,1.83-.52h.11a5.38,5.38,0,0,1,.87.13l.46,2.6a1.48,1.48,0,0,0-.8-.25h-.49a1.29,1.29,0,0,0-.91.35,1.2,1.2,0,0,0-.38,1v1.84a1.16,1.16,0,0,0,.36.92,1.36,1.36,0,0,0,.93.31h.57a1.23,1.23,0,0,0,.84-.31,1.14,1.14,0,0,0,.37-.92l-1.44-6.18a.66.66,0,0,1,.08-.53.7.7,0,0,1,.43-.32l1.07-.25a.66.66,0,0,1,.51.09.58.58,0,0,1,.31.42l1.53,6.73a3.81,3.81,0,0,1-.46,1.82,3.73,3.73,0,0,1-1.31,1.42,3.49,3.49,0,0,1-1.91.54Zm-2.13-11.8a.49.49,0,0,1-.36-.15.46.46,0,0,1-.16-.36v-1.37a.4.4,0,0,1,.16-.32.52.52,0,0,1,.36-.13h1.44a.42.42,0,0,1,.32.13.45.45,0,0,1,.14.32v1.37a.52.52,0,0,1-.14.36.41.41,0,0,1-.32.15Zm3.32,0a.47.47,0,0,1-.35-.15.52.52,0,0,1-.14-.36v-1.37a.45.45,0,0,1,.14-.32.49.49,0,0,1,.35-.13h1.45a.44.44,0,0,1,.45.45v1.37a.52.52,0,0,1-.13.36.42.42,0,0,1-.32.15Z"/><path class="cls-5" d="M1729.92,982.53a3.63,3.63,0,0,1-1.28-.22,4.26,4.26,0,0,1-1.17-.71.93.93,0,0,1-.26-.5.64.64,0,0,1,.13-.52l.55-.72a.62.62,0,0,1,.95-.08,1.18,1.18,0,0,0,.45.21,2.32,2.32,0,0,0,.61.07h.27a1.08,1.08,0,0,0,.92-.34,2.1,2.1,0,0,0,.26-1.21V970.3a.69.69,0,0,1,.21-.5.67.67,0,0,1,.47-.2h1.1a.7.7,0,0,1,.49.2.72.72,0,0,1,.2.5v8.19a4.42,4.42,0,0,1-.92,3,3.53,3.53,0,0,1-2.75,1Zm5.61-4.1a3.69,3.69,0,0,1-1.92-.43,2.5,2.5,0,0,1-1.07-1.32,6.79,6.79,0,0,1-.34-2.33h1.62a1.53,1.53,0,0,0,.43,1.18,1.79,1.79,0,0,0,1.28.41.48.48,0,0,1,.34.15.53.53,0,0,1,.15.36v1.47a.49.49,0,0,1-.15.36A.48.48,0,0,1,1735.53,978.43Z"/><path class="cls-5" d="M1735.55,978.43a.47.47,0,0,1-.37-.15.49.49,0,0,1-.15-.36v-1.47a.53.53,0,0,1,.15-.36.47.47,0,0,1,.37-.15H1741a.49.49,0,0,1,.36.15.53.53,0,0,1,.15.36v1.47a.51.51,0,0,1-.51.51Z"/><path class="cls-5" d="M1741,978.43a.48.48,0,0,1-.37-.15.49.49,0,0,1-.15-.36v-1.47a.53.53,0,0,1,.15-.36.48.48,0,0,1,.37-.15h5.45a.49.49,0,0,1,.36.15.53.53,0,0,1,.15.36v1.47a.51.51,0,0,1-.51.51Z"/><path class="cls-5" d="M1746.47,978.43a.45.45,0,0,1-.35-.15.48.48,0,0,1-.14-.36v-1.47a.51.51,0,0,1,.14-.36.45.45,0,0,1,.35-.15h2.17a1.41,1.41,0,0,0,1-.32,1.33,1.33,0,0,0,.35-1V970.3a.68.68,0,0,1,.2-.5.66.66,0,0,1,.48-.2h1.1a.7.7,0,0,1,.69.7v4.29a4.07,4.07,0,0,1-.91,2.86,3.85,3.85,0,0,1-3,1ZM1747,982a.51.51,0,0,1-.49-.49v-1.37a.41.41,0,0,1,.15-.32.51.51,0,0,1,.34-.14h1.45a.48.48,0,0,1,.34.14.42.42,0,0,1,.13.32v1.37a.5.5,0,0,1-.13.34.45.45,0,0,1-.34.15Zm3.35,0a.49.49,0,0,1-.36-.15.45.45,0,0,1-.16-.34v-1.37a.39.39,0,0,1,.16-.32.52.52,0,0,1,.36-.14h1.42a.46.46,0,0,1,.34.14.43.43,0,0,1,.14.32v1.37a.51.51,0,0,1-.14.34.43.43,0,0,1-.34.15Z"/><path class="cls-5" d="M1758.12,982.53a3.41,3.41,0,0,1-1.45-.28,4.83,4.83,0,0,1-1.12-.74.81.81,0,0,1-.24-.5.63.63,0,0,1,.17-.49l.62-.68a.63.63,0,0,1,.44-.26.94.94,0,0,1,.51.16,1.21,1.21,0,0,0,.48.24,2.79,2.79,0,0,0,.62.07h1.58a1.16,1.16,0,0,0,.92-.34,1.6,1.6,0,0,0,.32-1V974.1a.67.67,0,0,1,.21-.49.68.68,0,0,1,.49-.2h1.08a.72.72,0,0,1,.5.2.67.67,0,0,1,.21.49v4.39a4.32,4.32,0,0,1-1,3,3.66,3.66,0,0,1-2.8,1Zm.49-4.1A3,3,0,0,1,1757,978a3.13,3.13,0,0,1-1.16-1.18,3.27,3.27,0,0,1-.43-1.67v-1.92a3.87,3.87,0,0,1,.48-1.88,3.94,3.94,0,0,1,1.32-1.4,3.26,3.26,0,0,1,1.83-.53h.8a3.57,3.57,0,0,1,1.83.48,3.5,3.5,0,0,1,1.31,1.36,4,4,0,0,1,.49,2v3H1761v-3a1.25,1.25,0,0,0-1.29-1.32h-.52a1.29,1.29,0,0,0-.9.36,1.21,1.21,0,0,0-.39,1v1.14a1.91,1.91,0,0,0,.33,1.15,1.13,1.13,0,0,0,1,.44h5.78a.51.51,0,0,1,.53.51v1.47a.49.49,0,0,1-.15.36.52.52,0,0,1-.38.15Z"/><path class="cls-5" d="M1765,978.43c-.35,0-.52-.23-.52-.7v-1.11c0-.45.17-.68.52-.68h1.71v-5.81a.69.69,0,0,1,.21-.5.65.65,0,0,1,.49-.21h.7a.72.72,0,0,1,.71.71v2.49l.38.13v5.68Zm1.71-4.1a4.13,4.13,0,0,1,.72-2.16,6.45,6.45,0,0,1,1.91-1.95,4.41,4.41,0,0,1,2.5-.8h2.87a3.61,3.61,0,0,1,2.73,1,3.71,3.71,0,0,1,1,2.7v1.58a3.93,3.93,0,0,1-.88,2.76,3.67,3.67,0,0,1-2.82,1h-8Zm8,1.61a1.29,1.29,0,0,0,.89-.29,1.22,1.22,0,0,0,.31-.92v-1.62a1.09,1.09,0,0,0-.34-.86,1.22,1.22,0,0,0-.86-.32h-3.21a3.26,3.26,0,0,0-1.68.39,1.43,1.43,0,0,0-.65,1.34v2.28Zm5.38,2.49a3.69,3.69,0,0,1-1.92-.43,2.49,2.49,0,0,1-1.06-1.32,6.56,6.56,0,0,1-.34-2.33h1.61a1.53,1.53,0,0,0,.44,1.18,1.75,1.75,0,0,0,1.27.41.46.46,0,0,1,.34.15.53.53,0,0,1,.15.36v1.47a.49.49,0,0,1-.15.36A.46.46,0,0,1,1780.1,978.43Z"/><path class="cls-5" d="M1780.1,978.43a.45.45,0,0,1-.35-.15.48.48,0,0,1-.14-.36v-1.47a.51.51,0,0,1,.14-.36.45.45,0,0,1,.35-.15h1.1a1.43,1.43,0,0,0,1-.32,1.36,1.36,0,0,0,.33-1v-7.22h-.47a.69.69,0,0,1-.5-.21.66.66,0,0,1-.21-.47v-1.1a.72.72,0,0,1,.71-.71h2.24a.69.69,0,0,1,.5.21.66.66,0,0,1,.22.5v9a4.07,4.07,0,0,1-.9,2.86,3.88,3.88,0,0,1-3,1Z"/><path class="cls-5" d="M1788.36,967.39a.72.72,0,0,1-.68-.68v-1.1a.69.69,0,0,1,.21-.5.66.66,0,0,1,.47-.21h2.27a.68.68,0,0,1,.49.22.7.7,0,0,1,.21.5v1.09a.66.66,0,0,1-.21.47.67.67,0,0,1-.49.21Zm1.2,11a.72.72,0,0,1-.7-.7l0-12.12a.69.69,0,0,1,.21-.5.67.67,0,0,1,.49-.21h1.09a.67.67,0,0,1,.49.21.69.69,0,0,1,.21.5v12.12a.7.7,0,0,1-.2.49.64.64,0,0,1-.48.21Z"/><text class="cls-11" transform="translate(891.51 882.08)"> </text><g class="cls-12"><text class="cls-13" transform="translate(887.25 921.1)"> </text><path class="cls-5" d="M888.54,909.93h5.72c3.19,0,4.75,1.56,4.75,4.47v6.7H888.54Zm7.41,8.59v-3.9c0-1.54-.85-2.11-2.3-2.11h-2v6Zm5.69-6H900.4v-2.58h4.29v7.58h-3.05Zm5.49,0h-1.24v-2.58h4.29v7.58h-3Zm4.8,6h2.59l-2.43-8.59h3.09l2.34,8.55c1.44-.1,1.77-1.37,1.77-2.94v-5.61h3.05v5.7c0,3.55-2,5.47-5.87,5.47h-4.54Zm13-6h-1.25v-2.58H928V921.1h-3.06Zm5.13,6h2.91v-4.77c0-.82-.4-1.24-1.18-1.24H930.4v-2.58h2.22c2.42,0,3.37,1.46,3.37,3.84v7.33h-6Zm12.9-6H937.2v-5.16h3v2.58h5.84v2.72l-3.48,8.45h-3.25Zm5.76,0h-1.25v-2.58h4.31V921.1h-3.06Zm13.17,0h-7.53v-2.58H965v2.72l-3.48,8.45h-3.25Zm-7.53,2.74h3.06v9.84h-3.06Zm16.08-5.32h5.71c3.2,0,4.75,1.56,4.75,4.47v6.7H970.4Zm7.41,8.59v-3.9c0-1.54-.86-2.11-2.3-2.11h-2.06v6Zm5.68-6h-1.24v-2.58h4.3v7.58h-3.06Zm5.24,2.53v-5.11h2.95v5.62c1.52,0,2.26-.81,2.26-2.54v-3.08h2.88v3.38c0,3.06-2.12,4.16-4.48,4.26a3.46,3.46,0,0,0,3,1.23c2.45,0,3.52-1.35,3.52-3.64v-5.23h2.94V915c0,3.71-2.11,6.33-6.46,6.33S988.73,918.75,988.73,915Zm14.92,6v-2.67a3.94,3.94,0,0,0,1,.07c1.61,0,2.71-.53,2.71-2.51v-2.07c0-1-.41-1.35-1.31-1.35h-1.92v-2.58H1007c2.22,0,3.36,1.22,3.36,3.5V917l.88,4.14h-2.84l-.41-1.9a3.06,3.06,0,0,1-3,2.07A2.82,2.82,0,0,1,1003.65,921Zm9.76-2.52H1017c2,0,2.75-1.22,2.75-3,0-1.6-.51-3.27-2.55-3.27-1.14,0-2,.53-2,1.5s.82,1.41,1.94,1.41v2.39a2,2,0,0,1-.32,0c-3,0-4.54-1.48-4.54-3.78s1.95-4.08,4.9-4.08c3.49,0,5.66,2.12,5.66,5.66s-2.24,5.77-5.55,5.77h-3.82Zm11.34-5.26-.76-3.33h3.16l.36,1.69a3.42,3.42,0,0,1,3.36-2c2.74,0,3.88,1.69,3.88,4.52v6.91H1029v-2.58h2.68v-4.31a1.68,1.68,0,0,0-1.79-1.92c-1.65,0-2.18,1.61-2.28,3.23l-.38,5.58h-3.08Z"/></g></g></g></svg>