<svg xmlns="http://www.w3.org/2000/svg" xmlns:xlink="http://www.w3.org/1999/xlink" viewBox="0 0 383.69 738.91"><defs><style>.cls-1,.cls-3,.cls-4,.cls-5{fill:none;}.cls-2{clip-path:url(#clip-path);}.cls-3,.cls-4,.cls-5{stroke:#000;stroke-miterlimit:10;}.cls-3{stroke-width:0.59px;}.cls-4{stroke-width:0.98px;}</style><clipPath id="clip-path"><rect class="cls-1" width="383.69" height="738.91"/></clipPath></defs><g id="Calque_2" data-name="Calque 2"><g id="Calque_2-2" data-name="Calque 2"><g class="cls-2"><path class="cls-3" d="M355.82,168.84V123.19c0-11-9.38-20-20.84-20h-6.25m27.09-24.83V124c0,11-9.38,20-20.84,20h-6.25"/></g><polygon points="341.89 123.61 344.5 127.04 340.11 126.58 338.33 130.48 336.55 126.58 332.17 127.04 334.77 123.61 332.17 120.17 336.55 120.63 338.33 116.73 340.11 120.63 344.5 120.17 341.89 123.61"/><g class="cls-2"><path d="M61.46,123.59A5.52,5.52,0,1,1,56,118.07a5.51,5.51,0,0,1,5.51,5.52"/><path d="M47,123.59a5.52,5.52,0,1,1-5.52-5.52A5.52,5.52,0,0,1,47,123.59"/><path class="cls-4" d="M355.91,738.91V13.49a9,9,0,0,0-9-9H13.09a9,9,0,0,0-9,9V738.25"/><path class="cls-5" d="M359.5,738.47V12.5a12,12,0,0,0-12-12H12.5a12,12,0,0,0-12,12V737.4"/></g></g></g></svg>