<svg width="400" height="247" viewBox="0 0 400 247" fill="none" xmlns="http://www.w3.org/2000/svg">
<path d="M398.68 56.97V188.37" stroke="#C70E0E" stroke-miterlimit="10"/>
<path d="M347.29 138.75H347.36" stroke="#C70E0E" stroke-width="0.7" stroke-miterlimit="10"/>
<path d="M346.18 139.3L346.3 139.25" stroke="#C70E0E" stroke-width="0.7" stroke-miterlimit="10"/>
<path d="M335.65 141.65C336.08 141.65 336.5 141.65 336.92 141.65C336.5 141.64 336.08 141.65 335.65 141.65Z" fill="#808080" stroke="#C70E0E" stroke-width="0.7" stroke-miterlimit="10"/>
<path d="M345 139.8L345.18 139.73" stroke="#C70E0E" stroke-width="0.7" stroke-miterlimit="10"/>
<path d="M338.82 141.44L339.4 141.37" stroke="#C70E0E" stroke-width="0.7" stroke-miterlimit="10"/>
<path d="M341.42 141L341.8 140.91" stroke="#C70E0E" stroke-width="0.7" stroke-miterlimit="10"/>
<path d="M342.66 140.64L342.96 140.55" stroke="#C70E0E" stroke-width="0.7" stroke-miterlimit="10"/>
<path d="M343.87 140.25L344.1 140.17" stroke="#C70E0E" stroke-width="0.7" stroke-miterlimit="10"/>
<path d="M337.41 141.58C337.66 141.58 337.92 141.58 338.17 141.52C337.92 141.55 337.66 141.56 337.41 141.58Z" fill="#808080" stroke="#C70E0E" stroke-width="0.7" stroke-miterlimit="10"/>
<path d="M340.14 141.24L340.61 141.15" stroke="#C70E0E" stroke-width="0.7" stroke-miterlimit="10"/>
<path d="M346.3 139.25C346.63 139.09 346.96 138.93 347.3 138.75C347 138.93 346.63 139.09 346.3 139.25Z" fill="white"/>
<path d="M349.38 137.51C349.05 137.73 348.72 137.94 348.38 138.14L347.38 138.7H347.31C346.98 138.88 346.65 139.04 346.31 139.2L346.19 139.25C345.87 139.4 345.55 139.55 345.19 139.68L345.01 139.75L344.07 140.12L343.84 140.2C343.54 140.3 343.24 140.41 342.93 140.5L342.63 140.59L341.77 140.83L341.39 140.92L340.58 141.1L340.11 141.19L339.37 141.32L338.79 141.39L338.14 141.47C337.89 141.47 337.63 141.47 337.38 141.53H336.89C336.47 141.53 336.05 141.53 335.62 141.53H60.62V142.03H335.12C338.461 142.028 341.767 141.354 344.842 140.048C347.917 138.743 350.698 136.832 353.02 134.43C351.895 135.544 350.666 136.549 349.35 137.43L349.38 137.51Z" fill="white"/>
<path d="M343 140.55C343.31 140.46 343.61 140.35 343.91 140.25C343.57 140.35 343.27 140.46 343 140.55Z" fill="white"/>
<path d="M347.29 138.75H347.36" stroke="#C70E0E" stroke-width="0.7" stroke-miterlimit="10"/>
<path d="M346.18 139.3L346.3 139.25" stroke="#C70E0E" stroke-width="0.7" stroke-miterlimit="10"/>
<path d="M335.65 141.65C336.08 141.65 336.5 141.65 336.92 141.65C336.5 141.64 336.08 141.65 335.65 141.65Z" fill="#808080" stroke="#C70E0E" stroke-width="0.7" stroke-miterlimit="10"/>
<path d="M345 139.8L345.18 139.73" stroke="#C70E0E" stroke-width="0.7" stroke-miterlimit="10"/>
<path d="M338.82 141.44L339.4 141.37" stroke="#C70E0E" stroke-width="0.7" stroke-miterlimit="10"/>
<path d="M341.42 141L341.8 140.91" stroke="#C70E0E" stroke-width="0.7" stroke-miterlimit="10"/>
<path d="M342.66 140.64L342.96 140.55" stroke="#C70E0E" stroke-width="0.7" stroke-miterlimit="10"/>
<path d="M343.87 140.25L344.1 140.17" stroke="#C70E0E" stroke-width="0.7" stroke-miterlimit="10"/>
<path d="M337.41 141.58C337.66 141.58 337.92 141.58 338.17 141.52C337.92 141.55 337.66 141.56 337.41 141.58Z" fill="#808080" stroke="#C70E0E" stroke-width="0.7" stroke-miterlimit="10"/>
<path d="M340.14 141.24L340.61 141.15" stroke="#C70E0E" stroke-width="0.7" stroke-miterlimit="10"/>
<path d="M305.15 81.15V114C305.15 126.73 314.72 137.14 326.4 137.14H334.9C346.59 137.14 356.15 126.73 356.15 114V81.15" stroke="#C70E0E" stroke-linecap="round" stroke-linejoin="round"/>
<path d="M353.05 134.55C351.925 135.664 350.696 136.669 349.38 137.55C349.05 137.77 348.72 137.98 348.38 138.18L347.38 138.74H347.31C346.98 138.92 346.65 139.08 346.31 139.24L346.19 139.29C345.87 139.44 345.55 139.59 345.19 139.72L345.01 139.79L344.07 140.16L343.84 140.24C343.54 140.34 343.24 140.45 342.93 140.54L342.63 140.63L341.77 140.87L341.39 140.96L340.58 141.14L340.11 141.23L339.37 141.36L338.79 141.43L338.14 141.51C337.89 141.51 337.63 141.51 337.38 141.57H336.89C336.47 141.57 336.05 141.57 335.62 141.57H325.62C318.995 141.552 312.647 138.912 307.963 134.227C303.278 129.543 300.638 123.195 300.62 116.57" stroke="#C70E0E" stroke-linecap="round" stroke-linejoin="round"/>
<path d="M353.05 134.55C350.728 136.952 347.947 138.862 344.872 140.168C341.797 141.474 338.491 142.148 335.15 142.15H60.65" stroke="#C70E0E" stroke-linecap="round" stroke-linejoin="round"/>
<path d="M353.05 134.55C355.452 132.228 357.362 129.447 358.668 126.372C359.974 123.297 360.648 119.991 360.65 116.65V81.15" stroke="#C70E0E" stroke-linecap="round" stroke-linejoin="round"/>
<path d="M65.15 81.15V114C65.15 126.73 74.72 137.14 86.4 137.14H94.9C106.59 137.14 116.15 126.73 116.15 114V81.15" stroke="#C70E0E" stroke-linecap="round" stroke-linejoin="round"/>
<path d="M120.65 116.65C120.631 123.275 117.992 129.623 113.307 134.307C108.623 138.992 102.275 141.632 95.65 141.65H85.65C79.0252 141.632 72.6771 138.992 67.9927 134.307C63.3083 129.623 60.6684 123.275 60.65 116.65" stroke="#C70E0E" stroke-linecap="round" stroke-linejoin="round"/>
<path d="M125.15 81.15V114C125.15 126.73 134.72 137.14 146.4 137.14H154.9C166.59 137.14 176.15 126.73 176.15 114V81.15" stroke="#C70E0E" stroke-linecap="round" stroke-linejoin="round"/>
<path d="M120.65 116.65C120.668 123.275 123.308 129.623 127.993 134.307C132.677 138.992 139.025 141.632 145.65 141.65H155.65C162.275 141.632 168.623 138.992 173.307 134.307C177.992 129.623 180.631 123.275 180.65 116.65" stroke="#C70E0E" stroke-linecap="round" stroke-linejoin="round"/>
<path d="M120.65 116.65V81.15" stroke="#C70E0E" stroke-linecap="round" stroke-linejoin="round"/>
<path d="M60.65 142.15V141.65V116.65" stroke="#C70E0E" stroke-linecap="round" stroke-linejoin="round"/>
<path d="M5.65002 146.51V137.15" stroke="#C70E0E" stroke-linecap="round" stroke-linejoin="round"/>
<path d="M56.15 169.15V90.15" stroke="#C70E0E" stroke-linecap="round"/>
<path d="M60.65 85.15V116.65" stroke="#C70E0E" stroke-linecap="round" stroke-linejoin="round"/>
<path d="M240.65 116.65C240.668 123.275 243.308 129.623 247.993 134.307C252.677 138.992 259.025 141.632 265.65 141.65H275.65C282.275 141.632 288.623 138.992 293.307 134.307C297.992 129.623 300.631 123.275 300.65 116.65" stroke="#C70E0E" stroke-linecap="round" stroke-linejoin="round"/>
<path d="M245.15 81.15V114C245.15 126.73 254.72 137.14 266.4 137.14H274.9C286.59 137.14 296.15 126.73 296.15 114V81.15" stroke="#C70E0E" stroke-linecap="round" stroke-linejoin="round"/>
<path d="M300.65 81.15V116.65" stroke="#C70E0E" stroke-linecap="round" stroke-linejoin="round"/>
<path d="M185.15 81.15V114C185.15 126.73 194.72 137.14 206.4 137.14H214.9C226.59 137.14 236.15 126.73 236.15 114V81.15" stroke="#C70E0E" stroke-linecap="round" stroke-linejoin="round"/>
<path d="M240.65 116.65C240.631 123.275 237.992 129.623 233.307 134.307C228.623 138.992 222.275 141.632 215.65 141.65H205.65C199.025 141.632 192.677 138.992 187.993 134.307C183.308 129.623 180.668 123.275 180.65 116.65" stroke="#C70E0E" stroke-linecap="round" stroke-linejoin="round"/>
<path d="M180.65 81.15V116.65" stroke="#C70E0E" stroke-linecap="round" stroke-linejoin="round"/>
<path d="M240.65 116.65V81.15" stroke="#C70E0E" stroke-linecap="round" stroke-linejoin="round"/>
<path d="M346.3 139.25C346.63 139.09 346.96 138.93 347.3 138.75C347 138.93 346.63 139.09 346.3 139.25Z" fill="white"/>
<path d="M349.38 137.51C349.05 137.73 348.72 137.94 348.38 138.14L347.38 138.7H347.31C346.98 138.88 346.65 139.04 346.31 139.2L346.19 139.25C345.87 139.4 345.55 139.55 345.19 139.68L345.01 139.75L344.07 140.12L343.84 140.2C343.54 140.3 343.24 140.41 342.93 140.5L342.63 140.59L341.77 140.83L341.39 140.92L340.58 141.1L340.11 141.19L339.37 141.32L338.79 141.39L338.14 141.47C337.89 141.47 337.63 141.47 337.38 141.53H336.89C336.47 141.53 336.05 141.53 335.62 141.53H60.62V142.03H335.12C338.461 142.028 341.767 141.354 344.842 140.048C347.917 138.743 350.698 136.832 353.02 134.43C351.895 135.544 350.666 136.549 349.35 137.43L349.38 137.51Z" fill="#C70E0E"/>
<path d="M343 140.55C343.31 140.46 343.61 140.35 343.91 140.25C343.57 140.35 343.27 140.46 343 140.55Z" fill="white"/>
<path d="M25.36 174.15C18.7556 174.11 12.4352 171.459 7.77918 166.775C3.12317 162.091 0.509846 155.755 0.509965 149.15V164.64C0.166383 162.996 -0.00454355 161.32 -3.51713e-05 159.64V203.64C0.0290044 210.272 2.68047 216.623 7.37557 221.307C12.0707 225.991 18.4281 228.627 25.06 228.64H35.06C41.6919 228.627 48.0493 225.991 52.7444 221.307C57.4395 216.623 60.0909 210.272 60.12 203.64V174.14L25.36 174.15Z" fill="#C70E0E"/>
<path d="M398.65 179.25V220.65C398.631 227.275 395.992 233.623 391.307 238.307C386.623 242.992 380.275 245.632 373.65 245.65H366.15" stroke="#C70E0E" stroke-miterlimit="10"/>
<path d="M398.65 104.47V179.25" stroke="#C70E0E" stroke-miterlimit="10"/>
<path d="M189.76 42.02C193.35 42.02 196.26 39.1099 196.26 35.52C196.26 31.9302 193.35 29.02 189.76 29.02C186.17 29.02 183.26 31.9302 183.26 35.52C183.26 39.1099 186.17 42.02 189.76 42.02Z" fill="#C70E0E"/>
<path d="M172.76 42.02C176.35 42.02 179.26 39.1099 179.26 35.52C179.26 31.9302 176.35 29.02 172.76 29.02C169.17 29.02 166.26 31.9302 166.26 35.52C166.26 39.1099 169.17 42.02 172.76 42.02Z" fill="#C70E0E"/>
<path d="M128.65 226.15C132.24 226.15 135.15 223.24 135.15 219.65C135.15 216.06 132.24 213.15 128.65 213.15C125.06 213.15 122.15 216.06 122.15 219.65C122.15 223.24 125.06 226.15 128.65 226.15Z" fill="#C70E0E"/>
<path d="M111.65 226.15C115.24 226.15 118.15 223.24 118.15 219.65C118.15 216.06 115.24 213.15 111.65 213.15C108.06 213.15 105.15 216.06 105.15 219.65C105.15 223.24 108.06 226.15 111.65 226.15Z" fill="#C70E0E"/>
<path d="M56.65 169.65H26.9C15.22 169.65 5.65002 159.24 5.65002 146.51" stroke="#C70E0E" stroke-linejoin="round"/>
<path d="M360.65 143.65V81.65" stroke="#C70E0E" stroke-linecap="round" stroke-linejoin="round"/>
<path d="M360.66 141.35L361.15 125.05V122.05C360.945 122.03 360.742 122 360.54 121.96C359.394 126.995 356.724 131.555 352.892 135.018C349.061 138.481 344.255 140.678 339.13 141.31H321.8C315.917 140.373 310.559 137.373 306.684 132.848C302.81 128.323 300.671 122.567 300.65 116.61C300.633 122.378 298.629 127.963 294.975 132.426C291.321 136.889 286.241 139.956 280.59 141.11H260.71C255.06 139.954 249.98 136.886 246.327 132.424C242.673 127.962 240.669 122.377 240.65 116.61C240.633 122.378 238.629 127.963 234.975 132.426C231.321 136.889 226.241 139.956 220.59 141.11H200.71C195.06 139.954 189.98 136.886 186.327 132.424C182.673 127.962 180.668 122.377 180.65 116.61C180.633 122.378 178.629 127.963 174.975 132.426C171.321 136.889 166.241 139.956 160.59 141.11H140.71C135.06 139.954 129.98 136.886 126.327 132.424C122.673 127.962 120.669 122.377 120.65 116.61C120.633 122.378 118.629 127.963 114.975 132.426C111.321 136.889 106.241 139.956 100.59 141.11H80.71C75.0598 139.954 69.9805 136.886 66.3269 132.424C62.6733 127.962 60.6685 122.377 60.65 116.61V141.11H60.15V174.11H277C277.55 174.11 278.1 174.18 278.66 174.18H336C342.681 174.14 349.075 171.458 353.786 166.72C358.496 161.981 361.14 155.571 361.14 148.89V141.31L360.66 141.35Z" fill="#C70E0E"/>
<path d="M398.65 25.62C398.647 18.9793 396.016 12.6096 391.332 7.90267C386.648 3.19576 380.291 0.534352 373.65 0.5H366.15V173.65H373.65C380.275 173.632 386.623 170.992 391.307 166.307C395.992 161.623 398.631 155.275 398.65 148.65V91.65C398.647 90.1848 398.517 88.7225 398.26 87.28C398.517 85.8274 398.647 84.3552 398.65 82.88V25.62Z" fill="#C70E0E" stroke="#C70E0E" stroke-miterlimit="10"/>
<path d="M398.65 219.65C398.631 213.025 395.992 206.677 391.307 201.993C386.623 197.308 380.275 194.668 373.65 194.65H366.15" stroke="#C70E0E" stroke-miterlimit="10"/>
<path d="M382.01 220.17L385.15 224.46L379.87 223.89L377.72 228.75L375.58 223.89L370.29 224.46L373.43 220.17L370.29 215.88L375.58 216.46L377.72 211.59L379.87 216.46L385.15 215.88L382.01 220.17Z" fill="#C70E0E"/>
<path d="M0.659912 201.47V137.15" stroke="#C70E0E" stroke-miterlimit="10"/>
</svg>
