<svg xmlns="http://www.w3.org/2000/svg" viewBox="0 0 399.15 246.15"><defs><style>.cls-1{fill:gray;stroke-width:0.7px;}.cls-1,.cls-3,.cls-4,.cls-5,.cls-6,.cls-7{stroke:#fff;}.cls-1,.cls-5,.cls-7{stroke-miterlimit:10;}.cls-2,.cls-7{fill:#fff;}.cls-3,.cls-4,.cls-5,.cls-6{fill:none;}.cls-3,.cls-4{stroke-linecap:round;}.cls-3,.cls-6{stroke-linejoin:round;}</style></defs><g id="Calque_2" data-name="Calque 2"><g id="Calque_2-2" data-name="Calque 2"><path class="cls-1" d="M347.29,138.75l.07,0Z"/><path class="cls-1" d="M346.18,139.3l.12-.05Z"/><path class="cls-1" d="M335.65,141.65c.43,0,.85,0,1.27,0C336.5,141.64,336.08,141.65,335.65,141.65Z"/><path class="cls-1" d="M348.35,138.16l0,0Z"/><path class="cls-1" d="M349.38,137.51Z"/><path class="cls-1" d="M345,139.8l.18-.07Z"/><path class="cls-1" d="M338.82,141.44l.58-.07Z"/><path class="cls-1" d="M341.42,141l.38-.09Z"/><path class="cls-1" d="M342.66,140.64l.3-.09Z"/><path class="cls-1" d="M343.87,140.25l.23-.08Z"/><path class="cls-1" d="M337.41,141.58c.25,0,.51,0,.76-.06C337.92,141.55,337.66,141.56,337.41,141.58Z"/><path class="cls-1" d="M340.14,141.24l.47-.09Z"/><path class="cls-2" d="M339.4,141.37l.74-.13Z"/><path class="cls-2" d="M336.92,141.62l.49,0Z"/><path class="cls-2" d="M338.17,141.52l.65-.08Z"/><path class="cls-2" d="M346.3,139.25c.33-.16.66-.32,1-.5C347,138.93,346.63,139.09,346.3,139.25Z"/><path class="cls-2" d="M348.38,138.14c.34-.2.67-.41,1-.63C349.05,137.73,348.72,137.94,348.38,138.14Z"/><path class="cls-2" d="M349.38,137.51c-.33.22-.66.43-1,.63l0,0-1,.56-.07,0c-.33.18-.66.34-1,.5l-.12.05c-.32.15-.64.3-1,.43l-.18.07-.94.37-.23.08c-.3.1-.6.21-.91.3l-.3.09-.86.24-.38.09-.81.18-.47.09-.74.13-.58.07-.65.08c-.25,0-.51,0-.76.06l-.49,0c-.42,0-.84,0-1.27,0h-275v.5h274.5a24.92,24.92,0,0,0,17.9-7.6h0a24.9,24.9,0,0,1-3.67,3Z"/><path class="cls-2" d="M347.36,138.72l1-.56Z"/><path class="cls-2" d="M353.05,134.55a24.9,24.9,0,0,1-3.67,3A24.9,24.9,0,0,0,353.05,134.55Z"/><path class="cls-2" d="M344.1,140.17l.94-.37Z"/><path class="cls-2" d="M341.8,140.88l.86-.24Z"/><path class="cls-2" d="M343,140.55c.31-.09.61-.2.91-.3C343.57,140.35,343.27,140.46,343,140.55Z"/><path class="cls-2" d="M345.22,139.73c.32-.13.64-.28,1-.43C345.86,139.45,345.54,139.6,345.22,139.73Z"/><path class="cls-2" d="M340.61,141.15l.81-.18Z"/><path class="cls-1" d="M347.29,138.75l.07,0Z"/><path class="cls-1" d="M346.18,139.3l.12-.05Z"/><path class="cls-1" d="M335.65,141.65c.43,0,.85,0,1.27,0C336.5,141.64,336.08,141.65,335.65,141.65Z"/><path class="cls-1" d="M348.35,138.16l0,0Z"/><path class="cls-1" d="M349.38,137.51Z"/><path class="cls-1" d="M345,139.8l.18-.07Z"/><path class="cls-1" d="M338.82,141.44l.58-.07Z"/><path class="cls-1" d="M341.42,141l.38-.09Z"/><path class="cls-1" d="M342.66,140.64l.3-.09Z"/><path class="cls-1" d="M343.87,140.25l.23-.08Z"/><path class="cls-1" d="M337.41,141.58c.25,0,.51,0,.76-.06C337.92,141.55,337.66,141.56,337.41,141.58Z"/><path class="cls-1" d="M340.14,141.24l.47-.09Z"/><path class="cls-3" d="M305.15,81.15V114c0,12.73,9.57,23.14,21.25,23.14h8.5c11.69,0,21.25-10.41,21.25-23.14V81.15"/><path class="cls-3" d="M353.05,134.55a24.9,24.9,0,0,1-3.67,3h0c-.33.22-.66.43-1,.63l0,0-1,.56-.07,0c-.33.18-.66.34-1,.5l-.12.05c-.32.15-.64.3-1,.43l-.18.07-.94.37-.23.08c-.3.1-.6.21-.91.3l-.3.09-.86.24-.38.09-.81.18-.47.09-.74.13-.58.07-.65.08c-.25,0-.51,0-.76.06l-.49,0c-.42,0-.84,0-1.27,0h-10a25.07,25.07,0,0,1-25-25"/><path class="cls-3" d="M353.05,134.55h0a24.92,24.92,0,0,1-17.9,7.6H60.65"/><path class="cls-3" d="M353.05,134.55a24.92,24.92,0,0,0,7.6-17.9V81.15"/><path class="cls-3" d="M65.15,81.15V114c0,12.73,9.57,23.14,21.25,23.14h8.5c11.69,0,21.25-10.41,21.25-23.14V81.15"/><path class="cls-3" d="M120.65,116.65a25.07,25.07,0,0,1-25,25h-10a25.07,25.07,0,0,1-25-25"/><path class="cls-3" d="M125.15,81.15V114c0,12.73,9.57,23.14,21.25,23.14h8.5c11.69,0,21.25-10.41,21.25-23.14V81.15"/><path class="cls-3" d="M120.65,116.65a25.07,25.07,0,0,0,25,25h10a25.07,25.07,0,0,0,25-25"/><line class="cls-3" x1="120.65" y1="116.65" x2="120.65" y2="81.15"/><polyline class="cls-3" points="60.65 142.15 60.65 141.65 60.65 116.65"/><line class="cls-3" x1="5.65" y1="146.51" x2="5.65" y2="137.15"/><line class="cls-4" x1="56.15" y1="169.15" x2="56.15" y2="90.15"/><line class="cls-3" x1="60.65" y1="85.15" x2="60.65" y2="116.65"/><path class="cls-3" d="M240.65,116.65a25.07,25.07,0,0,0,25,25h10a25.07,25.07,0,0,0,25-25"/><path class="cls-3" d="M245.15,81.15V114c0,12.73,9.57,23.14,21.25,23.14h8.5c11.69,0,21.25-10.41,21.25-23.14V81.15"/><line class="cls-3" x1="300.65" y1="81.15" x2="300.65" y2="116.65"/><path class="cls-3" d="M185.15,81.15V114c0,12.73,9.57,23.14,21.25,23.14h8.5c11.69,0,21.25-10.41,21.25-23.14V81.15"/><path class="cls-3" d="M240.65,116.65a25.07,25.07,0,0,1-25,25h-10a25.07,25.07,0,0,1-25-25"/><line class="cls-3" x1="180.65" y1="81.15" x2="180.65" y2="116.65"/><line class="cls-3" x1="240.65" y1="116.65" x2="240.65" y2="81.15"/><path class="cls-2" d="M339.4,141.37l.74-.13Z"/><path class="cls-2" d="M336.92,141.62l.49,0Z"/><path class="cls-2" d="M338.17,141.52l.65-.08Z"/><path class="cls-2" d="M346.3,139.25c.33-.16.66-.32,1-.5C347,138.93,346.63,139.09,346.3,139.25Z"/><path class="cls-2" d="M348.38,138.14c.34-.2.67-.41,1-.63C349.05,137.73,348.72,137.94,348.38,138.14Z"/><path class="cls-2" d="M349.38,137.51c-.33.22-.66.43-1,.63l0,0-1,.56-.07,0c-.33.18-.66.34-1,.5l-.12.05c-.32.15-.64.3-1,.43l-.18.07-.94.37-.23.08c-.3.1-.6.21-.91.3l-.3.09-.86.24-.38.09-.81.18-.47.09-.74.13-.58.07-.65.08c-.25,0-.51,0-.76.06l-.49,0c-.42,0-.84,0-1.27,0h-275v.5h274.5a24.92,24.92,0,0,0,17.9-7.6h0a24.9,24.9,0,0,1-3.67,3Z"/><path class="cls-2" d="M347.36,138.72l1-.56Z"/><path class="cls-2" d="M353.05,134.55a24.9,24.9,0,0,1-3.67,3A24.9,24.9,0,0,0,353.05,134.55Z"/><path class="cls-2" d="M344.1,140.17l.94-.37Z"/><path class="cls-2" d="M341.8,140.88l.86-.24Z"/><path class="cls-2" d="M343,140.55c.31-.09.61-.2.91-.3C343.57,140.35,343.27,140.46,343,140.55Z"/><path class="cls-2" d="M345.22,139.73c.32-.13.64-.28,1-.43C345.86,139.45,345.54,139.6,345.22,139.73Z"/><path class="cls-2" d="M340.61,141.15l.81-.18Z"/><path class="cls-2" d="M25.36,174.15a25,25,0,0,1-24.85-25v15.49a24.13,24.13,0,0,1-.51-5v44a25.11,25.11,0,0,0,25.06,25h10a25.11,25.11,0,0,0,25.06-25v-29.5Z"/><path class="cls-5" d="M398.65,179.25v41.4a25.07,25.07,0,0,1-25,25h-7.5"/><line class="cls-5" x1="398.65" y1="104.47" x2="398.65" y2="179.25"/><circle class="cls-2" cx="189.76" cy="35.52" r="6.5"/><circle class="cls-2" cx="172.76" cy="35.52" r="6.5"/><circle class="cls-2" cx="128.65" cy="219.65" r="6.5"/><circle class="cls-2" cx="111.65" cy="219.65" r="6.5"/><path class="cls-6" d="M56.65,169.65H26.9c-11.68,0-21.25-10.41-21.25-23.14"/><line class="cls-3" x1="360.65" y1="143.65" x2="360.65" y2="81.65"/><path class="cls-2" d="M360.66,141.35l.49-16.3v-3a6,6,0,0,1-.61-.09,25.11,25.11,0,0,1-21.41,19.35H321.8a25.1,25.1,0,0,1-21.15-24.7,25.08,25.08,0,0,1-20.06,24.5H260.71a25.09,25.09,0,0,1-20.06-24.5,25.08,25.08,0,0,1-20.06,24.5H200.71a25.09,25.09,0,0,1-20.06-24.5,25.08,25.08,0,0,1-20.06,24.5H140.71a25.09,25.09,0,0,1-20.06-24.5,25.08,25.08,0,0,1-20.06,24.5H80.71a25.09,25.09,0,0,1-20.06-24.5v24.5h-.5v33H277c.55,0,1.1.07,1.66.07H336a25.29,25.29,0,0,0,25.14-25.29v-7.58Z"/><path class="cls-7" d="M398.65,25.62A25.13,25.13,0,0,0,373.65.5h-7.5V173.65h7.5a25.07,25.07,0,0,0,25-25v-57a25.19,25.19,0,0,0-.39-4.37,25.53,25.53,0,0,0,.39-4.4Z"/><path class="cls-5" d="M398.65,219.65a25.07,25.07,0,0,0-25-25h-7.5"/><polygon class="cls-2" points="382.01 220.17 385.15 224.46 379.87 223.89 377.72 228.75 375.58 223.89 370.29 224.46 373.43 220.17 370.29 215.88 375.58 216.46 377.72 211.59 379.87 216.46 385.15 215.88 382.01 220.17"/><line class="cls-5" x1="0.66" y1="201.47" x2="0.66" y2="137.15"/></g></g></svg>