<svg xmlns="http://www.w3.org/2000/svg" viewBox="0 0 1920.5 235.89"><defs><style>.cls-1{fill:#fff;}.cls-2,.cls-3{fill:none;}.cls-2,.cls-3,.cls-4{stroke:#fff;}.cls-2{stroke-linecap:round;stroke-linejoin:round;}.cls-3,.cls-4{stroke-miterlimit:10;}.cls-4{fill:gray;stroke-width:0.7px;}</style></defs><g id="Calque_2" data-name="Calque 2"><g id="Calque_2-2" data-name="Calque 2"><path class="cls-1" d="M1920.5,148.69a25.77,25.77,0,0,1-25.37,21.87h-35.51v19a25.26,25.26,0,0,0,25.37,25h10.14a25.26,25.26,0,0,0,25.37-25Z"/><line class="cls-2" x1="1887.12" y1="171" x2="1900.12" y2="171"/><path class="cls-3" d="M25,214.33a24.12,24.12,0,0,1-24.1-24V170.5"/><path class="cls-4" d="M380.75,131.1l.08,0Z"/><path class="cls-4" d="M379.65,131.65l.12-.05Z"/><path class="cls-4" d="M369.12,134c.43,0,.85,0,1.27,0C370,134,369.55,134,369.12,134Z"/><path class="cls-4" d="M381.82,130.51l0,0Z"/><path class="cls-4" d="M382.84,129.86h0Z"/><path class="cls-4" d="M378.51,132.15l.17-.07Z"/><path class="cls-4" d="M372.29,133.79l.58-.07Z"/><path class="cls-4" d="M374.88,133.32l.39-.09Z"/><path class="cls-4" d="M376.13,133l.3-.09Z"/><path class="cls-4" d="M377.33,132.6l.24-.08Z"/><path class="cls-4" d="M370.88,133.93c.25,0,.51,0,.76-.06C371.39,133.9,371.13,133.91,370.88,133.93Z"/><path class="cls-4" d="M373.6,133.59l.48-.09Z"/><path class="cls-1" d="M372.87,133.72l.73-.13Z"/><path class="cls-1" d="M370.39,134l.49,0Z"/><path class="cls-1" d="M371.64,133.87l.65-.08Z"/><path class="cls-1" d="M379.77,131.6c.33-.16.66-.32,1-.5C380.43,131.28,380.1,131.44,379.77,131.6Z"/><path class="cls-1" d="M381.85,130.49q.51-.3,1-.63Q382.36,130.19,381.85,130.49Z"/><path class="cls-1" d="M380.83,131.07l1-.56Z"/><path class="cls-1" d="M386.52,126.9a25.43,25.43,0,0,1-3.67,3A24.9,24.9,0,0,0,386.52,126.9Z"/><path class="cls-1" d="M377.57,132.52l.94-.37Z"/><path class="cls-1" d="M375.27,133.23l.86-.24Z"/><path class="cls-1" d="M376.43,132.9c.31-.09.61-.2.9-.3C377,132.7,376.74,132.81,376.43,132.9Z"/><path class="cls-1" d="M378.68,132.08c.33-.13.65-.28,1-.43C379.33,131.8,379,132,378.68,132.08Z"/><path class="cls-1" d="M374.08,133.5c.27-.05.54-.12.8-.18C374.62,133.38,374.35,133.45,374.08,133.5Z"/><path class="cls-4" d="M380.75,131.1l.08,0Z"/><path class="cls-4" d="M379.65,131.65l.12-.05Z"/><path class="cls-4" d="M369.12,134c.43,0,.85,0,1.27,0C370,134,369.55,134,369.12,134Z"/><path class="cls-4" d="M381.82,130.51l0,0Z"/><path class="cls-4" d="M382.84,129.86h0Z"/><path class="cls-4" d="M378.51,132.15l.17-.07Z"/><path class="cls-4" d="M372.29,133.79l.58-.07Z"/><path class="cls-4" d="M374.88,133.32l.39-.09Z"/><path class="cls-4" d="M376.13,133l.3-.09Z"/><path class="cls-4" d="M377.33,132.6l.24-.08Z"/><path class="cls-4" d="M370.88,133.93c.25,0,.51,0,.76-.06C371.39,133.9,371.13,133.91,370.88,133.93Z"/><path class="cls-4" d="M373.6,133.59l.48-.09Z"/><path class="cls-2" d="M338.62,73.5v32.86c0,12.73,9.56,23.14,21.25,23.14h8.5c11.69,0,21.25-10.41,21.25-23.14V73.5"/><path class="cls-2" d="M386.52,126.9a25.43,25.43,0,0,1-3.67,3h0q-.48.33-1,.63l0,0-1,.56-.08,0c-.32.18-.65.34-1,.5l-.12.05c-.32.15-.64.3-1,.43l-.17.07-.94.37-.24.08c-.29.1-.59.21-.9.3l-.3.09-.86.24-.39.09c-.26.06-.53.13-.8.18l-.48.09-.73.13-.58.07-.65.08c-.25,0-.51,0-.76.06l-.49,0c-.42,0-.84,0-1.27,0h-10a25.07,25.07,0,0,1-25-25"/><path class="cls-2" d="M386.52,126.9a24.92,24.92,0,0,0,7.6-17.9V73.5"/><path class="cls-2" d="M274.12,109a25.07,25.07,0,0,0,25,25h10a25.07,25.07,0,0,0,25-25"/><path class="cls-2" d="M278.62,73.5v32.86c0,12.73,9.56,23.14,21.25,23.14h8.5c11.69,0,21.25-10.41,21.25-23.14V73.5"/><line class="cls-2" x1="334.12" y1="73.5" x2="334.12" y2="109"/><path class="cls-2" d="M218.62,73.5v32.86c0,12.73,9.56,23.14,21.25,23.14h8.5c11.69,0,21.25-10.41,21.25-23.14V73.5"/><path class="cls-2" d="M274.12,109a25.07,25.07,0,0,1-25,25h-10a25.07,25.07,0,0,1-25-25"/><line class="cls-2" x1="274.12" y1="109" x2="274.12" y2="73.5"/><path class="cls-1" d="M372.87,133.72l.73-.13Z"/><path class="cls-1" d="M370.39,134l.49,0Z"/><path class="cls-1" d="M371.64,133.87l.65-.08Z"/><path class="cls-1" d="M379.77,131.6c.33-.16.66-.32,1-.5C380.43,131.28,380.1,131.44,379.77,131.6Z"/><path class="cls-1" d="M381.85,130.49q.51-.3,1-.63Q382.36,130.19,381.85,130.49Z"/><path class="cls-1" d="M380.83,131.07l1-.56Z"/><path class="cls-1" d="M386.52,126.9a25.43,25.43,0,0,1-3.67,3A24.9,24.9,0,0,0,386.52,126.9Z"/><path class="cls-1" d="M377.57,132.52l.94-.37Z"/><path class="cls-1" d="M375.27,133.23l.86-.24Z"/><path class="cls-1" d="M376.43,132.9c.31-.09.61-.2.9-.3C377,132.7,376.74,132.81,376.43,132.9Z"/><path class="cls-1" d="M378.68,132.08c.33-.13.65-.28,1-.43C379.33,131.8,379,132,378.68,132.08Z"/><path class="cls-1" d="M374.08,133.5c.27-.05.54-.12.8-.18C374.62,133.38,374.35,133.45,374.08,133.5Z"/><line class="cls-2" x1="60.92" y1="171.5" x2="60.92" y2="129.5"/><circle class="cls-3" cx="95.62" cy="141.5" r="25.5"/><line class="cls-2" x1="218.69" y1="93.37" x2="218.69" y2="0.5"/><path class="cls-1" d="M362.93,170.5H124.62v-25a25.06,25.06,0,0,1-25,25h-39v44H363.31"/><path class="cls-2" d="M179.62,106.5a23.07,23.07,0,0,1-23,23h-14"/><line class="cls-2" x1="179.62" y1="106.5" x2="179.62" y2="90.94"/><line class="cls-2" x1="145.62" y1="129.5" x2="124.62" y2="129.5"/><line class="cls-2" x1="394.12" y1="104" x2="394.12" y2="134.87"/><path class="cls-1" d="M394.12,133.5l.5-16.5v-3A6,6,0,0,1,394,114a25.09,25.09,0,0,1-24.39,19.55H354.16a25.1,25.1,0,0,1-20-24.5,25.1,25.1,0,0,1-20,24.5H294.16a25.11,25.11,0,0,1-20-24.5,25.08,25.08,0,0,1-20.06,24.5H239.62a25.07,25.07,0,0,1-25-25V1h-7.13c-13.07,0-23.76,11.25-23.76,25v82.5a25.13,25.13,0,0,1-25.11,25h-34v33H341.69a5.36,5.36,0,0,0,1.22-.13h26.58a25.29,25.29,0,0,0,25.14-25.29V133.5Z"/><path class="cls-1" d="M60.59,148.81v-.08l-.18,0C58.88,161,48.73,170.5,36.52,170.5H1.37v11.83H.5v7.5a25.19,25.19,0,0,0,25.22,25h10.8v0h0l0,0c13,0,23.74-10.89,24.08-24.33h0V149.17C60.61,149.05,60.59,148.93,60.59,148.81Zm-9,41.86v-.17h.11Z"/><path class="cls-2" d="M5.53,166.37H35.28c11.69,0,21.25-10.41,21.25-23.14"/><line class="cls-2" x1="56.53" y1="143.37" x2="56.53" y2="129.87"/><line class="cls-2" x1="0.5" y1="166.39" x2="15" y2="166.39"/><path class="cls-1" d="M1883.5,170.69H361.73v43.9H1883.5"/><line class="cls-3" x1="1919.5" y1="235.39" x2="0.5" y2="235.39"/><line class="cls-3" x1="1920.5" y1="235.39" x2="0.5" y2="235.39"/><line class="cls-3" x1="1920.5" y1="230.39" x2="0.5" y2="230.39"/><line class="cls-3" x1="1920.5" y1="225.39" x2="0.5" y2="225.39"/></g></g></svg>